<?xml version="1.0" standalone="no"?>
<!DOCTYPE svg PUBLIC "-//W3C//DTD SVG 1.1//EN" "http://www.w3.org/Graphics/SVG/1.1/DTD/svg11.dtd" >
<svg xmlns="http://www.w3.org/2000/svg" xmlns:xlink="http://www.w3.org/1999/xlink" version="1.1">
<metadata>
Created by FontForge 20170731 at Tue Oct 17 04:00:19 2017
 By Aleksey,,,
Original font was released under the public domain by Jungtae Kim in 1990s.
Conversion &#38; additional character design by Dalgona. &#60;dalgona@hontou.moe&#62;
</metadata>
<defs>
<font id="NeoDunggeunmo" horiz-adv-x="16" >
  <font-face 
    font-family="NeoDunggeunmo"
    font-weight="400"
    font-stretch="normal"
    units-per-em="16"
    panose-1="2 0 5 9 0 0 0 0 0 0"
    ascent="12"
    descent="-4"
    x-height="7"
    cap-height="10"
    bbox="0 -4 16 12"
    underline-thickness="1"
    underline-position="-4"
    unicode-range="U+0001-E0B3"
  />
<missing-glyph horiz-adv-x="1" 
d="M0 0v10h1v-10h-1zM0 0h1v10h-1v-10z" />
    <glyph glyph-name=".notdef" horiz-adv-x="1" 
d="M0 0v10h1v-10h-1zM0 0h1v10h-1v-10z" />
    <glyph glyph-name="uni0000" horiz-adv-x="8" 
 />
    <glyph glyph-name="uni0000" horiz-adv-x="8" 
 />
    <glyph glyph-name="uni000D" unicode="&#xd;" horiz-adv-x="8" 
d="M3 0h-3v2h1v1h1v7h6v-3h-4v-6h-1v-1zM4 8h2v1h-2v-1z" />
    <glyph glyph-name="uni0001" horiz-adv-x="8" 
d="M2 4v1h4v-1h-1v-1h-2v1h-1zM5 7v1h1v-1h-1zM2 7v1h1v-1h-1zM7 0h-6v1h6v-1zM7 1v8h1v-8h-1zM1 1h-1v8h1v-8zM7 9h-6v1h6v-1z" />
    <glyph glyph-name="uni0002" horiz-adv-x="8" 
d="M7 0h-6v1h-1v8h1v1h6v-1h1v-8h-1v-1zM3 3h2v1h1v1h-4v-1h1v-1zM6 7v1h-1v-1h1zM3 7v1h-1v-1h1z" />
    <glyph glyph-name="uni0003" horiz-adv-x="8" 
d="M4 1v-1h-1v1h-1v1h-1v1h-1v4h1v1h2v-1h1v1h2v-1h1v-4h-1v-1h-1v-1h-1z" />
    <glyph glyph-name="uni0004" horiz-adv-x="8" 
d="M0 4v1h1v1h1v1h1v1h1v-1h1v-1h1v-1h1v-1h-1v-1h-1v-1h-1v-1h-1v1h-1v1h-1v1h-1z" />
    <glyph glyph-name="uni0005" horiz-adv-x="8" 
d="M2 0v1h1v2h2v-2h1v-1h-4zM8 3h-3v3h-2v-3h-3v3h2v2h1v1h2v-1h1v-2h2v-3z" />
    <glyph glyph-name="uni0006" horiz-adv-x="8" 
d="M2 0v1h1v2h-2v1h-1v2h1v1h1v1h1v1h2v-1h1v-1h1v-1h1v-2h-1v-1h-2v-2h1v-1h-4z" />
    <glyph glyph-name="uni0007" horiz-adv-x="8" 
d="M5 2h-2v1h-1v2h1v1h2v-1h1v-2h-1v-1z" />
    <glyph glyph-name="uni0008" horiz-adv-x="8" 
d="M8 -4h-8v16h8v-16zM3 2h2v1h1v2h-1v1h-2v-1h-1v-2h1v-1z" />
    <glyph glyph-name="uni0009" unicode="&#x9;" horiz-adv-x="8" 
d="M6 1h-4v1h-1v4h1v1h4v-1h1v-4h-1v-1zM3 2h2v1h1v2h-1v1h-2v-1h-1v-2h1v-1z" />
    <glyph glyph-name="uni000A" unicode="&#xa;" horiz-adv-x="8" 
d="M8 -4h-8v16h8v-16zM2 1h4v1h1v4h-1v1h-4v-1h-1v-4h1v-1zM5 2h-2v1h-1v2h1v1h2v-1h1v-2h-1v-1z" />
    <glyph glyph-name="uni000B" horiz-adv-x="8" 
d="M3 9v1h4v-4h-1v2h-1v-1h-1v-1h1v-1h1v-4h-1v-1h-4v1h-1v4h1v1h1v1h1v1h1v1h-1zM2 1h2v4h-2v-4z" />
    <glyph glyph-name="uni000C" horiz-adv-x="8" 
d="M1 2v1h2v1h-1v1h-1v4h1v1h4v-1h1v-4h-1v-1h-1v-1h2v-1h-2v-2h-2v2h-2zM3 5h2v4h-2v-4z" />
    <glyph glyph-name="uni000E" horiz-adv-x="8" 
d="M2 -1h-2v3h1v8h7v-9h-1v-1h-2v3h1v4h-3v-7h-1v-1zM3 8h3v1h-3v-1z" />
    <glyph glyph-name="uni000F" horiz-adv-x="8" 
d="M0 2v1h2v-1h-2zM0 4v1h2v1h1v3h2v-3h1v-1h2v-1h-2v-1h2v-1h-2v1h-1v-3h-2v3h-1v1h-2zM0 6v1h2v-1h-2zM3 4h2v1h-2v-1zM8 6h-2v1h2v-1z" />
    <glyph glyph-name="uni0010" horiz-adv-x="8" 
d="M1 1v-1h-1v11h1v-1h1v-1h1v-1h1v-1h1v-1h2v-1h-2v-1h-1v-1h-1v-1h-1v-1h-1z" />
    <glyph glyph-name="uni0011" horiz-adv-x="8" 
d="M0 5v1h2v1h1v1h1v1h1v1h1v1h1v-11h-1v1h-1v1h-1v1h-1v1h-1v1h-2z" />
    <glyph glyph-name="uni0012" horiz-adv-x="8" 
d="M1 3v1h2v3h-2v1h1v1h1v1h2v-1h1v-1h1v-1h-2v-3h2v-1h-1v-1h-1v-1h-2v1h-1v1h-1z" />
    <glyph glyph-name="uni0013" horiz-adv-x="8" 
d="M7 0h-2v2h2v-2zM3 0h-2v2h2v-2zM7 3h-2v7h2v-7zM3 3h-2v7h2v-7z" />
    <glyph glyph-name="uni0014" horiz-adv-x="8" 
d="M8 0h-2v9h-1v-9h-2v5h-2v1h-1v3h1v1h7v-10zM3 6v3h-1v-3h1z" />
    <glyph glyph-name="uni0015" horiz-adv-x="8" 
d="M0 0v1h2v-1h3v1h-1v1h-2v1h-1v1h-1v2h1v1h1v1h-1v1h-1v1h1v1h5v-1h1v-1h-2v1h-3v-1h1v-1h2v-1h1v-1h1v-2h-1v-1h-1v-1h1v-1h1v-1h-1v-1h-5v1h-1zM4 3v1h1v2h-1v1h-1v-1h-1v-2h1v-1h1z" />
    <glyph glyph-name="uni0016" horiz-adv-x="8" 
d="M7 0h-7v4h7v-4z" />
    <glyph glyph-name="uni0017" horiz-adv-x="8" 
d="M1 0v1h2v1h-1v1h-1v1h2v3h-2v1h1v1h1v1h2v-1h1v-1h1v-1h-2v-3h2v-1h-1v-1h-1v-1h2v-1h-6z" />
    <glyph glyph-name="uni0018" horiz-adv-x="8" 
d="M1 7v1h1v1h1v1h2v-1h1v-1h1v-1h-2v-7h-2v7h-2z" />
    <glyph glyph-name="uni0019" horiz-adv-x="8" 
d="M1 2v1h2v7h2v-7h2v-1h-1v-1h-1v-1h-2v1h-1v1h-1z" />
    <glyph glyph-name="uni001A" horiz-adv-x="8" 
d="M3 2v1h1v1h-4v1h4v1h-1v1h2v-1h1v-1h1v-1h-1v-1h-1v-1h-2z" />
    <glyph glyph-name="uni001B" horiz-adv-x="8" 
d="M0 4v1h1v1h1v1h2v-1h-1v-1h4v-1h-4v-1h1v-1h-2v1h-1v1h-1z" />
    <glyph glyph-name="uni001C" horiz-adv-x="8" 
d="M7 2h-7v4h2v-3h5v-1z" />
    <glyph glyph-name="uni001D" horiz-adv-x="8" 
d="M0 4v1h1v1h1v1h1v-2h1v2h1v-1h1v-1h1v-1h-1v-1h-1v-1h-1v2h-1v-2h-1v1h-1v1h-1z" />
    <glyph glyph-name="uni001E" horiz-adv-x="8" 
d="M7 1h-7v2h1v2h1v2h1v1h1v-1h1v-2h1v-2h1v-2z" />
    <glyph glyph-name="uni001F" horiz-adv-x="8" 
d="M4 2v-1h-1v1h-1v2h-1v2h-1v2h7v-2h-1v-2h-1v-2h-1z" />
    <glyph glyph-name="space" unicode=" " horiz-adv-x="8" 
 />
    <glyph glyph-name="exclam" unicode="!" horiz-adv-x="8" 
d="M5 0h-2v2h2v-2zM5 3h-2v7h2v-7z" />
    <glyph glyph-name="quotedbl" unicode="&#x22;" horiz-adv-x="8" 
d="M6 8v-1h-1v4h2v-3h-1zM3 11v-4h-1v1h-1v3h2z" />
    <glyph glyph-name="numbersign" unicode="#" horiz-adv-x="8" 
d="M0 2v1h1v3h-1v1h1v2h2v-2h1v2h2v-2h1v-1h-1v-3h1v-1h-1v-2h-2v2h-1v-2h-2v2h-1zM4 3v3h-1v-3h1z" />
    <glyph glyph-name="dollar" unicode="$" horiz-adv-x="8" 
d="M0 2v1h2v-1h1v3h-2v1h-1v2h1v1h2v2h1v-2h2v-1h1v-1h-2v1h-1v-2h2v-1h1v-3h-1v-1h-2v-2h-1v2h-2v1h-1zM5 2v3h-1v-3h1zM3 6v2h-1v-2h1z" />
    <glyph glyph-name="percent" unicode="%" horiz-adv-x="8" 
d="M7 0h-2v2h2v-2zM1 1v-1h-1v2h1v1h1v1h1v1h1v1h1v1h1v1h1v-2h-1v-1h-1v-1h-1v-1h-1v-1h-1v-1h-1zM2 6h-2v2h2v-2z" />
    <glyph glyph-name="ampersand" unicode="&#x26;" horiz-adv-x="8" 
d="M7 0h-2v1h-1v-1h-3v1h-1v4h1v1h1v1h-1v2h1v1h3v-1h1v-2h-1v-1h2v-1h-1v-4h1v-1zM2 1h2v3h-1v1h-1v-4zM5 5v1h-1v-1h1zM4 7v2h-1v-2h1z" />
    <glyph glyph-name="quotesingle" unicode="'" horiz-adv-x="8" 
d="M1 7v1h1v3h2v-3h-1v-1h-2z" />
    <glyph glyph-name="parenleft" unicode="(" horiz-adv-x="8" 
d="M6 0h-3v1h-1v8h1v1h3v-1h-2v-8h2v-1z" />
    <glyph glyph-name="parenright" unicode=")" horiz-adv-x="8" 
d="M2 0v1h2v8h-2v1h3v-1h1v-8h-1v-1h-3z" />
    <glyph glyph-name="asterisk" unicode="*" horiz-adv-x="8" 
d="M1 2v1h1v1h-2v1h2v1h-1v1h2v-1h2v1h2v-1h-1v-1h2v-1h-2v-1h1v-1h-2v1h-2v-1h-2z" />
    <glyph glyph-name="plus" unicode="+" horiz-adv-x="8" 
d="M1 4v1h2v2h2v-2h2v-1h-2v-2h-2v2h-2z" />
    <glyph glyph-name="comma" unicode="," horiz-adv-x="8" 
d="M2 -1v1h1v3h2v-3h-1v-1h-2z" />
    <glyph glyph-name="hyphen" unicode="-" horiz-adv-x="8" 
d="M0 4v1h7v-1h-7z" />
    <glyph glyph-name="period" unicode="." horiz-adv-x="8" 
d="M5 0h-2v2h2v-2z" />
    <glyph glyph-name="slash" unicode="/" horiz-adv-x="8" 
d="M1 1v-1h-1v2h1v1h1v1h1v1h1v1h1v1h1v1h1v-2h-1v-1h-1v-1h-1v-1h-1v-1h-1v-1h-1z" />
    <glyph glyph-name="zero" unicode="0" horiz-adv-x="8" 
d="M6 0h-5v1h-1v8h1v1h5v-1h1v-8h-1v-1zM2 1h3v4h-1v-1h-1v-1h-1v-2zM3 5v1h1v1h1v2h-3v-4h1z" />
    <glyph glyph-name="one" unicode="1" horiz-adv-x="8" 
d="M1 7v1h1v1h1v1h2v-10h-2v7h-2z" />
    <glyph glyph-name="two" unicode="2" horiz-adv-x="8" 
d="M0 9v1h6v-1h1v-3h-1v-1h-4v-4h5v-1h-7v5h1v1h4v3h-5z" />
    <glyph glyph-name="three" unicode="3" horiz-adv-x="8" 
d="M0 0v1h5v4h-4v1h4v3h-5v1h6v-1h1v-3h-1v-1h1v-4h-1v-1h-6z" />
    <glyph glyph-name="four" unicode="4" horiz-adv-x="8" 
d="M6 0h-2v4h-4v4h1v1h1v1h4v-5h1v-1h-1v-4zM2 5h2v4h-1v-1h-1v-3z" />
    <glyph glyph-name="five" unicode="5" horiz-adv-x="8" 
d="M0 0v1h5v4h-5v5h7v-1h-5v-3h4v-1h1v-4h-1v-1h-6z" />
    <glyph glyph-name="six" unicode="6" horiz-adv-x="8" 
d="M6 0h-5v1h-1v8h1v1h5v-1h-4v-3h4v-1h1v-4h-1v-1zM2 1h3v4h-3v-4z" />
    <glyph glyph-name="seven" unicode="7" horiz-adv-x="8" 
d="M0 9v1h7v-4h-1v-1h-2v-5h-2v5h1v1h2v3h-5z" />
    <glyph glyph-name="eight" unicode="8" horiz-adv-x="8" 
d="M6 0h-5v1h-1v4h1v1h-1v3h1v1h5v-1h1v-3h-1v-1h1v-4h-1v-1zM2 1h3v4h-3v-4zM2 6h3v3h-3v-3z" />
    <glyph glyph-name="nine" unicode="9" horiz-adv-x="8" 
d="M1 0v1h4v4h-4v1h-1v3h1v1h5v-1h1v-8h-1v-1h-5zM2 6h3v3h-3v-3z" />
    <glyph glyph-name="colon" unicode=":" horiz-adv-x="8" 
d="M5 1h-2v2h2v-2zM5 6h-2v2h2v-2z" />
    <glyph glyph-name="semicolon" unicode=";" horiz-adv-x="8" 
d="M2 0v1h1v2h2v-2h-1v-1h-2zM5 6h-2v2h2v-2z" />
    <glyph glyph-name="less" unicode="&#x3c;" horiz-adv-x="8" 
d="M1 4v1h1v1h1v1h1v1h1v1h2v-1h-1v-1h-1v-1h-1v-1h-1v-1h1v-1h1v-1h1v-1h1v-1h-2v1h-1v1h-1v1h-1v1h-1z" />
    <glyph glyph-name="equal" unicode="=" horiz-adv-x="8" 
d="M1 3v1h6v-1h-6zM1 6v1h6v-1h-6z" />
    <glyph glyph-name="greater" unicode="&#x3e;" horiz-adv-x="8" 
d="M1 0v1h1v1h1v1h1v1h1v1h-1v1h-1v1h-1v1h-1v1h2v-1h1v-1h1v-1h1v-1h1v-1h-1v-1h-1v-1h-1v-1h-1v-1h-2z" />
    <glyph glyph-name="question" unicode="?" horiz-adv-x="8" 
d="M5 0h-2v2h2v-2zM5 3h-2v3h1v1h1v2h-3v-2h-2v2h1v1h5v-1h1v-2h-1v-1h-1v-3z" />
    <glyph glyph-name="at" unicode="@" horiz-adv-x="8" 
d="M6 0h-5v1h-1v7h1v1h5v-1h1v-5h-1v-1h-3v4h2v2h-3v-7h4v-1z" />
    <glyph glyph-name="A" unicode="A" horiz-adv-x="8" 
d="M7 0h-2v5h-3v-5h-2v9h1v1h5v-1h1v-9zM2 6h3v3h-3v-3z" />
    <glyph glyph-name="B" unicode="B" horiz-adv-x="8" 
d="M6 0h-6v10h6v-1h1v-3h-1v-1h1v-4h-1v-1zM2 1h3v4h-3v-4zM2 6h3v3h-3v-3z" />
    <glyph glyph-name="C" unicode="C" horiz-adv-x="8" 
d="M6 0h-5v1h-1v8h1v1h5v-1h1v-1h-2v1h-3v-8h3v1h2v-1h-1v-1z" />
    <glyph glyph-name="D" unicode="D" horiz-adv-x="8" 
d="M6 0h-6v10h6v-1h1v-8h-1v-1zM2 1h3v8h-3v-8z" />
    <glyph glyph-name="E" unicode="E" horiz-adv-x="8" 
d="M7 0h-6v1h-1v8h1v1h6v-1h-5v-3h4v-1h-4v-4h5v-1z" />
    <glyph glyph-name="F" unicode="F" horiz-adv-x="8" 
d="M2 0h-2v9h1v1h6v-1h-5v-3h4v-1h-4v-5z" />
    <glyph glyph-name="G" unicode="G" horiz-adv-x="8" 
d="M4 5v1h3v-6h-6v1h-1v8h1v1h5v-1h1v-1h-2v1h-3v-8h3v4h-1z" />
    <glyph glyph-name="H" unicode="H" horiz-adv-x="8" 
d="M7 0h-2v5h-3v-5h-2v10h2v-4h3v4h2v-10z" />
    <glyph glyph-name="I" unicode="I" horiz-adv-x="8" 
d="M1 0v1h2v8h-2v1h6v-1h-2v-8h2v-1h-6z" />
    <glyph glyph-name="J" unicode="J" horiz-adv-x="8" 
d="M6 0h-5v1h-1v4h2v-4h3v9h2v-9h-1v-1z" />
    <glyph glyph-name="K" unicode="K" horiz-adv-x="8" 
d="M7 0h-2v4h-1v1h-2v-5h-2v10h2v-4h2v1h1v3h2v-3h-1v-1h-1v-1h1v-1h1v-4z" />
    <glyph glyph-name="L" unicode="L" horiz-adv-x="8" 
d="M7 0h-7v10h2v-9h5v-1z" />
    <glyph glyph-name="M" unicode="M" horiz-adv-x="8" 
d="M7 0h-2v9h-1v-9h-1v9h-1v-9h-2v10h6v-1h1v-9z" />
    <glyph glyph-name="N" unicode="N" horiz-adv-x="8" 
d="M7 0h-2v9h-3v-9h-2v10h6v-1h1v-9z" />
    <glyph glyph-name="O" unicode="O" horiz-adv-x="8" 
d="M6 0h-5v1h-1v8h1v1h5v-1h1v-8h-1v-1zM2 1h3v8h-3v-8z" />
    <glyph glyph-name="P" unicode="P" horiz-adv-x="8" 
d="M2 0h-2v10h6v-1h1v-3h-1v-1h-4v-5zM2 6h3v3h-3v-3z" />
    <glyph glyph-name="Q" unicode="Q" horiz-adv-x="8" 
d="M7 -2h-3v1h-1v1h-2v1h-1v8h1v1h5v-1h1v-8h-1v-1h-1v-1h2v-1zM2 1h3v8h-3v-8z" />
    <glyph glyph-name="R" unicode="R" horiz-adv-x="8" 
d="M7 0h-2v5h-3v-5h-2v10h6v-1h1v-3h-1v-1h1v-5zM2 6h3v3h-3v-3z" />
    <glyph glyph-name="S" unicode="S" horiz-adv-x="8" 
d="M0 1v1h2v-1h3v4h-4v1h-1v3h1v1h5v-1h1v-1h-2v1h-3v-3h4v-1h1v-4h-1v-1h-5v1h-1z" />
    <glyph glyph-name="T" unicode="T" horiz-adv-x="8" 
d="M1 9v1h6v-1h-2v-9h-2v9h-2z" />
    <glyph glyph-name="U" unicode="U" horiz-adv-x="8" 
d="M6 0h-5v1h-1v9h2v-9h3v9h2v-9h-1v-1z" />
    <glyph glyph-name="V" unicode="V" horiz-adv-x="8" 
d="M5 0h-3v1h-1v1h-1v8h2v-8h1v-1h1v1h1v8h2v-8h-1v-1h-1v-1z" />
    <glyph glyph-name="W" unicode="W" horiz-adv-x="8" 
d="M6 0h-5v1h-1v9h2v-9h1v9h1v-9h1v9h2v-9h-1v-1z" />
    <glyph glyph-name="X" unicode="X" horiz-adv-x="8" 
d="M7 0h-2v4h-1v1h-1v-1h-1v-4h-2v4h1v1h1v1h-1v1h-1v3h2v-3h1v-1h1v1h1v3h2v-3h-1v-1h-1v-1h1v-1h1v-4z" />
    <glyph glyph-name="Y" unicode="Y" horiz-adv-x="8" 
d="M5 0h-2v5h-1v1h-1v4h2v-4h2v4h2v-4h-1v-1h-1v-5z" />
    <glyph glyph-name="Z" unicode="Z" horiz-adv-x="8" 
d="M0 9v1h7v-3h-1v-1h-1v-1h-2v-1h-1v-3h5v-1h-7v4h1v1h1v1h2v1h1v2h-5z" />
    <glyph glyph-name="bracketleft" unicode="[" horiz-adv-x="8" 
d="M6 0h-4v10h4v-1h-2v-8h2v-1z" />
    <glyph glyph-name="backslash" unicode="\" horiz-adv-x="8" 
d="M7 2v-2h-1v1h-1v1h-1v1h-1v1h-1v1h-1v1h-1v2h1v-1h1v-1h1v-1h1v-1h1v-1h1v-1h1z" />
    <glyph glyph-name="bracketright" unicode="]" horiz-adv-x="8" 
d="M2 0v1h2v8h-2v1h4v-10h-4z" />
    <glyph glyph-name="asciicircum" unicode="^" horiz-adv-x="8" 
d="M0 8v1h1v1h1v1h1v1h1v-1h1v-1h1v-1h1v-1h-2v1h-1v1h-1v-1h-1v-1h-2z" />
    <glyph glyph-name="underscore" unicode="_" horiz-adv-x="8" 
d="M0 -2v1h8v-1h-8z" />
    <glyph glyph-name="grave" unicode="`" horiz-adv-x="8" 
d="M2 10v1h2v-1h1v-1h1v-1h-2v1h-1v1h-1z" />
    <glyph glyph-name="a" unicode="a" horiz-adv-x="8" 
d="M0 6v1h6v-1h1v-6h-6v1h-1v3h1v1h4v1h-5zM2 1h3v3h-3v-3z" />
    <glyph glyph-name="b" unicode="b" horiz-adv-x="8" 
d="M6 0h-6v10h2v-3h4v-1h1v-5h-1v-1zM2 1h3v5h-3v-5z" />
    <glyph glyph-name="c" unicode="c" horiz-adv-x="8" 
d="M6 0h-5v1h-1v5h1v1h5v-1h1v-1h-2v1h-3v-5h3v1h2v-1h-1v-1z" />
    <glyph glyph-name="d" unicode="d" horiz-adv-x="8" 
d="M7 0h-6v1h-1v5h1v1h4v3h2v-10zM2 1h3v5h-3v-5z" />
    <glyph glyph-name="e" unicode="e" horiz-adv-x="8" 
d="M6 0h-5v1h-1v5h1v1h5v-1h1v-2h-5v-3h3v1h2v-1h-1v-1zM2 5h3v1h-3v-1z" />
    <glyph glyph-name="f" unicode="f" horiz-adv-x="8" 
d="M0 5v1h1v3h1v1h4v-1h1v-1h-2v1h-2v-3h2v-1h-2v-5h-2v5h-1z" />
    <glyph glyph-name="g" unicode="g" horiz-adv-x="8" 
d="M0 -2v1h2v-1h3v2h-4v1h-1v5h1v1h6v-9h-1v-1h-5v1h-1zM2 1h3v5h-3v-5z" />
    <glyph glyph-name="h" unicode="h" horiz-adv-x="8" 
d="M7 0h-2v6h-3v-6h-2v10h2v-3h4v-1h1v-6z" />
    <glyph glyph-name="i" unicode="i" horiz-adv-x="8" 
d="M5 0h-2v1h-1v6h2v-6h1v-1zM4 8h-2v2h2v-2z" />
    <glyph glyph-name="j" unicode="j" horiz-adv-x="8" 
d="M5 -3h-4v1h-1v2h2v-2h2v9h2v-9h-1v-1zM6 8h-2v2h2v-2z" />
    <glyph glyph-name="k" unicode="k" horiz-adv-x="8" 
d="M7 0h-2v2h-1v1h-2v-3h-2v10h2v-6h2v1h1v2h2v-2h-1v-1h-1v-1h1v-1h1v-2z" />
    <glyph glyph-name="l" unicode="l" horiz-adv-x="8" 
d="M5 0h-2v1h-1v9h2v-9h1v-1z" />
    <glyph glyph-name="m" unicode="m" horiz-adv-x="8" 
d="M7 0h-2v6h-1v-6h-1v6h-1v-6h-2v7h6v-1h1v-6z" />
    <glyph glyph-name="n" unicode="n" horiz-adv-x="8" 
d="M7 0h-2v6h-3v-6h-2v7h6v-1h1v-6z" />
    <glyph glyph-name="o" unicode="o" horiz-adv-x="8" 
d="M6 0h-5v1h-1v5h1v1h5v-1h1v-5h-1v-1zM2 1h3v5h-3v-5z" />
    <glyph glyph-name="p" unicode="p" horiz-adv-x="8" 
d="M2 -3h-2v10h6v-1h1v-5h-1v-1h-4v-3zM2 1h3v5h-3v-5z" />
    <glyph glyph-name="q" unicode="q" horiz-adv-x="8" 
d="M7 -3h-2v3h-4v1h-1v5h1v1h6v-10zM2 1h3v5h-3v-5z" />
    <glyph glyph-name="r" unicode="r" horiz-adv-x="8" 
d="M2 0h-2v7h6v-1h1v-1h-2v1h-3v-6z" />
    <glyph glyph-name="s" unicode="s" horiz-adv-x="8" 
d="M0 1v1h2v-1h3v2h-4v1h-1v2h1v1h5v-1h1v-1h-2v1h-3v-2h4v-1h1v-2h-1v-1h-5v1h-1z" />
    <glyph glyph-name="t" unicode="t" horiz-adv-x="8" 
d="M0 6v1h1v3h2v-3h2v-1h-2v-5h2v1h2v-1h-1v-1h-4v1h-1v5h-1z" />
    <glyph glyph-name="u" unicode="u" horiz-adv-x="8" 
d="M6 0h-5v1h-1v6h2v-6h3v6h2v-6h-1v-1z" />
    <glyph glyph-name="v" unicode="v" horiz-adv-x="8" 
d="M5 0h-3v1h-1v1h-1v5h2v-5h1v-1h1v1h1v5h2v-5h-1v-1h-1v-1z" />
    <glyph glyph-name="w" unicode="w" horiz-adv-x="8" 
d="M6 0h-5v1h-1v6h2v-6h1v6h1v-6h1v6h2v-6h-1v-1z" />
    <glyph glyph-name="x" unicode="x" horiz-adv-x="8" 
d="M7 0h-2v2h-1v1h-1v-1h-1v-2h-2v2h1v1h1v1h-1v1h-1v2h2v-2h1v-1h1v1h1v2h2v-2h-1v-1h-1v-1h1v-1h1v-2z" />
    <glyph glyph-name="y" unicode="y" horiz-adv-x="8" 
d="M1 -3v1h4v2h-4v1h-1v6h2v-6h3v6h2v-9h-1v-1h-5z" />
    <glyph glyph-name="z" unicode="z" horiz-adv-x="8" 
d="M0 6v1h7v-2h-1v-1h-1v-1h-2v-1h-1v-1h5v-1h-7v2h1v1h1v1h2v1h1v1h-5z" />
    <glyph glyph-name="braceleft" unicode="{" horiz-adv-x="8" 
d="M1 5v1h2v3h1v1h3v-1h-2v-3h-1v-1h1v-4h2v-1h-3v1h-1v4h-2z" />
    <glyph glyph-name="bar" unicode="|" horiz-adv-x="8" 
d="M5 0h-2v10h2v-10z" />
    <glyph glyph-name="braceright" unicode="}" horiz-adv-x="8" 
d="M1 0v1h2v4h1v1h-1v3h-2v1h3v-1h1v-3h2v-1h-2v-4h-1v-1h-3z" />
    <glyph glyph-name="asciitilde" unicode="~" horiz-adv-x="8" 
d="M0 9v1h1v1h3v-1h1v1h2v-1h-1v-1h-3v1h-1v-1h-2z" />
    <glyph glyph-name="uni007F" horiz-adv-x="8" 
d="M7 1h-7v4h1v1h1v1h1v1h1v-1h1v-1h1v-1h1v-4zM2 2h3v3h-1v1h-1v-1h-1v-3z" />
    <glyph glyph-name="exclamdown" unicode="&#xa1;" horiz-adv-x="8" 
d="M5 -3h-2v7h2v-7zM5 5h-2v2h2v-2z" />
    <glyph glyph-name="cent" unicode="&#xa2;" horiz-adv-x="8" 
d="M4 2v-2h-1v2h-2v1h-1v4h1v1h2v2h1v-2h2v-1h1v-1h-2v1h-1v-4h1v1h2v-1h-1v-1h-2zM3 3v4h-1v-4h1z" />
    <glyph glyph-name="sterling" unicode="&#xa3;" horiz-adv-x="8" 
d="M0 0v1h1v4h-1v1h1v3h1v1h3v-1h1v-1h-2v1h-1v-3h2v-1h-2v-4h4v-1h-7z" />
    <glyph glyph-name="currency" unicode="&#xa4;" horiz-adv-x="8" 
d="M0 0v1h1v5h-1v1h2v-1h3v1h2v-1h-1v-5h1v-1h-2v1h-3v-1h-2zM4 2v3h-1v-3h1z" />
    <glyph glyph-name="yen" unicode="&#xa5;" horiz-adv-x="8" 
d="M1 2v1h2v1h-2v1h2v1h-1v1h-1v3h2v-3h2v3h2v-3h-1v-1h-1v-1h2v-1h-2v-1h2v-1h-2v-2h-2v2h-2z" />
    <glyph glyph-name="brokenbar" unicode="&#xa6;" horiz-adv-x="8" 
d="M5 -1h-2v5h2v-5zM5 6h-2v5h2v-5z" />
    <glyph glyph-name="section" unicode="&#xa7;" horiz-adv-x="8" 
d="M1 0v1h2v-1h2v1h-1v1h-1v1h-1v1h-1v2h1v1h1v1h-1v1h-1v1h1v1h4v-1h1v-1h-2v1h-2v-1h1v-1h1v-1h1v-1h1v-2h-1v-1h-1v-1h1v-1h1v-1h-1v-1h-4v1h-1zM3 4h2v2h-2v-2z" />
    <glyph glyph-name="dieresis" unicode="&#xa8;" horiz-adv-x="8" 
d="M4 10v1h2v-1h-2zM1 10v1h2v-1h-2z" />
    <glyph glyph-name="copyright" unicode="&#xa9;" horiz-adv-x="8" 
d="M5 -1h-3v1h3v-1zM5 0v1h1v-1h-1zM2 0h-1v1h1v-1zM6 1v7h1v-7h-1zM1 1h-1v7h1v-7zM5 2h-2v1h2v-1zM3 3h-1v3h1v-3zM5 6h-2v1h2v-1zM6 8h-1v1h1v-1zM1 8v1h1v-1h-1zM5 9h-3v1h3v-1z" />
    <glyph glyph-name="ordfeminine" unicode="&#xaa;" horiz-adv-x="8" 
d="M1 4v1h6v-1h-6zM7 6h-5v1h-1v2h1v1h4v-3h1v-1zM4 7v2h-1v-2h1z" />
    <glyph glyph-name="guillemotleft" unicode="&#xab;" horiz-adv-x="8" 
d="M0 3v1h1v1h1v1h2v-1h1v1h2v-1h-1v-1h-1v-1h1v-1h1v-1h-2v1h-1v-1h-2v1h-1v1h-1zM4 2v1h-1v-1h1zM3 3v1h1v1h-1v-1h-1v-1h1z" />
    <glyph glyph-name="logicalnot" unicode="&#xac;" horiz-adv-x="8" 
d="M0 5v1h7v-5h-2v4h-5z" />
    <glyph glyph-name="registered" unicode="&#xae;" horiz-adv-x="8" 
d="M5 -1h-3v1h3v-1zM5 0v1h1v-1h-1zM2 0h-1v1h1v-1zM6 1v7h1v-7h-1zM1 1h-1v7h1v-7zM5 4v-2h-1v2h1zM3 4v-2h-1v5h2v-1h1v-1h-1v-1h-1zM4 5v1h-1v-1h1zM6 8h-1v1h1v-1zM1 8v1h1v-1h-1zM5 9h-3v1h3v-1z" />
    <glyph glyph-name="macron" unicode="&#xaf;" horiz-adv-x="8" 
d="M1 10v1h5v-1h-5z" />
    <glyph glyph-name="degree" unicode="&#xb0;" horiz-adv-x="8" 
d="M5 7h-2v1h2v-1zM5 8v2h1v-2h-1zM3 8h-1v2h1v-2zM5 10h-2v1h2v-1z" />
    <glyph glyph-name="plusminus" unicode="&#xb1;" horiz-adv-x="8" 
d="M1 0v1h6v-1h-6zM1 4v1h2v2h2v-2h2v-1h-2v-2h-2v2h-2z" />
    <glyph glyph-name="uni00B2" unicode="&#xb2;" horiz-adv-x="8" 
d="M1 10v1h4v-1h1v-2h-1v-1h-2v-2h3v-1h-5v3h1v1h2v2h-3z" />
    <glyph glyph-name="uni00B3" unicode="&#xb3;" horiz-adv-x="8" 
d="M1 4v1h3v2h-2v1h2v2h-3v1h4v-1h1v-2h-1v-1h1v-2h-1v-1h-4z" />
    <glyph glyph-name="acute" unicode="&#xb4;" horiz-adv-x="8" 
d="M2 10v1h1v1h2v-1h-1v-1h-2z" />
    <glyph glyph-name="mu" unicode="&#xb5;" horiz-adv-x="8" 
d="M2 -3h-2v10h2v-6h2v1h1v5h2v-7h-1v1h-1v-1h-3v-3z" />
    <glyph glyph-name="paragraph" unicode="&#xb6;" horiz-adv-x="8" 
d="M6 6v-9h-1v9h-1v-9h-1v5h-2v1h-1v3h1v1h6v-1h-1z" />
    <glyph glyph-name="periodcentered" unicode="&#xb7;" horiz-adv-x="8" 
d="M5 3h-2v2h2v-2z" />
    <glyph glyph-name="cedilla" unicode="&#xb8;" horiz-adv-x="8" 
d="M2 -3v1h2v1h-1v1h2v-1h1v-1h-1v-1h-3z" />
    <glyph glyph-name="uni00B9" unicode="&#xb9;" horiz-adv-x="8" 
d="M1 8v1h1v1h1v1h2v-7h-2v4h-2z" />
    <glyph glyph-name="ordmasculine" unicode="&#xba;" horiz-adv-x="8" 
d="M1 4v1h6v-1h-6zM6 6h-4v1h-1v2h1v1h4v-1h1v-2h-1v-1zM3 7h2v2h-2v-2z" />
    <glyph glyph-name="guillemotright" unicode="&#xbb;" horiz-adv-x="8" 
d="M0 1v1h1v1h1v1h-1v1h-1v1h2v-1h1v-1h1v-1h1v1h-1v1h-1v1h2v-1h1v-1h1v-1h-1v-1h-1v-1h-2v1h1v1h-1v-1h-1v-1h-2z" />
    <glyph glyph-name="onequarter" unicode="&#xbc;" horiz-adv-x="8" 
d="M0 1v1h1v-1h-1zM0 8v1h1v1h2v-5h1v-1h-1v-1h-1v-1h-1v1h1v1h1v1h-2v3h-1zM7 -1v-1h-1v1h-3v3h1v1h3v-3h1v-1h-1zM6 0v2h-1v-2h1zM4 5v1h1v-1h-1zM5 6v1h1v-1h-1zM6 7v1h1v-1h-1z" />
    <glyph glyph-name="onehalf" unicode="&#xbd;" horiz-adv-x="8" 
d="M0 1v1h1v-1h-1zM0 8v1h1v1h2v-5h1v-1h-1v-1h3v-1h1v-1h-1v-1h-1v-1h2v-1h-4v2h1v1h1v1h-2v1h-1v-1h-1v1h1v1h1v1h-2v3h-1zM4 5v1h1v-1h-1zM5 6v1h1v-1h-1zM6 7v1h1v-1h-1z" />
    <glyph glyph-name="threequarters" unicode="&#xbe;" horiz-adv-x="8" 
d="M0 1v1h1v-1h-1zM0 5v1h2v1h-1v1h1v1h-2v1h3v-1h1v-1h-1v-1h1v-1h1v-1h-1v-1h-1v-1h-1v-1h-1v1h1v1h1v1h1v1h-1v-1h-3zM7 -1v-1h-1v1h-3v3h1v1h3v-3h1v-1h-1zM6 0v2h-1v-2h1zM5 6v1h1v-1h-1zM6 7v1h1v-1h-1z" />
    <glyph glyph-name="questiondown" unicode="&#xbf;" horiz-adv-x="8" 
d="M6 -2h-5v1h-1v3h1v1h1v2h2v-2h-1v-1h-1v-3h3v2h2v-2h-1v-1zM4 6h-2v2h2v-2z" />
    <glyph glyph-name="Agrave" unicode="&#xc0;" horiz-adv-x="8" 
d="M2 11v1h2v-1h1v-1h-2v1h-1zM7 0h-2v4h-3v-4h-2v8h1v1h5v-1h1v-8zM2 5h3v3h-3v-3z" />
    <glyph glyph-name="Aacute" unicode="&#xc1;" horiz-adv-x="8" 
d="M2 10v1h1v1h2v-1h-1v-1h-2zM7 0h-2v4h-3v-4h-2v8h1v1h5v-1h1v-8zM2 5h3v3h-3v-3z" />
    <glyph glyph-name="Acircumflex" unicode="&#xc2;" horiz-adv-x="8" 
d="M1 10v1h1v1h3v-1h1v-1h-2v1h-1v-1h-2zM7 0h-2v4h-3v-4h-2v8h1v1h5v-1h1v-8zM2 5h3v3h-3v-3z" />
    <glyph glyph-name="Atilde" unicode="&#xc3;" horiz-adv-x="8" 
d="M0 10v1h1v1h3v-1h1v1h2v-1h-1v-1h-3v1h-1v-1h-2zM7 0h-2v4h-3v-4h-2v8h1v1h5v-1h1v-8zM2 5h3v3h-3v-3z" />
    <glyph glyph-name="Adieresis" unicode="&#xc4;" horiz-adv-x="8" 
d="M4 10v1h2v-1h-2zM1 10v1h2v-1h-2zM7 0h-2v4h-3v-4h-2v8h1v1h5v-1h1v-8zM2 5h3v3h-3v-3z" />
    <glyph glyph-name="Aring" unicode="&#xc5;" horiz-adv-x="8" 
d="M1 10v1h1v1h3v-1h1v-1h-1v-1h1v-1h1v-8h-2v4h-3v-4h-2v8h1v1h1v1h-1zM2 5h3v3h-3v-3zM4 10v1h-1v-1h1z" />
    <glyph glyph-name="AE" unicode="&#xc6;" horiz-adv-x="8" 
d="M7 0h-4v5h-1v-5h-2v9h1v1h6v-1h-2v-3h2v-1h-2v-4h2v-1zM3 6v3h-1v-3h1z" />
    <glyph glyph-name="Ccedilla" unicode="&#xc7;" horiz-adv-x="8" 
d="M2 -3v1h2v1h-1v1h-2v1h-1v8h1v1h5v-1h1v-1h-2v1h-3v-8h3v1h2v-1h-1v-1h-1v-1h1v-1h-1v-1h-3z" />
    <glyph glyph-name="Egrave" unicode="&#xc8;" horiz-adv-x="8" 
d="M2 11v1h2v-1h1v-1h-2v1h-1zM7 0h-6v1h-1v7h1v1h6v-1h-5v-3h4v-1h-4v-3h5v-1z" />
    <glyph glyph-name="Eacute" unicode="&#xc9;" horiz-adv-x="8" 
d="M2 10v1h1v1h2v-1h-1v-1h-2zM7 0h-6v1h-1v7h1v1h6v-1h-5v-3h4v-1h-4v-3h5v-1z" />
    <glyph glyph-name="Ecircumflex" unicode="&#xca;" horiz-adv-x="8" 
d="M1 10v1h1v1h3v-1h1v-1h-2v1h-1v-1h-2zM7 0h-6v1h-1v7h1v1h6v-1h-5v-3h4v-1h-4v-3h5v-1z" />
    <glyph glyph-name="Edieresis" unicode="&#xcb;" horiz-adv-x="8" 
d="M4 10v1h2v-1h-2zM1 10v1h2v-1h-2zM7 0h-6v1h-1v7h1v1h6v-1h-5v-3h4v-1h-4v-3h5v-1z" />
    <glyph glyph-name="Igrave" unicode="&#xcc;" horiz-adv-x="8" 
d="M1 0v1h2v7h-2v1h6v-1h-2v-7h2v-1h-6zM2 11v1h2v-1h1v-1h-2v1h-1z" />
    <glyph glyph-name="Iacute" unicode="&#xcd;" horiz-adv-x="8" 
d="M1 0v1h2v7h-2v1h6v-1h-2v-7h2v-1h-6zM2 10v1h1v1h2v-1h-1v-1h-2z" />
    <glyph glyph-name="Icircumflex" unicode="&#xce;" horiz-adv-x="8" 
d="M1 0v1h2v7h-2v1h6v-1h-2v-7h2v-1h-6zM1 10v1h1v1h3v-1h1v-1h-2v1h-1v-1h-2z" />
    <glyph glyph-name="Idieresis" unicode="&#xcf;" horiz-adv-x="8" 
d="M1 0v1h2v7h-2v1h6v-1h-2v-7h2v-1h-6zM5 10v1h2v-1h-2zM1 10v1h2v-1h-2z" />
    <glyph glyph-name="Eth" unicode="&#xd0;" horiz-adv-x="8" 
d="M0 5v1h1v4h5v-1h1v-8h-1v-1h-5v5h-1zM3 1h2v8h-2v-3h1v-1h-1v-4z" />
    <glyph glyph-name="Ntilde" unicode="&#xd1;" horiz-adv-x="8" 
d="M0 10v1h1v1h3v-1h1v1h2v-1h-1v-1h-3v1h-1v-1h-2zM7 0h-2v8h-3v-8h-2v9h6v-1h1v-8z" />
    <glyph glyph-name="Ograve" unicode="&#xd2;" horiz-adv-x="8" 
d="M2 11v1h2v-1h1v-1h-2v1h-1zM6 0h-5v1h-1v7h1v1h5v-1h1v-7h-1v-1zM2 1h3v7h-3v-7z" />
    <glyph glyph-name="Oacute" unicode="&#xd3;" horiz-adv-x="8" 
d="M2 10v1h1v1h2v-1h-1v-1h-2zM6 0h-5v1h-1v7h1v1h5v-1h1v-7h-1v-1zM2 1h3v7h-3v-7z" />
    <glyph glyph-name="Ocircumflex" unicode="&#xd4;" horiz-adv-x="8" 
d="M1 10v1h1v1h3v-1h1v-1h-2v1h-1v-1h-2zM6 0h-5v1h-1v7h1v1h5v-1h1v-7h-1v-1zM2 1h3v7h-3v-7z" />
    <glyph glyph-name="Otilde" unicode="&#xd5;" horiz-adv-x="8" 
d="M0 10v1h1v1h3v-1h1v1h2v-1h-1v-1h-3v1h-1v-1h-2zM6 0h-5v1h-1v7h1v1h5v-1h1v-7h-1v-1zM2 1h3v7h-3v-7z" />
    <glyph glyph-name="Odieresis" unicode="&#xd6;" horiz-adv-x="8" 
d="M4 10v1h2v-1h-2zM1 10v1h2v-1h-2zM6 0h-5v1h-1v7h1v1h5v-1h1v-7h-1v-1zM2 1h3v7h-3v-7z" />
    <glyph glyph-name="multiply" unicode="&#xd7;" horiz-adv-x="8" 
d="M1 1v1h1v-1h-1zM1 6v1h1v-1h1v-1h2v-2h1v-1h1v-1h-1v1h-1v1h-2v-1h-1v1h1v2h-1v1h-1zM5 5v1h1v-1h-1zM6 6v1h1v-1h-1z" />
    <glyph glyph-name="Oslash" unicode="&#xd8;" horiz-adv-x="8" 
d="M1 0v-2h-1v2h1zM6 0h-5v1h-1v7h1v1h5v-1h1v-7h-1v-1zM2 1h3v5h-1v-2h-1v-2h-1v-1zM3 4v2h1v2h-2v-4h1zM6 9v2h1v-2h-1z" />
    <glyph glyph-name="Ugrave" unicode="&#xd9;" horiz-adv-x="8" 
d="M2 11v1h2v-1h1v-1h-2v1h-1zM6 0h-5v1h-1v8h2v-8h3v8h2v-8h-1v-1z" />
    <glyph glyph-name="Uacute" unicode="&#xda;" horiz-adv-x="8" 
d="M2 10v1h1v1h2v-1h-1v-1h-2zM6 0h-5v1h-1v8h2v-8h3v8h2v-8h-1v-1z" />
    <glyph glyph-name="Ucircumflex" unicode="&#xdb;" horiz-adv-x="8" 
d="M1 10v1h1v1h3v-1h1v-1h-2v1h-1v-1h-2zM6 0h-5v1h-1v8h2v-8h3v8h2v-8h-1v-1z" />
    <glyph glyph-name="Udieresis" unicode="&#xdc;" horiz-adv-x="8" 
d="M4 10v1h2v-1h-2zM1 10v1h2v-1h-2zM6 0h-5v1h-1v8h2v-8h3v8h2v-8h-1v-1z" />
    <glyph glyph-name="Yacute" unicode="&#xdd;" horiz-adv-x="8" 
d="M3 10v1h1v1h2v-1h-1v-1h-2zM5 0h-2v4h-1v1h-1v4h2v-4h2v4h2v-4h-1v-1h-1v-4z" />
    <glyph glyph-name="Thorn" unicode="&#xde;" horiz-adv-x="8" 
d="M2 0h-2v10h2v-2h4v-1h1v-4h-1v-1h-4v-2zM2 3h3v4h-3v-4z" />
    <glyph glyph-name="germandbls" unicode="&#xdf;" horiz-adv-x="8" 
d="M3 0v1h2v3h-1v1h-1v1h1v1h1v2h-3v-9h-2v9h1v1h5v-1h1v-2h-1v-1h-1v-1h1v-1h1v-3h-1v-1h-3z" />
    <glyph glyph-name="agrave" unicode="&#xe0;" horiz-adv-x="8" 
d="M0 6v1h6v-1h1v-6h-6v1h-1v3h1v1h4v1h-5zM2 9v1h2v-1h1v-1h-2v1h-1zM2 1h3v3h-3v-3z" />
    <glyph glyph-name="aacute" unicode="&#xe1;" horiz-adv-x="8" 
d="M0 6v1h6v-1h1v-6h-6v1h-1v3h1v1h4v1h-5zM2 8v1h1v1h2v-1h-1v-1h-2zM2 1h3v3h-3v-3z" />
    <glyph glyph-name="acircumflex" unicode="&#xe2;" horiz-adv-x="8" 
d="M0 6v1h6v-1h1v-6h-6v1h-1v3h1v1h4v1h-5zM1 8v1h1v1h3v-1h1v-1h-2v1h-1v-1h-2zM2 1h3v3h-3v-3z" />
    <glyph glyph-name="atilde" unicode="&#xe3;" horiz-adv-x="8" 
d="M0 6v1h6v-1h1v-6h-6v1h-1v3h1v1h4v1h-5zM0 8v1h1v1h3v-1h1v1h2v-1h-1v-1h-3v1h-1v-1h-2zM2 1h3v3h-3v-3z" />
    <glyph glyph-name="adieresis" unicode="&#xe4;" horiz-adv-x="8" 
d="M0 6v1h6v-1h1v-6h-6v1h-1v3h1v1h4v1h-5zM4 8v1h2v-1h-2zM1 8v1h2v-1h-2zM2 1h3v3h-3v-3z" />
    <glyph glyph-name="aring" unicode="&#xe5;" horiz-adv-x="8" 
d="M0 6v1h6v-1h1v-6h-6v1h-1v3h1v1h4v1h-5zM1 9v1h1v1h3v-1h1v-1h-1v-1h-3v1h-1zM2 1h3v3h-3v-3zM4 9v1h-1v-1h1z" />
    <glyph glyph-name="ae" unicode="&#xe6;" horiz-adv-x="8" 
d="M0 6v1h4v-1h1v-1h1v1h-1v1h2v-1h1v-1h-1v-1h-2v-3h3v-1h-3v1h-1v-1h-3v1h-1v3h1v1h2v1h-3zM3 1v3h-1v-3h1z" />
    <glyph glyph-name="ccedilla" unicode="&#xe7;" horiz-adv-x="8" 
d="M2 -3v1h2v1h-1v1h-2v1h-1v5h1v1h5v-1h1v-1h-2v1h-3v-5h3v1h2v-1h-1v-1h-1v-1h1v-1h-1v-1h-3z" />
    <glyph glyph-name="egrave" unicode="&#xe8;" horiz-adv-x="8" 
d="M2 9v1h2v-1h1v-1h-2v1h-1zM6 0h-5v1h-1v5h1v1h5v-1h1v-2h-5v-3h3v1h2v-1h-1v-1zM2 5h3v1h-3v-1z" />
    <glyph glyph-name="eacute" unicode="&#xe9;" horiz-adv-x="8" 
d="M2 8v1h1v1h2v-1h-1v-1h-2zM6 0h-5v1h-1v5h1v1h5v-1h1v-2h-5v-3h3v1h2v-1h-1v-1zM2 5h3v1h-3v-1z" />
    <glyph glyph-name="ecircumflex" unicode="&#xea;" horiz-adv-x="8" 
d="M1 8v1h1v1h3v-1h1v-1h-2v1h-1v-1h-2zM6 0h-5v1h-1v5h1v1h5v-1h1v-2h-5v-3h3v1h2v-1h-1v-1zM2 5h3v1h-3v-1z" />
    <glyph glyph-name="edieresis" unicode="&#xeb;" horiz-adv-x="8" 
d="M4 8v1h2v-1h-2zM1 8v1h2v-1h-2zM6 0h-5v1h-1v5h1v1h5v-1h1v-2h-5v-3h3v1h2v-1h-1v-1zM2 5h3v1h-3v-1z" />
    <glyph glyph-name="igrave" unicode="&#xec;" horiz-adv-x="8" 
d="M2 9v1h2v-1h1v-1h-2v1h-1zM6 0h-2v1h-1v6h2v-6h1v-1z" />
    <glyph glyph-name="iacute" unicode="&#xed;" horiz-adv-x="8" 
d="M3 8v1h1v1h2v-1h-1v-1h-2zM6 0h-2v1h-1v6h2v-6h1v-1z" />
    <glyph glyph-name="icircumflex" unicode="&#xee;" horiz-adv-x="8" 
d="M2 8v1h1v1h3v-1h1v-1h-2v1h-1v-1h-2zM6 0h-2v1h-1v6h2v-6h1v-1z" />
    <glyph glyph-name="idieresis" unicode="&#xef;" horiz-adv-x="8" 
d="M5 8v1h2v-1h-2zM1 8v1h2v-1h-2zM6 0h-2v1h-1v6h2v-6h1v-1z" />
    <glyph glyph-name="eth" unicode="&#xf0;" horiz-adv-x="8" 
d="M2 8v1h1v-1h-1zM2 10v1h2v-1h1v-1h1v-1h1v-7h-1v-1h-5v1h-1v5h1v1h4v1h-1v1h-1v1h-1zM2 1h3v5h-3v-5zM5 10v1h1v-1h-1z" />
    <glyph glyph-name="ntilde" unicode="&#xf1;" horiz-adv-x="8" 
d="M0 8v1h1v1h3v-1h1v1h2v-1h-1v-1h-3v1h-1v-1h-2zM7 0h-2v6h-3v-6h-2v7h6v-1h1v-6z" />
    <glyph glyph-name="ograve" unicode="&#xf2;" horiz-adv-x="8" 
d="M2 9v1h2v-1h1v-1h-2v1h-1zM6 0h-5v1h-1v5h1v1h5v-1h1v-5h-1v-1zM2 1h3v5h-3v-5z" />
    <glyph glyph-name="oacute" unicode="&#xf3;" horiz-adv-x="8" 
d="M2 8v1h1v1h2v-1h-1v-1h-2zM6 0h-5v1h-1v5h1v1h5v-1h1v-5h-1v-1zM2 1h3v5h-3v-5z" />
    <glyph glyph-name="ocircumflex" unicode="&#xf4;" horiz-adv-x="8" 
d="M1 8v1h1v1h3v-1h1v-1h-2v1h-1v-1h-2zM6 0h-5v1h-1v5h1v1h5v-1h1v-5h-1v-1zM2 1h3v5h-3v-5z" />
    <glyph glyph-name="otilde" unicode="&#xf5;" horiz-adv-x="8" 
d="M0 8v1h1v1h3v-1h1v1h2v-1h-1v-1h-3v1h-1v-1h-2zM6 0h-5v1h-1v5h1v1h5v-1h1v-5h-1v-1zM2 1h3v5h-3v-5z" />
    <glyph glyph-name="odieresis" unicode="&#xf6;" horiz-adv-x="8" 
d="M4 8v1h2v-1h-2zM1 8v1h2v-1h-2zM6 0h-5v1h-1v5h1v1h5v-1h1v-5h-1v-1zM2 1h3v5h-3v-5z" />
    <glyph glyph-name="divide" unicode="&#xf7;" horiz-adv-x="8" 
d="M3 2v1h2v-1h-2zM1 4v1h6v-1h-6zM3 6v1h2v-1h-2z" />
    <glyph glyph-name="oslash" unicode="&#xf8;" horiz-adv-x="8" 
d="M0 -2v1h1v-1h-1zM1 -1v2h-1v5h1v1h4v1h1v-2h1v-5h-1v-1h-4v-1h-1zM3 1h2v3h-1v-1h-1v-2zM3 3v1h1v2h-2v-3h1zM6 8v1h1v-1h-1z" />
    <glyph glyph-name="ugrave" unicode="&#xf9;" horiz-adv-x="8" 
d="M2 9v1h2v-1h1v-1h-2v1h-1zM6 0h-5v1h-1v6h2v-6h3v6h2v-6h-1v-1z" />
    <glyph glyph-name="uacute" unicode="&#xfa;" horiz-adv-x="8" 
d="M2 8v1h1v1h2v-1h-1v-1h-2zM6 0h-5v1h-1v6h2v-6h3v6h2v-6h-1v-1z" />
    <glyph glyph-name="ucircumflex" unicode="&#xfb;" horiz-adv-x="8" 
d="M1 8v1h1v1h3v-1h1v-1h-2v1h-1v-1h-2zM6 0h-5v1h-1v6h2v-6h3v6h2v-6h-1v-1z" />
    <glyph glyph-name="udieresis" unicode="&#xfc;" horiz-adv-x="8" 
d="M4 8v1h2v-1h-2zM1 8v1h2v-1h-2zM6 0h-5v1h-1v6h2v-6h3v6h2v-6h-1v-1z" />
    <glyph glyph-name="yacute" unicode="&#xfd;" horiz-adv-x="8" 
d="M1 -3v1h4v2h-4v1h-1v6h2v-6h3v6h2v-9h-1v-1h-5zM2 8v1h1v1h2v-1h-1v-1h-2z" />
    <glyph glyph-name="thorn" unicode="&#xfe;" horiz-adv-x="8" 
d="M2 -3h-2v13h2v-3h4v-1h1v-5h-1v-1h-4v-3zM2 1h3v5h-3v-5z" />
    <glyph glyph-name="ydieresis" unicode="&#xff;" horiz-adv-x="8" 
d="M1 -3v1h4v2h-4v1h-1v6h2v-6h3v6h2v-9h-1v-1h-5zM4 8v1h2v-1h-2zM1 8v1h2v-1h-2z" />
    <glyph glyph-name="glyph1052" unicode="&#x1100;" 
d="M2 -1v1h2v1h1v8h-4v1h6v-9h-1v-1h-1v-1h-3z" />
    <glyph glyph-name="glyph1053" unicode="&#x1101;" 
d="M5 -1v1h1v9h-1v-8h-1v-1h-1v-1h-2v1h1v1h1v8h-2v1h7v-10h-1v-1h-2z" />
    <glyph glyph-name="glyph1054" unicode="&#x1102;" 
d="M8 -1h-6v1h-1v10h2v-10h4v1h2v-1h-1v-1z" />
    <glyph glyph-name="glyph1055" unicode="&#x1103;" 
d="M7 -1h-5v1h-1v10h7v-1h-5v-9h3v1h2v-1h-1v-1z" />
    <glyph glyph-name="glyph1056" unicode="&#x1104;" 
d="M8 -1h-6v1h-1v10h8v-1h-3v-9h2v-1zM8 0v1h1v-1h-1zM4 0v9h-1v-9h1z" />
    <glyph glyph-name="glyph1057" unicode="&#x1105;" 
d="M1 9v1h7v-5h-5v-5h3v1h2v-1h-1v-1h-5v1h-1v6h5v3h-5z" />
    <glyph glyph-name="glyph1058" unicode="&#x1106;" 
d="M7 -1h-5v1h-1v10h7v-10h-1v-1zM3 0h3v9h-3v-9z" />
    <glyph glyph-name="glyph1059" unicode="&#x1107;" 
d="M7 -1h-5v1h-1v10h2v-5h3v5h2v-10h-1v-1zM3 0h3v4h-3v-4z" />
    <glyph glyph-name="glyph1060" unicode="&#x1108;" 
d="M8 -1h-6v1h-1v10h2v-5h1v5h2v-5h1v5h2v-10h-1v-1zM7 0v4h-1v-4h1zM4 0v4h-1v-4h1z" />
    <glyph glyph-name="glyph1061" unicode="&#x1109;" 
d="M1 -1v1h1v1h1v1h1v8h2v-8h1v-1h1v-1h1v-1h-2v1h-1v1h-2v-1h-1v-1h-2z" />
    <glyph glyph-name="glyph1062" unicode="&#x110a;" 
d="M0 -1v1h1v1h1v9h2v-8h1v8h2v-9h1v-1h1v-1h-2v1h-2v-1h-2v1h1v1h-1v-1h-1v-1h-2z" />
    <glyph glyph-name="glyph1063" unicode="&#x110b;" 
d="M7 -1h-4v1h-1v1h-1v7h1v1h1v1h4v-1h1v-1h1v-7h-1v-1h-1v-1zM4 0h2v1h1v7h-1v1h-2v-1h-1v-7h1v-1z" />
    <glyph glyph-name="glyph1064" unicode="&#x110c;" 
d="M1 -1v1h1v1h1v1h1v7h-3v1h8v-1h-3v-7h1v-1h1v-1h1v-1h-2v1h-1v1h-2v-1h-1v-1h-2z" />
    <glyph glyph-name="glyph1065" unicode="&#x110d;" 
d="M0 -1v1h1v1h1v8h-2v1h9v-1h-2v-8h1v-1h1v-1h-2v1h-2v-1h-2v1h1v1h-1v-1h-1v-1h-2zM5 2v7h-1v-7h1z" />
    <glyph glyph-name="glyph1066" unicode="&#x110e;" 
d="M1 -1v1h1v1h1v1h1v7h-3v1h3v1h2v-1h3v-1h-3v-7h1v-1h1v-1h1v-1h-2v1h-1v1h-2v-1h-1v-1h-2z" />
    <glyph glyph-name="glyph1067" unicode="&#x110f;" 
d="M2 -1v1h2v1h1v4h-4v1h4v3h-4v1h6v-9h-1v-1h-1v-1h-3z" />
    <glyph glyph-name="glyph1068" unicode="&#x1110;" 
d="M7 -1h-5v1h-1v10h7v-1h-5v-3h5v-1h-5v-5h3v1h2v-1h-1v-1z" />
    <glyph glyph-name="glyph1069" unicode="&#x1111;" 
d="M1 -1v1h1v9h-1v1h7v-1h-1v-9h1v-1h-7zM5 0v9h-1v-9h1z" />
    <glyph glyph-name="glyph1070" unicode="&#x1112;" 
d="M1 9v1h3v1h2v-1h3v-1h-8zM7 -1h-4v1h-1v1h-1v5h1v1h1v1h4v-1h1v-1h1v-5h-1v-1h-1v-1zM4 0h2v1h1v5h-1v1h-2v-1h-1v-5h1v-1z" />
    <glyph glyph-name="glyph1071" unicode="&#x1161;" 
d="M13 -2h-2v13h2v-6h3v-1h-3v-6z" />
    <glyph glyph-name="glyph1072" unicode="&#x1162;" 
d="M15 -2h-2v6h-1v-6h-2v13h2v-6h1v6h2v-13z" />
    <glyph glyph-name="glyph1073" unicode="&#x1163;" 
d="M13 -2h-2v13h2v-4h3v-1h-3v-3h3v-1h-3v-4z" />
    <glyph glyph-name="glyph1074" unicode="&#x1164;" 
d="M15 -2h-2v4h-1v-4h-2v13h2v-4h1v4h2v-13zM13 3v3h-1v-3h1z" />
    <glyph glyph-name="glyph1075" unicode="&#x1165;" 
d="M9 4v1h3v6h2v-13h-2v6h-3z" />
    <glyph glyph-name="glyph1076" unicode="&#x1166;" 
d="M8 4v1h2v6h2v-13h-2v6h-2zM15 -2h-2v13h2v-13z" />
    <glyph glyph-name="glyph1077" unicode="&#x1167;" 
d="M9 2v1h3v3h-3v1h3v4h2v-13h-2v4h-3z" />
    <glyph glyph-name="glyph1078" unicode="&#x1168;" 
d="M8 2v1h2v3h-2v1h2v4h2v-13h-2v4h-2zM15 -2h-2v13h2v-13z" />
    <glyph glyph-name="glyph1079" unicode="&#x1169;" 
d="M1 -1v1h6v5h2v-5h6v-1h-14z" />
    <glyph glyph-name="glyph1080" unicode="&#x116a;" 
d="M1 -1v1h3v5h2v-5h5v11h2v-6h3v-1h-3v-6h-2v1h-10z" />
    <glyph glyph-name="glyph1081" unicode="&#x116b;" 
d="M1 -1v1h3v5h2v-5h4v11h2v-6h1v6h2v-13h-2v6h-1v-6h-2v1h-9z" />
    <glyph glyph-name="glyph1082" unicode="&#x116c;" 
d="M1 -1v1h3v5h2v-5h6v11h2v-13h-2v1h-11z" />
    <glyph glyph-name="glyph1083" unicode="&#x116d;" 
d="M1 -1v1h4v5h2v-5h2v5h2v-5h4v-1h-14z" />
    <glyph glyph-name="glyph1084" unicode="&#x116e;" 
d="M1 2v1h14v-1h-6v-4h-2v4h-6z" />
    <glyph glyph-name="glyph1085" unicode="&#x116f;" 
d="M8 1v1h4v1h-6v-5h-2v5h-3v1h11v7h2v-13h-2v3h-4z" />
    <glyph glyph-name="glyph1086" unicode="&#x1170;" 
d="M8 1v1h2v1h-4v-5h-2v5h-3v1h9v7h2v-13h-2v3h-2zM15 -2h-2v13h2v-13z" />
    <glyph glyph-name="glyph1087" unicode="&#x1171;" 
d="M1 3v1h11v7h2v-13h-2v5h-6v-5h-2v5h-3z" />
    <glyph glyph-name="glyph1088" unicode="&#x1172;" 
d="M1 2v1h14v-1h-3v-4h-2v4h-4v-4h-2v4h-3z" />
    <glyph glyph-name="glyph1089" unicode="&#x1173;" 
d="M1 -1v1h14v-1h-14z" />
    <glyph glyph-name="glyph1090" unicode="&#x1174;" 
d="M1 -1v1h11v11h2v-13h-2v1h-11z" />
    <glyph glyph-name="glyph1091" unicode="&#x1175;" 
d="M14 -2h-2v13h2v-13z" />
    <glyph glyph-name="glyph1092" unicode="&#x11a8;" 
d="M2 2v1h11v-4h-1v-1h-1v4h-9z" />
    <glyph glyph-name="glyph1093" unicode="&#x11a9;" 
d="M2 2v1h11v-4h-1v-1h-1v4h-3v-3h-1v-1h-1v4h-4z" />
    <glyph glyph-name="glyph1094" unicode="&#x11aa;" 
d="M9 -2v1h1v1h1v3h2v-3h1v-1h1v-1h-2v1h-2v-1h-2zM2 2v1h6v-4h-1v-1h-1v4h-4z" />
    <glyph glyph-name="glyph1095" unicode="&#x11ab;" 
d="M13 -2h-10v1h-1v4h2v-4h9v-1z" />
    <glyph glyph-name="glyph1096" unicode="&#x11ac;" 
d="M7 2v1h6v-1h-2v-2h1v-1h1v-1h-2v1h-2v-1h-6v1h-1v4h2v-4h4v1h1v2h-2z" />
    <glyph glyph-name="glyph1097" unicode="&#x11ad;" 
d="M7 1v1h2v1h2v-1h2v-1h-1v-1h1v-1h-1v-1h-4v1h-1v-1h-4v1h-1v4h2v-4h3v1h1v1h-1zM9 -1h2v1h-2v-1z" />
    <glyph glyph-name="glyph1098" unicode="&#x11ae;" 
d="M13 -2h-10v1h-1v4h11v-1h-9v-3h9v-1z" />
    <glyph glyph-name="glyph1099" unicode="&#x11af;" 
d="M2 2v1h11v-3h-9v-1h9v-1h-10v1h-1v2h9v1h-9z" />
    <glyph glyph-name="glyph1100" unicode="&#x11b0;" 
d="M8 2v1h5v-4h-1v-1h-1v4h-3zM2 2v1h5v-3h-3v-1h3v-1h-4v1h-1v2h3v1h-3z" />
    <glyph glyph-name="glyph1101" unicode="&#x11b1;" 
d="M2 2v1h5v-3h-3v-1h3v-1h-4v1h-1v2h3v1h-3zM12 -2h-3v1h-1v4h5v-4h-1v-1zM11 -1v3h-1v-3h1z" />
    <glyph glyph-name="glyph1102" unicode="&#x11b2;" 
d="M2 2v1h5v-3h-3v-1h3v-1h-4v1h-1v2h3v1h-3zM12 -2h-3v1h-1v4h2v-2h1v2h2v-4h-1v-1zM11 -1v1h-1v-1h1z" />
    <glyph glyph-name="glyph1103" unicode="&#x11b3;" 
d="M8 -2v1h1v1h1v3h2v-3h1v-1h1v-1h-2v1h-2v-1h-2zM2 2v1h5v-3h-3v-1h3v-1h-4v1h-1v2h3v1h-3z" />
    <glyph glyph-name="glyph1104" unicode="&#x11b4;" 
d="M2 2v1h5v-3h-3v-1h3v-1h-4v1h-1v2h3v1h-3zM13 -2h-5v5h5v-1h-3v-1h3v-1h-3v-1h3v-1z" />
    <glyph glyph-name="glyph1105" unicode="&#x11b5;" 
d="M2 2v1h11v-1h-1v-3h1v-1h-10v1h-1v2h3v1h-3zM4 -1h3v1h-3v-1zM10 -1v3h-1v-3h1z" />
    <glyph glyph-name="glyph1106" unicode="&#x11b6;" 
d="M2 2v1h5v-1h2v1h2v-1h2v-1h-1v-1h1v-1h-1v-1h-4v1h-1v-1h-4v1h-1v2h3v1h-3zM9 -1h2v1h-2v-1zM4 -1h3v1h1v1h-1v-1h-3v-1z" />
    <glyph glyph-name="glyph1107" unicode="&#x11b7;" 
d="M12 -2h-9v1h-1v4h11v-4h-1v-1zM4 -1h7v3h-7v-3z" />
    <glyph glyph-name="glyph1108" unicode="&#x11b8;" 
d="M12 -2h-9v1h-1v4h2v-2h7v2h2v-4h-1v-1zM4 -1h7v1h-7v-1z" />
    <glyph glyph-name="glyph1109" unicode="&#x11b9;" 
d="M8 -2v1h1v1h1v3h2v-3h1v-1h1v-1h-2v1h-2v-1h-2zM6 -2h-3v1h-1v4h2v-2h1v2h2v-4h-1v-1zM5 -1v1h-1v-1h1z" />
    <glyph glyph-name="glyph1110" unicode="&#x11ba;" 
d="M1 -2v1h3v1h1v1h1v2h2v-2h1v-1h1v-1h3v-1h-4v1h-1v1h-2v-1h-1v-1h-4z" />
    <glyph glyph-name="glyph1111" unicode="&#x11bb;" 
d="M2 -2v1h1v1h1v3h2v-3h1v-1h2v1h1v3h2v-3h1v-1h1v-1h-2v1h-2v-1h-4v1h-2v-1h-2z" />
    <glyph glyph-name="glyph1112" unicode="&#x11bc;" 
d="M11 -2h-7v1h-2v3h2v1h7v-1h2v-3h-2v-1zM5 -1h5v1h1v1h-1v1h-5v-1h-1v-1h1v-1z" />
    <glyph glyph-name="glyph1113" unicode="&#x11bd;" 
d="M1 -2v1h3v1h1v1h1v1h-5v1h12v-1h-5v-1h1v-1h1v-1h3v-1h-4v1h-1v1h-2v-1h-1v-1h-4z" />
    <glyph glyph-name="glyph1114" unicode="&#x11be;" 
d="M1 -2v1h3v1h1v1h1v1h-5v1h5v1h2v-1h5v-1h-5v-1h1v-1h1v-1h3v-1h-4v1h-1v1h-2v-1h-1v-1h-4z" />
    <glyph glyph-name="glyph1115" unicode="&#x11bf;" 
d="M2 0v1h9v1h-9v1h11v-4h-1v-1h-1v2h-9z" />
    <glyph glyph-name="glyph1116" unicode="&#x11c0;" 
d="M13 -2h-10v1h-1v4h11v-1h-9v-1h9v-1h-9v-1h9v-1z" />
    <glyph glyph-name="glyph1117" unicode="&#x11c1;" 
d="M2 -2v1h2v3h-2v1h11v-1h-2v-3h2v-1h-11zM6 -1h3v3h-3v-3z" />
    <glyph glyph-name="glyph1118" unicode="&#x11c2;" 
d="M2 2v1h4v1h3v-1h4v-1h-1v-1h1v-2h-1v-1h-9v1h-1v2h1v1h-1zM4 -1h7v2h-7v-2z" />
    <glyph glyph-name="glyph222" unicode="&#x2500;" horiz-adv-x="8" 
d="M0 4v1h8v-1h-8z" />
    <glyph glyph-name="glyph223" unicode="&#x2501;" horiz-adv-x="8" 
d="M8 3h-8v2h8v-2z" />
    <glyph glyph-name="glyph224" unicode="&#x2502;" horiz-adv-x="8" 
d="M5 12v-16h-1v16h1z" />
    <glyph glyph-name="glyph225" unicode="&#x2503;" horiz-adv-x="8" 
d="M5 -4h-2v16h2v-16z" />
    <glyph glyph-name="glyph226" unicode="&#x2504;" horiz-adv-x="8" 
d="M6 4v1h1v-1h-1zM3 4v1h2v-1h-2zM0 4v1h2v-1h-2z" />
    <glyph glyph-name="glyph227" unicode="&#x2505;" horiz-adv-x="8" 
d="M5 3h-2v2h2v-2zM2 3h-2v2h2v-2zM7 5v-2h-1v2h1z" />
    <glyph glyph-name="glyph228" unicode="&#x2506;" horiz-adv-x="8" 
d="M5 2v-3h-1v3h1zM5 7v-3h-1v3h1zM5 12v-3h-1v3h1z" />
    <glyph glyph-name="glyph229" unicode="&#x2507;" horiz-adv-x="8" 
d="M5 -1h-2v3h2v-3zM5 4h-2v3h2v-3zM5 9h-2v3h2v-3z" />
    <glyph glyph-name="glyph230" unicode="&#x2508;" horiz-adv-x="8" 
d="M6 4v1h1v-1h-1zM4 4v1h1v-1h-1zM2 4v1h1v-1h-1zM0 4v1h1v-1h-1z" />
    <glyph glyph-name="glyph231" unicode="&#x2509;" horiz-adv-x="8" 
d="M7 5v-2h-1v2h1zM5 5v-2h-1v2h1zM3 5v-2h-1v2h1zM1 5v-2h-1v2h1z" />
    <glyph glyph-name="glyph232" unicode="&#x250a;" horiz-adv-x="8" 
d="M5 0v-2h-1v2h1zM5 4v-2h-1v2h1zM5 8v-2h-1v2h1zM5 12v-2h-1v2h1z" />
    <glyph glyph-name="glyph233" unicode="&#x250b;" horiz-adv-x="8" 
d="M5 -2h-2v2h2v-2zM5 2h-2v2h2v-2zM5 6h-2v2h2v-2zM5 10h-2v2h2v-2z" />
    <glyph glyph-name="glyph234" unicode="&#x250c;" horiz-adv-x="8" 
d="M5 4v-8h-1v9h4v-1h-3z" />
    <glyph glyph-name="glyph235" unicode="&#x250d;" horiz-adv-x="8" 
d="M5 3v-7h-1v9h4v-2h-3z" />
    <glyph glyph-name="glyph236" unicode="&#x250e;" horiz-adv-x="8" 
d="M5 -4h-2v9h5v-1h-3v-8z" />
    <glyph glyph-name="glyph237" unicode="&#x250f;" horiz-adv-x="8" 
d="M5 -4h-2v9h5v-2h-3v-7z" />
    <glyph glyph-name="glyph238" unicode="&#x2510;" horiz-adv-x="8" 
d="M0 4v1h5v-9h-1v8h-4z" />
    <glyph glyph-name="glyph239" unicode="&#x2511;" horiz-adv-x="8" 
d="M5 5v-9h-1v7h-4v2h5z" />
    <glyph glyph-name="glyph240" unicode="&#x2512;" horiz-adv-x="8" 
d="M0 4v1h5v-9h-2v8h-3z" />
    <glyph glyph-name="glyph241" unicode="&#x2513;" horiz-adv-x="8" 
d="M5 -4h-2v7h-3v2h5v-9z" />
    <glyph glyph-name="glyph242" unicode="&#x2514;" horiz-adv-x="8" 
d="M8 4h-4v8h1v-7h3v-1z" />
    <glyph glyph-name="glyph243" unicode="&#x2515;" horiz-adv-x="8" 
d="M8 3h-4v9h1v-7h3v-2z" />
    <glyph glyph-name="glyph244" unicode="&#x2516;" horiz-adv-x="8" 
d="M8 4h-5v8h2v-7h3v-1z" />
    <glyph glyph-name="glyph245" unicode="&#x2517;" horiz-adv-x="8" 
d="M8 3h-5v9h2v-7h3v-2z" />
    <glyph glyph-name="glyph246" unicode="&#x2518;" horiz-adv-x="8" 
d="M0 4v1h4v7h1v-8h-5z" />
    <glyph glyph-name="glyph247" unicode="&#x2519;" horiz-adv-x="8" 
d="M5 3h-5v2h4v7h1v-9z" />
    <glyph glyph-name="glyph248" unicode="&#x251a;" horiz-adv-x="8" 
d="M0 4v1h3v7h2v-8h-5z" />
    <glyph glyph-name="glyph249" unicode="&#x251b;" horiz-adv-x="8" 
d="M5 3h-5v2h3v7h2v-9z" />
    <glyph glyph-name="glyph250" unicode="&#x251c;" horiz-adv-x="8" 
d="M5 4v-8h-1v16h1v-7h3v-1h-3z" />
    <glyph glyph-name="glyph251" unicode="&#x251d;" horiz-adv-x="8" 
d="M5 3v-7h-1v16h1v-7h3v-2h-3z" />
    <glyph glyph-name="glyph252" unicode="&#x251e;" horiz-adv-x="8" 
d="M5 4v-8h-1v8h-1v8h2v-7h3v-1h-3z" />
    <glyph glyph-name="glyph253" unicode="&#x251f;" horiz-adv-x="8" 
d="M5 -4h-2v9h1v7h1v-7h3v-1h-3v-8z" />
    <glyph glyph-name="glyph254" unicode="&#x2520;" horiz-adv-x="8" 
d="M5 -4h-2v16h2v-7h3v-1h-3v-8z" />
    <glyph glyph-name="glyph255" unicode="&#x2521;" horiz-adv-x="8" 
d="M5 3v-7h-1v7h-1v9h2v-7h3v-2h-3z" />
    <glyph glyph-name="glyph256" unicode="&#x2522;" horiz-adv-x="8" 
d="M5 -4h-2v9h1v7h1v-7h3v-2h-3v-7z" />
    <glyph glyph-name="glyph257" unicode="&#x2523;" horiz-adv-x="8" 
d="M5 -4h-2v16h2v-7h3v-2h-3v-7z" />
    <glyph glyph-name="glyph258" unicode="&#x2524;" horiz-adv-x="8" 
d="M0 4v1h4v7h1v-16h-1v8h-4z" />
    <glyph glyph-name="glyph259" unicode="&#x2525;" horiz-adv-x="8" 
d="M5 12v-16h-1v7h-4v2h4v7h1z" />
    <glyph glyph-name="glyph260" unicode="&#x2526;" horiz-adv-x="8" 
d="M0 4v1h3v7h2v-16h-1v8h-4z" />
    <glyph glyph-name="glyph261" unicode="&#x2527;" horiz-adv-x="8" 
d="M0 4v1h4v7h1v-16h-2v8h-3z" />
    <glyph glyph-name="glyph262" unicode="&#x2528;" horiz-adv-x="8" 
d="M0 4v1h3v7h2v-16h-2v8h-3z" />
    <glyph glyph-name="glyph263" unicode="&#x2529;" horiz-adv-x="8" 
d="M5 12v-16h-1v7h-4v2h3v7h2z" />
    <glyph glyph-name="glyph264" unicode="&#x252a;" horiz-adv-x="8" 
d="M5 -4h-2v7h-3v2h4v7h1v-16z" />
    <glyph glyph-name="glyph265" unicode="&#x252b;" horiz-adv-x="8" 
d="M5 -4h-2v7h-3v2h3v7h2v-16z" />
    <glyph glyph-name="glyph266" unicode="&#x252c;" horiz-adv-x="8" 
d="M0 4v1h8v-1h-3v-8h-1v8h-4z" />
    <glyph glyph-name="glyph267" unicode="&#x252d;" horiz-adv-x="8" 
d="M5 4v-8h-1v7h-4v2h8v-1h-3z" />
    <glyph glyph-name="glyph268" unicode="&#x252e;" horiz-adv-x="8" 
d="M0 4v1h8v-2h-3v-7h-1v8h-4z" />
    <glyph glyph-name="glyph269" unicode="&#x252f;" horiz-adv-x="8" 
d="M5 3v-7h-1v7h-4v2h8v-2h-3z" />
    <glyph glyph-name="glyph270" unicode="&#x2530;" horiz-adv-x="8" 
d="M0 4v1h8v-1h-3v-8h-2v8h-3z" />
    <glyph glyph-name="glyph271" unicode="&#x2531;" horiz-adv-x="8" 
d="M5 -4h-2v7h-3v2h8v-1h-3v-8z" />
    <glyph glyph-name="glyph272" unicode="&#x2532;" horiz-adv-x="8" 
d="M0 4v1h8v-2h-3v-7h-2v8h-3z" />
    <glyph glyph-name="glyph273" unicode="&#x2533;" horiz-adv-x="8" 
d="M5 -4h-2v7h-3v2h8v-2h-3v-7z" />
    <glyph glyph-name="glyph274" unicode="&#x2534;" horiz-adv-x="8" 
d="M0 4v1h4v7h1v-7h3v-1h-8z" />
    <glyph glyph-name="glyph275" unicode="&#x2535;" horiz-adv-x="8" 
d="M5 3h-5v2h4v7h1v-7h3v-1h-3v-1z" />
    <glyph glyph-name="glyph276" unicode="&#x2536;" horiz-adv-x="8" 
d="M0 4v1h4v7h1v-7h3v-2h-4v1h-4z" />
    <glyph glyph-name="glyph277" unicode="&#x2537;" horiz-adv-x="8" 
d="M8 3h-8v2h4v7h1v-7h3v-2z" />
    <glyph glyph-name="glyph278" unicode="&#x2538;" horiz-adv-x="8" 
d="M0 4v1h3v7h2v-7h3v-1h-8z" />
    <glyph glyph-name="glyph279" unicode="&#x2539;" horiz-adv-x="8" 
d="M5 3h-5v2h3v7h2v-7h3v-1h-3v-1z" />
    <glyph glyph-name="glyph280" unicode="&#x253a;" horiz-adv-x="8" 
d="M0 4v1h3v7h2v-7h3v-2h-5v1h-3z" />
    <glyph glyph-name="glyph281" unicode="&#x253b;" horiz-adv-x="8" 
d="M8 3h-8v2h3v7h2v-7h3v-2z" />
    <glyph glyph-name="glyph282" unicode="&#x253c;" horiz-adv-x="8" 
d="M0 4v1h4v7h1v-7h3v-1h-3v-8h-1v8h-4z" />
    <glyph glyph-name="glyph283" unicode="&#x253d;" horiz-adv-x="8" 
d="M5 4v-8h-1v7h-4v2h4v7h1v-7h3v-1h-3z" />
    <glyph glyph-name="glyph284" unicode="&#x253e;" horiz-adv-x="8" 
d="M0 4v1h4v7h1v-7h3v-2h-3v-7h-1v8h-4z" />
    <glyph glyph-name="glyph285" unicode="&#x253f;" horiz-adv-x="8" 
d="M5 3v-7h-1v7h-4v2h4v7h1v-7h3v-2h-3z" />
    <glyph glyph-name="glyph286" unicode="&#x2540;" horiz-adv-x="8" 
d="M0 4v1h3v7h2v-7h3v-1h-3v-8h-1v8h-4z" />
    <glyph glyph-name="glyph287" unicode="&#x2541;" horiz-adv-x="8" 
d="M0 4v1h4v7h1v-7h3v-1h-3v-8h-2v8h-3z" />
    <glyph glyph-name="glyph288" unicode="&#x2542;" horiz-adv-x="8" 
d="M0 4v1h3v7h2v-7h3v-1h-3v-8h-2v8h-3z" />
    <glyph glyph-name="glyph289" unicode="&#x2543;" horiz-adv-x="8" 
d="M5 4v-8h-1v7h-4v2h3v7h2v-7h3v-1h-3z" />
    <glyph glyph-name="glyph290" unicode="&#x2544;" horiz-adv-x="8" 
d="M0 4v1h3v7h2v-7h3v-2h-3v-7h-1v7h-1v1h-3z" />
    <glyph glyph-name="glyph291" unicode="&#x2545;" horiz-adv-x="8" 
d="M5 -4h-2v7h-3v2h4v7h1v-7h3v-1h-3v-8z" />
    <glyph glyph-name="glyph292" unicode="&#x2546;" horiz-adv-x="8" 
d="M0 4v1h4v7h1v-7h3v-2h-3v-7h-2v8h-3z" />
    <glyph glyph-name="glyph293" unicode="&#x2547;" horiz-adv-x="8" 
d="M5 3v-7h-1v7h-4v2h3v7h2v-7h3v-2h-3z" />
    <glyph glyph-name="glyph294" unicode="&#x2548;" horiz-adv-x="8" 
d="M5 -4h-2v7h-3v2h4v7h1v-7h3v-2h-3v-7z" />
    <glyph glyph-name="glyph295" unicode="&#x2549;" horiz-adv-x="8" 
d="M5 -4h-2v7h-3v2h3v7h2v-7h3v-1h-3v-8z" />
    <glyph glyph-name="glyph296" unicode="&#x254a;" horiz-adv-x="8" 
d="M0 4v1h3v7h2v-7h3v-2h-3v-7h-2v8h-3z" />
    <glyph glyph-name="glyph297" unicode="&#x254b;" horiz-adv-x="8" 
d="M5 -4h-2v7h-3v2h3v7h2v-7h3v-2h-3v-7z" />
    <glyph glyph-name="glyph298" unicode="&#x254c;" horiz-adv-x="8" 
d="M5 4v1h2v-1h-2zM1 4v1h2v-1h-2z" />
    <glyph glyph-name="glyph299" unicode="&#x254d;" horiz-adv-x="8" 
d="M7 3h-2v2h2v-2zM3 3h-2v2h2v-2z" />
    <glyph glyph-name="glyph300" unicode="&#x254e;" horiz-adv-x="8" 
d="M5 2v-4h-1v4h1zM5 10v-4h-1v4h1z" />
    <glyph glyph-name="glyph301" unicode="&#x254f;" horiz-adv-x="8" 
d="M5 -2h-2v4h2v-4zM5 6h-2v4h2v-4z" />
    <glyph glyph-name="glyph302" unicode="&#x2550;" horiz-adv-x="8" 
d="M0 3v1h8v-1h-8zM0 5v1h8v-1h-8z" />
    <glyph glyph-name="glyph303" unicode="&#x2551;" horiz-adv-x="8" 
d="M6 12v-16h-1v16h1zM4 12v-16h-1v16h1z" />
    <glyph glyph-name="glyph304" unicode="&#x2552;" horiz-adv-x="8" 
d="M5 3v-7h-1v10h4v-1h-3v-1h3v-1h-3z" />
    <glyph glyph-name="glyph305" unicode="&#x2553;" horiz-adv-x="8" 
d="M6 4v-8h-1v8h-1v-8h-1v9h5v-1h-2z" />
    <glyph glyph-name="glyph306" unicode="&#x2554;" horiz-adv-x="8" 
d="M6 3v-7h-1v8h3v-1h-2zM4 5v-9h-1v10h5v-1h-4z" />
    <glyph glyph-name="glyph307" unicode="&#x2555;" horiz-adv-x="8" 
d="M0 3v1h4v1h-4v1h5v-10h-1v7h-4z" />
    <glyph glyph-name="glyph308" unicode="&#x2556;" horiz-adv-x="8" 
d="M0 4v1h6v-9h-1v8h-1v-8h-1v8h-3z" />
    <glyph glyph-name="glyph309" unicode="&#x2557;" horiz-adv-x="8" 
d="M0 3v1h4v-8h-1v7h-3zM0 5v1h6v-10h-1v9h-5z" />
    <glyph glyph-name="glyph310" unicode="&#x2558;" horiz-adv-x="8" 
d="M8 3h-4v9h1v-6h3v-1h-3v-1h3v-1z" />
    <glyph glyph-name="glyph311" unicode="&#x2559;" horiz-adv-x="8" 
d="M8 4h-5v8h1v-7h1v7h1v-7h2v-1z" />
    <glyph glyph-name="glyph312" unicode="&#x255a;" horiz-adv-x="8" 
d="M8 3h-5v9h1v-8h4v-1zM8 5h-3v7h1v-6h2v-1z" />
    <glyph glyph-name="glyph313" unicode="&#x255b;" horiz-adv-x="8" 
d="M0 3v1h4v1h-4v1h4v6h1v-9h-5z" />
    <glyph glyph-name="glyph314" unicode="&#x255c;" horiz-adv-x="8" 
d="M0 4v1h3v7h1v-7h1v7h1v-8h-6z" />
    <glyph glyph-name="glyph315" unicode="&#x255d;" horiz-adv-x="8" 
d="M0 3v1h5v8h1v-9h-6zM0 5v1h3v6h1v-7h-4z" />
    <glyph glyph-name="glyph316" unicode="&#x255e;" horiz-adv-x="8" 
d="M5 3v-7h-1v16h1v-6h3v-1h-3v-1h3v-1h-3z" />
    <glyph glyph-name="glyph317" unicode="&#x255f;" horiz-adv-x="8" 
d="M6 4v-8h-1v16h1v-7h2v-1h-2zM4 12v-16h-1v16h1z" />
    <glyph glyph-name="glyph318" unicode="&#x2560;" horiz-adv-x="8" 
d="M6 3v-7h-1v8h3v-1h-2zM4 12v-16h-1v16h1zM8 5h-3v7h1v-6h2v-1z" />
    <glyph glyph-name="glyph319" unicode="&#x2561;" horiz-adv-x="8" 
d="M0 3v1h4v1h-4v1h4v6h1v-16h-1v7h-4z" />
    <glyph glyph-name="glyph320" unicode="&#x2562;" horiz-adv-x="8" 
d="M0 4v1h3v7h1v-16h-1v8h-3zM6 12v-16h-1v16h1z" />
    <glyph glyph-name="glyph321" unicode="&#x2563;" horiz-adv-x="8" 
d="M0 3v1h4v-8h-1v7h-3zM0 5v1h3v6h1v-7h-4zM6 12v-16h-1v16h1z" />
    <glyph glyph-name="glyph322" unicode="&#x2564;" horiz-adv-x="8" 
d="M0 3v1h8v-1h-3v-7h-1v7h-4zM0 5v1h8v-1h-8z" />
    <glyph glyph-name="glyph323" unicode="&#x2565;" horiz-adv-x="8" 
d="M0 4v1h8v-1h-2v-8h-1v8h-1v-8h-1v8h-3z" />
    <glyph glyph-name="glyph324" unicode="&#x2566;" horiz-adv-x="8" 
d="M0 3v1h4v-8h-1v7h-3zM0 5v1h8v-1h-8zM6 3v-7h-1v8h3v-1h-2z" />
    <glyph glyph-name="glyph325" unicode="&#x2567;" horiz-adv-x="8" 
d="M0 3v1h8v-1h-8zM0 5v1h4v6h1v-6h3v-1h-8z" />
    <glyph glyph-name="glyph326" unicode="&#x2568;" horiz-adv-x="8" 
d="M0 4v1h3v7h1v-7h1v7h1v-7h2v-1h-8z" />
    <glyph glyph-name="glyph327" unicode="&#x2569;" horiz-adv-x="8" 
d="M0 3v1h8v-1h-8zM0 5v1h3v6h1v-7h-4zM8 5h-3v7h1v-6h2v-1z" />
    <glyph glyph-name="glyph328" unicode="&#x256a;" horiz-adv-x="8" 
d="M0 3v1h4v1h-4v1h4v6h1v-6h3v-1h-3v-1h3v-1h-3v-7h-1v7h-4z" />
    <glyph glyph-name="glyph329" unicode="&#x256b;" horiz-adv-x="8" 
d="M0 4v1h3v7h1v-7h1v7h1v-7h2v-1h-2v-8h-1v8h-1v-8h-1v8h-3z" />
    <glyph glyph-name="glyph330" unicode="&#x256c;" horiz-adv-x="8" 
d="M0 3v1h4v-8h-1v7h-3zM0 5v1h3v6h1v-7h-4zM6 3v-7h-1v8h3v-1h-2zM8 5h-3v7h1v-6h2v-1z" />
    <glyph glyph-name="glyph331" unicode="&#x256d;" horiz-adv-x="8" 
d="M5 3v-7h-1v7h1zM5 3v1h1v-1h-1zM8 4h-2v1h2v-1z" />
    <glyph glyph-name="glyph332" unicode="&#x256e;" horiz-adv-x="8" 
d="M0 4v1h3v-1h1v-1h1v-7h-1v7h-1v1h-3z" />
    <glyph glyph-name="glyph333" unicode="&#x256f;" horiz-adv-x="8" 
d="M0 4v1h3v-1h-3zM3 5v1h1v-1h-1zM4 6v6h1v-6h-1z" />
    <glyph glyph-name="glyph334" unicode="&#x2570;" horiz-adv-x="8" 
d="M8 4h-2v1h2v-1zM6 5h-1v1h1v-1zM5 6h-1v6h1v-6z" />
    <glyph glyph-name="glyph335" unicode="&#x2571;" horiz-adv-x="8" 
d="M1 -2v-2h-1v2h1zM1 -2v2h1v-2h-1zM2 0v2h1v-2h-1zM3 2v2h1v-2h-1zM4 4v2h1v-2h-1zM5 6v2h1v-2h-1zM6 8v2h1v-2h-1zM7 10v2h1v-2h-1z" />
    <glyph glyph-name="glyph336" unicode="&#x2572;" horiz-adv-x="8" 
d="M8 -2v-2h-1v2h1zM7 -2h-1v2h1v-2zM6 0h-1v2h1v-2zM5 2h-1v2h1v-2zM4 4h-1v2h1v-2zM3 6h-1v2h1v-2zM2 8h-1v2h1v-2zM1 10h-1v2h1v-2z" />
    <glyph glyph-name="glyph337" unicode="&#x2573;" horiz-adv-x="8" 
d="M8 -2v-2h-1v2h1zM1 -2v-2h-1v2h1zM7 -2h-1v2h1v-2zM1 -2v2h1v-2h-1zM6 0h-1v2h1v-2zM2 0v2h1v-2h-1zM5 2h-2v4h2v-4zM5 6v2h1v-2h-1zM3 6h-1v2h1v-2zM6 8v2h1v-2h-1zM2 8h-1v2h1v-2zM7 10v2h1v-2h-1zM1 10h-1v2h1v-2z" />
    <glyph glyph-name="glyph338" unicode="&#x2574;" horiz-adv-x="8" 
d="M0 4v1h5v-1h-5z" />
    <glyph glyph-name="glyph339" unicode="&#x2575;" horiz-adv-x="8" 
d="M5 12v-8h-1v8h1z" />
    <glyph glyph-name="glyph340" unicode="&#x2576;" horiz-adv-x="8" 
d="M4 4v1h4v-1h-4z" />
    <glyph glyph-name="glyph341" unicode="&#x2577;" horiz-adv-x="8" 
d="M5 5v-9h-1v9h1z" />
    <glyph glyph-name="glyph342" unicode="&#x2578;" horiz-adv-x="8" 
d="M5 3h-5v2h5v-2z" />
    <glyph glyph-name="glyph343" unicode="&#x2579;" horiz-adv-x="8" 
d="M5 3h-2v9h2v-9z" />
    <glyph glyph-name="glyph344" unicode="&#x257a;" horiz-adv-x="8" 
d="M8 3h-5v2h5v-2z" />
    <glyph glyph-name="glyph345" unicode="&#x257b;" horiz-adv-x="8" 
d="M5 -4h-2v9h2v-9z" />
    <glyph glyph-name="glyph346" unicode="&#x257c;" horiz-adv-x="8" 
d="M0 4v1h8v-2h-4v1h-4z" />
    <glyph glyph-name="glyph347" unicode="&#x257d;" horiz-adv-x="8" 
d="M5 -4h-2v8h1v8h1v-16z" />
    <glyph glyph-name="glyph348" unicode="&#x257e;" horiz-adv-x="8" 
d="M5 3h-5v2h8v-1h-3v-1z" />
    <glyph glyph-name="glyph349" unicode="&#x257f;" horiz-adv-x="8" 
d="M5 12v-16h-1v7h-1v9h2z" />
    <glyph glyph-name="glyph350" unicode="&#x2580;" horiz-adv-x="8" 
d="M8 4h-8v8h8v-8z" />
    <glyph glyph-name="glyph351" unicode="&#x2581;" horiz-adv-x="8" 
d="M8 -4h-8v2h8v-2z" />
    <glyph glyph-name="glyph352" unicode="&#x2582;" horiz-adv-x="8" 
d="M8 -4h-8v4h8v-4z" />
    <glyph glyph-name="glyph353" unicode="&#x2583;" horiz-adv-x="8" 
d="M8 -4h-8v6h8v-6z" />
    <glyph glyph-name="glyph354" unicode="&#x2584;" horiz-adv-x="8" 
d="M8 -4h-8v8h8v-8z" />
    <glyph glyph-name="glyph355" unicode="&#x2585;" horiz-adv-x="8" 
d="M8 -4h-8v10h8v-10z" />
    <glyph glyph-name="glyph356" unicode="&#x2586;" horiz-adv-x="8" 
d="M8 -4h-8v12h8v-12z" />
    <glyph glyph-name="glyph357" unicode="&#x2587;" horiz-adv-x="8" 
d="M8 -4h-8v14h8v-14z" />
    <glyph glyph-name="glyph358" unicode="&#x2588;" horiz-adv-x="8" 
d="M8 -4h-8v16h8v-16z" />
    <glyph glyph-name="glyph359" unicode="&#x2589;" horiz-adv-x="8" 
d="M7 -4h-7v16h7v-16z" />
    <glyph glyph-name="glyph360" unicode="&#x258a;" horiz-adv-x="8" 
d="M6 -4h-6v16h6v-16z" />
    <glyph glyph-name="glyph361" unicode="&#x258b;" horiz-adv-x="8" 
d="M5 -4h-5v16h5v-16z" />
    <glyph glyph-name="glyph362" unicode="&#x258c;" horiz-adv-x="8" 
d="M4 -4h-4v16h4v-16z" />
    <glyph glyph-name="glyph363" unicode="&#x258d;" horiz-adv-x="8" 
d="M3 -4h-3v16h3v-16z" />
    <glyph glyph-name="glyph364" unicode="&#x258e;" horiz-adv-x="8" 
d="M2 -4h-2v16h2v-16z" />
    <glyph glyph-name="glyph365" unicode="&#x258f;" horiz-adv-x="8" 
d="M1 12v-16h-1v16h1z" />
    <glyph glyph-name="glyph366" unicode="&#x2590;" horiz-adv-x="8" 
d="M8 -4h-4v16h4v-16z" />
    <glyph glyph-name="glyph367" unicode="&#x2591;" horiz-adv-x="8" 
d="M6 -3v1h1v-1h-1zM4 -3v1h1v-1h-1zM2 -3v1h1v-1h-1zM0 -3v1h1v-1h-1zM6 -1v1h1v-1h-1zM4 -1v1h1v-1h-1zM2 -1v1h1v-1h-1zM0 -1v1h1v-1h-1zM6 1v1h1v-1h-1zM4 1v1h1v-1h-1zM2 1v1h1v-1h-1zM0 1v1h1v-1h-1zM6 3v1h1v-1h-1zM4 3v1h1v-1h-1zM2 3v1h1v-1h-1zM0 3v1h1v-1h-1z
M6 5v1h1v-1h-1zM4 5v1h1v-1h-1zM2 5v1h1v-1h-1zM0 5v1h1v-1h-1zM6 7v1h1v-1h-1zM4 7v1h1v-1h-1zM2 7v1h1v-1h-1zM0 7v1h1v-1h-1zM6 9v1h1v-1h-1zM4 9v1h1v-1h-1zM2 9v1h1v-1h-1zM0 9v1h1v-1h-1zM6 11v1h1v-1h-1zM4 11v1h1v-1h-1zM2 11v1h1v-1h-1zM0 11v1h1v-1h-1z" />
    <glyph glyph-name="glyph368" unicode="&#x2592;" horiz-adv-x="8" 
d="M0 -3v1h1v-1h1v-1h-1v1h-1zM0 -1v1h1v-1h1v-1h1v-1h1v-1h-1v1h-1v1h-1v1h-1zM0 1v1h1v-1h1v-1h1v-1h1v-1h1v-1h1v-1h-1v1h-1v1h-1v1h-1v1h-1v1h-1zM0 3v1h1v-1h1v-1h1v-1h1v-1h1v-1h1v-1h1v-1h1v-1h-1v1h-1v1h-1v1h-1v1h-1v1h-1v1h-1v1h-1zM0 5v1h1v-1h1v-1h1v-1h1v-1h1
v-1h1v-1h1v-1h1v-1h-1v1h-1v1h-1v1h-1v1h-1v1h-1v1h-1v1h-1zM0 7v1h1v-1h1v-1h1v-1h1v-1h1v-1h1v-1h1v-1h1v-1h-1v1h-1v1h-1v1h-1v1h-1v1h-1v1h-1v1h-1zM0 9v1h1v-1h1v-1h1v-1h1v-1h1v-1h1v-1h1v-1h1v-1h-1v1h-1v1h-1v1h-1v1h-1v1h-1v1h-1v1h-1zM0 11v1h1v-1h1v-1h1v-1h1v-1
h1v-1h1v-1h1v-1h1v-1h-1v1h-1v1h-1v1h-1v1h-1v1h-1v1h-1v1h-1zM7 6v1h1v-1h-1zM7 7h-1v1h1v-1zM7 8v1h1v-1h-1zM6 8h-1v1h1v-1zM7 9h-1v1h1v-1zM5 9h-1v1h1v-1zM7 10v1h1v-1h-1zM6 10h-1v1h1v-1zM4 10h-1v1h1v-1zM7 11h-1v1h1v-1zM5 11h-1v1h1v-1zM3 11h-1v1h1v-1z" />
    <glyph glyph-name="glyph369" unicode="&#x2593;" horiz-adv-x="8" 
d="M7 -3v-1h-1v1h-1v-1h-1v1h-1v-1h-1v1h-1v-1h-1v16h8v-1h-1v-1h1v-1h-1v-1h1v-1h-1v-1h1v-1h-1v-1h1v-1h-1v-1h1v-1h-1v-1h1v-1h-1v-1h1v-1h-1zM6 -2v1h-1v-1h1zM4 -2v1h-1v-1h1zM2 -2v1h-1v-1h1zM6 0v1h-1v-1h1zM4 0v1h-1v-1h1zM2 0v1h-1v-1h1zM6 2v1h-1v-1h1zM4 2v1h-1
v-1h1zM2 2v1h-1v-1h1zM6 4v1h-1v-1h1zM4 4v1h-1v-1h1zM2 4v1h-1v-1h1zM6 6v1h-1v-1h1zM4 6v1h-1v-1h1zM2 6v1h-1v-1h1zM6 8v1h-1v-1h1zM4 8v1h-1v-1h1zM2 8v1h-1v-1h1zM6 10v1h-1v-1h1zM4 10v1h-1v-1h1zM2 10v1h-1v-1h1z" />
    <glyph glyph-name="glyph370" unicode="&#x2594;" horiz-adv-x="8" 
d="M8 10h-8v2h8v-2z" />
    <glyph glyph-name="glyph371" unicode="&#x2595;" horiz-adv-x="8" 
d="M8 12v-16h-1v16h1z" />
    <glyph glyph-name="glyph372" unicode="&#x2596;" horiz-adv-x="8" 
d="M4 -4h-4v8h4v-8z" />
    <glyph glyph-name="glyph373" unicode="&#x2597;" horiz-adv-x="8" 
d="M8 -4h-4v8h4v-8z" />
    <glyph glyph-name="glyph374" unicode="&#x2598;" horiz-adv-x="8" 
d="M4 4h-4v8h4v-8z" />
    <glyph glyph-name="glyph375" unicode="&#x2599;" horiz-adv-x="8" 
d="M8 -4h-8v16h4v-8h4v-8z" />
    <glyph glyph-name="glyph376" unicode="&#x259a;" horiz-adv-x="8" 
d="M8 -4h-4v8h4v-8zM4 4h-4v8h4v-8z" />
    <glyph glyph-name="glyph377" unicode="&#x259b;" horiz-adv-x="8" 
d="M4 -4h-4v16h8v-8h-4v-8z" />
    <glyph glyph-name="glyph378" unicode="&#x259c;" horiz-adv-x="8" 
d="M8 -4h-4v8h-4v8h8v-16z" />
    <glyph glyph-name="glyph379" unicode="&#x259d;" horiz-adv-x="8" 
d="M8 4h-4v8h4v-8z" />
    <glyph glyph-name="glyph380" unicode="&#x259e;" horiz-adv-x="8" 
d="M4 -4h-4v8h4v-8zM8 4h-4v8h4v-8z" />
    <glyph glyph-name="glyph381" unicode="&#x259f;" horiz-adv-x="8" 
d="M8 -4h-8v8h4v8h4v-16z" />
    <glyph glyph-name="glyph645" unicode="&#x2630;" 
d="M14 -2h-12v2h12v-2zM14 3h-12v2h12v-2zM14 8h-12v2h12v-2z" />
    <glyph glyph-name="glyph646" unicode="&#x2631;" 
d="M14 -2h-12v2h12v-2zM14 3h-12v2h12v-2zM14 8h-5v2h5v-2zM7 8h-5v2h5v-2z" />
    <glyph glyph-name="glyph647" unicode="&#x2632;" 
d="M14 -2h-12v2h12v-2zM14 3h-5v2h5v-2zM7 3h-5v2h5v-2zM14 8h-12v2h12v-2z" />
    <glyph glyph-name="glyph648" unicode="&#x2633;" 
d="M14 -2h-12v2h12v-2zM14 3h-5v2h5v-2zM7 3h-5v2h5v-2zM14 8h-5v2h5v-2zM7 8h-5v2h5v-2z" />
    <glyph glyph-name="glyph649" unicode="&#x2634;" 
d="M14 -2h-5v2h5v-2zM7 -2h-5v2h5v-2zM14 3h-12v2h12v-2zM14 8h-12v2h12v-2z" />
    <glyph glyph-name="glyph650" unicode="&#x2635;" 
d="M14 -2h-5v2h5v-2zM7 -2h-5v2h5v-2zM14 3h-12v2h12v-2zM14 8h-5v2h5v-2zM7 8h-5v2h5v-2z" />
    <glyph glyph-name="glyph651" unicode="&#x2636;" 
d="M14 -2h-5v2h5v-2zM7 -2h-5v2h5v-2zM14 3h-5v2h5v-2zM7 3h-5v2h5v-2zM14 8h-12v2h12v-2z" />
    <glyph glyph-name="glyph652" unicode="&#x2637;" 
d="M14 -2h-5v2h5v-2zM7 -2h-5v2h5v-2zM14 3h-5v2h5v-2zM7 3h-5v2h5v-2zM14 8h-5v2h5v-2zM7 8h-5v2h5v-2z" />
    <glyph glyph-name="glyph382" unicode="&#x2800;" horiz-adv-x="8" 
 />
    <glyph glyph-name="glyph383" unicode="&#x2801;" horiz-adv-x="8" 
d="M3 9h-2v2h2v-2z" />
    <glyph glyph-name="glyph384" unicode="&#x2802;" horiz-adv-x="8" 
d="M3 5h-2v2h2v-2z" />
    <glyph glyph-name="glyph385" unicode="&#x2803;" horiz-adv-x="8" 
d="M3 5h-2v2h2v-2zM3 9h-2v2h2v-2z" />
    <glyph glyph-name="glyph386" unicode="&#x2804;" horiz-adv-x="8" 
d="M3 1h-2v2h2v-2z" />
    <glyph glyph-name="glyph387" unicode="&#x2805;" horiz-adv-x="8" 
d="M3 1h-2v2h2v-2zM3 9h-2v2h2v-2z" />
    <glyph glyph-name="glyph388" unicode="&#x2806;" horiz-adv-x="8" 
d="M3 1h-2v2h2v-2zM3 5h-2v2h2v-2z" />
    <glyph glyph-name="glyph389" unicode="&#x2807;" horiz-adv-x="8" 
d="M3 1h-2v2h2v-2zM3 5h-2v2h2v-2zM3 9h-2v2h2v-2z" />
    <glyph glyph-name="glyph390" unicode="&#x2808;" horiz-adv-x="8" 
d="M7 9h-2v2h2v-2z" />
    <glyph glyph-name="glyph391" unicode="&#x2809;" horiz-adv-x="8" 
d="M7 9h-2v2h2v-2zM3 9h-2v2h2v-2z" />
    <glyph glyph-name="glyph392" unicode="&#x280a;" horiz-adv-x="8" 
d="M3 5h-2v2h2v-2zM7 9h-2v2h2v-2z" />
    <glyph glyph-name="glyph393" unicode="&#x280b;" horiz-adv-x="8" 
d="M3 5h-2v2h2v-2zM7 9h-2v2h2v-2zM3 9h-2v2h2v-2z" />
    <glyph glyph-name="glyph394" unicode="&#x280c;" horiz-adv-x="8" 
d="M3 1h-2v2h2v-2zM7 9h-2v2h2v-2z" />
    <glyph glyph-name="glyph395" unicode="&#x280d;" horiz-adv-x="8" 
d="M3 1h-2v2h2v-2zM7 9h-2v2h2v-2zM3 9h-2v2h2v-2z" />
    <glyph glyph-name="glyph396" unicode="&#x280e;" horiz-adv-x="8" 
d="M3 1h-2v2h2v-2zM3 5h-2v2h2v-2zM7 9h-2v2h2v-2z" />
    <glyph glyph-name="glyph397" unicode="&#x280f;" horiz-adv-x="8" 
d="M3 1h-2v2h2v-2zM3 5h-2v2h2v-2zM7 9h-2v2h2v-2zM3 9h-2v2h2v-2z" />
    <glyph glyph-name="glyph398" unicode="&#x2810;" horiz-adv-x="8" 
d="M7 5h-2v2h2v-2z" />
    <glyph glyph-name="glyph399" unicode="&#x2811;" horiz-adv-x="8" 
d="M7 5h-2v2h2v-2zM3 9h-2v2h2v-2z" />
    <glyph glyph-name="glyph400" unicode="&#x2812;" horiz-adv-x="8" 
d="M7 5h-2v2h2v-2zM3 5h-2v2h2v-2z" />
    <glyph glyph-name="glyph401" unicode="&#x2813;" horiz-adv-x="8" 
d="M7 5h-2v2h2v-2zM3 5h-2v2h2v-2zM3 9h-2v2h2v-2z" />
    <glyph glyph-name="glyph402" unicode="&#x2814;" horiz-adv-x="8" 
d="M3 1h-2v2h2v-2zM7 5h-2v2h2v-2z" />
    <glyph glyph-name="glyph403" unicode="&#x2815;" horiz-adv-x="8" 
d="M3 1h-2v2h2v-2zM7 5h-2v2h2v-2zM3 9h-2v2h2v-2z" />
    <glyph glyph-name="glyph404" unicode="&#x2816;" horiz-adv-x="8" 
d="M3 1h-2v2h2v-2zM7 5h-2v2h2v-2zM3 5h-2v2h2v-2z" />
    <glyph glyph-name="glyph405" unicode="&#x2817;" horiz-adv-x="8" 
d="M3 1h-2v2h2v-2zM7 5h-2v2h2v-2zM3 5h-2v2h2v-2zM3 9h-2v2h2v-2z" />
    <glyph glyph-name="glyph406" unicode="&#x2818;" horiz-adv-x="8" 
d="M7 5h-2v2h2v-2zM7 9h-2v2h2v-2z" />
    <glyph glyph-name="glyph407" unicode="&#x2819;" horiz-adv-x="8" 
d="M7 5h-2v2h2v-2zM7 9h-2v2h2v-2zM3 9h-2v2h2v-2z" />
    <glyph glyph-name="glyph408" unicode="&#x281a;" horiz-adv-x="8" 
d="M7 5h-2v2h2v-2zM3 5h-2v2h2v-2zM7 9h-2v2h2v-2z" />
    <glyph glyph-name="glyph409" unicode="&#x281b;" horiz-adv-x="8" 
d="M7 5h-2v2h2v-2zM3 5h-2v2h2v-2zM7 9h-2v2h2v-2zM3 9h-2v2h2v-2z" />
    <glyph glyph-name="glyph410" unicode="&#x281c;" horiz-adv-x="8" 
d="M3 1h-2v2h2v-2zM7 5h-2v2h2v-2zM7 9h-2v2h2v-2z" />
    <glyph glyph-name="glyph411" unicode="&#x281d;" horiz-adv-x="8" 
d="M3 1h-2v2h2v-2zM7 5h-2v2h2v-2zM7 9h-2v2h2v-2zM3 9h-2v2h2v-2z" />
    <glyph glyph-name="glyph412" unicode="&#x281e;" horiz-adv-x="8" 
d="M3 1h-2v2h2v-2zM7 5h-2v2h2v-2zM3 5h-2v2h2v-2zM7 9h-2v2h2v-2z" />
    <glyph glyph-name="glyph413" unicode="&#x281f;" horiz-adv-x="8" 
d="M3 1h-2v2h2v-2zM7 5h-2v2h2v-2zM3 5h-2v2h2v-2zM7 9h-2v2h2v-2zM3 9h-2v2h2v-2z" />
    <glyph glyph-name="glyph414" unicode="&#x2820;" horiz-adv-x="8" 
d="M7 1h-2v2h2v-2z" />
    <glyph glyph-name="glyph415" unicode="&#x2821;" horiz-adv-x="8" 
d="M7 1h-2v2h2v-2zM3 9h-2v2h2v-2z" />
    <glyph glyph-name="glyph416" unicode="&#x2822;" horiz-adv-x="8" 
d="M7 1h-2v2h2v-2zM3 5h-2v2h2v-2z" />
    <glyph glyph-name="glyph417" unicode="&#x2823;" horiz-adv-x="8" 
d="M7 1h-2v2h2v-2zM3 5h-2v2h2v-2zM3 9h-2v2h2v-2z" />
    <glyph glyph-name="glyph418" unicode="&#x2824;" horiz-adv-x="8" 
d="M7 1h-2v2h2v-2zM3 1h-2v2h2v-2z" />
    <glyph glyph-name="glyph419" unicode="&#x2825;" horiz-adv-x="8" 
d="M7 1h-2v2h2v-2zM3 1h-2v2h2v-2zM3 9h-2v2h2v-2z" />
    <glyph glyph-name="glyph420" unicode="&#x2826;" horiz-adv-x="8" 
d="M7 1h-2v2h2v-2zM3 1h-2v2h2v-2zM3 5h-2v2h2v-2z" />
    <glyph glyph-name="glyph421" unicode="&#x2827;" horiz-adv-x="8" 
d="M7 1h-2v2h2v-2zM3 1h-2v2h2v-2zM3 5h-2v2h2v-2zM3 9h-2v2h2v-2z" />
    <glyph glyph-name="glyph422" unicode="&#x2828;" horiz-adv-x="8" 
d="M7 1h-2v2h2v-2zM7 9h-2v2h2v-2z" />
    <glyph glyph-name="glyph423" unicode="&#x2829;" horiz-adv-x="8" 
d="M7 1h-2v2h2v-2zM7 9h-2v2h2v-2zM3 9h-2v2h2v-2z" />
    <glyph glyph-name="glyph424" unicode="&#x282a;" horiz-adv-x="8" 
d="M7 1h-2v2h2v-2zM3 5h-2v2h2v-2zM7 9h-2v2h2v-2z" />
    <glyph glyph-name="glyph425" unicode="&#x282b;" horiz-adv-x="8" 
d="M7 1h-2v2h2v-2zM3 5h-2v2h2v-2zM7 9h-2v2h2v-2zM3 9h-2v2h2v-2z" />
    <glyph glyph-name="glyph426" unicode="&#x282c;" horiz-adv-x="8" 
d="M7 1h-2v2h2v-2zM3 1h-2v2h2v-2zM7 9h-2v2h2v-2z" />
    <glyph glyph-name="glyph427" unicode="&#x282d;" horiz-adv-x="8" 
d="M7 1h-2v2h2v-2zM3 1h-2v2h2v-2zM7 9h-2v2h2v-2zM3 9h-2v2h2v-2z" />
    <glyph glyph-name="glyph428" unicode="&#x282e;" horiz-adv-x="8" 
d="M7 1h-2v2h2v-2zM3 1h-2v2h2v-2zM3 5h-2v2h2v-2zM7 9h-2v2h2v-2z" />
    <glyph glyph-name="glyph429" unicode="&#x282f;" horiz-adv-x="8" 
d="M7 1h-2v2h2v-2zM3 1h-2v2h2v-2zM3 5h-2v2h2v-2zM7 9h-2v2h2v-2zM3 9h-2v2h2v-2z" />
    <glyph glyph-name="glyph430" unicode="&#x2830;" horiz-adv-x="8" 
d="M7 1h-2v2h2v-2zM7 5h-2v2h2v-2z" />
    <glyph glyph-name="glyph431" unicode="&#x2831;" horiz-adv-x="8" 
d="M7 1h-2v2h2v-2zM7 5h-2v2h2v-2zM3 9h-2v2h2v-2z" />
    <glyph glyph-name="glyph432" unicode="&#x2832;" horiz-adv-x="8" 
d="M7 1h-2v2h2v-2zM7 5h-2v2h2v-2zM3 5h-2v2h2v-2z" />
    <glyph glyph-name="glyph433" unicode="&#x2833;" horiz-adv-x="8" 
d="M7 1h-2v2h2v-2zM7 5h-2v2h2v-2zM3 5h-2v2h2v-2zM3 9h-2v2h2v-2z" />
    <glyph glyph-name="glyph434" unicode="&#x2834;" horiz-adv-x="8" 
d="M7 1h-2v2h2v-2zM3 1h-2v2h2v-2zM7 5h-2v2h2v-2z" />
    <glyph glyph-name="glyph435" unicode="&#x2835;" horiz-adv-x="8" 
d="M7 1h-2v2h2v-2zM3 1h-2v2h2v-2zM7 5h-2v2h2v-2zM3 9h-2v2h2v-2z" />
    <glyph glyph-name="glyph436" unicode="&#x2836;" horiz-adv-x="8" 
d="M7 1h-2v2h2v-2zM3 1h-2v2h2v-2zM7 5h-2v2h2v-2zM3 5h-2v2h2v-2z" />
    <glyph glyph-name="glyph437" unicode="&#x2837;" horiz-adv-x="8" 
d="M7 1h-2v2h2v-2zM3 1h-2v2h2v-2zM7 5h-2v2h2v-2zM3 5h-2v2h2v-2zM3 9h-2v2h2v-2z" />
    <glyph glyph-name="glyph438" unicode="&#x2838;" horiz-adv-x="8" 
d="M7 1h-2v2h2v-2zM7 5h-2v2h2v-2zM7 9h-2v2h2v-2z" />
    <glyph glyph-name="glyph439" unicode="&#x2839;" horiz-adv-x="8" 
d="M7 1h-2v2h2v-2zM7 5h-2v2h2v-2zM7 9h-2v2h2v-2zM3 9h-2v2h2v-2z" />
    <glyph glyph-name="glyph440" unicode="&#x283a;" horiz-adv-x="8" 
d="M7 1h-2v2h2v-2zM7 5h-2v2h2v-2zM3 5h-2v2h2v-2zM7 9h-2v2h2v-2z" />
    <glyph glyph-name="glyph441" unicode="&#x283b;" horiz-adv-x="8" 
d="M7 1h-2v2h2v-2zM7 5h-2v2h2v-2zM3 5h-2v2h2v-2zM7 9h-2v2h2v-2zM3 9h-2v2h2v-2z" />
    <glyph glyph-name="glyph442" unicode="&#x283c;" horiz-adv-x="8" 
d="M7 1h-2v2h2v-2zM3 1h-2v2h2v-2zM7 5h-2v2h2v-2zM7 9h-2v2h2v-2z" />
    <glyph glyph-name="glyph443" unicode="&#x283d;" horiz-adv-x="8" 
d="M7 1h-2v2h2v-2zM3 1h-2v2h2v-2zM7 5h-2v2h2v-2zM7 9h-2v2h2v-2zM3 9h-2v2h2v-2z" />
    <glyph glyph-name="glyph444" unicode="&#x283e;" horiz-adv-x="8" 
d="M7 1h-2v2h2v-2zM3 1h-2v2h2v-2zM7 5h-2v2h2v-2zM3 5h-2v2h2v-2zM7 9h-2v2h2v-2z" />
    <glyph glyph-name="glyph445" unicode="&#x283f;" horiz-adv-x="8" 
d="M7 1h-2v2h2v-2zM3 1h-2v2h2v-2zM7 5h-2v2h2v-2zM3 5h-2v2h2v-2zM7 9h-2v2h2v-2zM3 9h-2v2h2v-2z" />
    <glyph glyph-name="glyph446" unicode="&#x2840;" horiz-adv-x="8" 
d="M3 -3h-2v2h2v-2z" />
    <glyph glyph-name="glyph447" unicode="&#x2841;" horiz-adv-x="8" 
d="M3 -3h-2v2h2v-2zM3 9h-2v2h2v-2z" />
    <glyph glyph-name="glyph448" unicode="&#x2842;" horiz-adv-x="8" 
d="M3 -3h-2v2h2v-2zM3 5h-2v2h2v-2z" />
    <glyph glyph-name="glyph449" unicode="&#x2843;" horiz-adv-x="8" 
d="M3 -3h-2v2h2v-2zM3 5h-2v2h2v-2zM3 9h-2v2h2v-2z" />
    <glyph glyph-name="glyph450" unicode="&#x2844;" horiz-adv-x="8" 
d="M3 -3h-2v2h2v-2zM3 1h-2v2h2v-2z" />
    <glyph glyph-name="glyph451" unicode="&#x2845;" horiz-adv-x="8" 
d="M3 -3h-2v2h2v-2zM3 1h-2v2h2v-2zM3 9h-2v2h2v-2z" />
    <glyph glyph-name="glyph452" unicode="&#x2846;" horiz-adv-x="8" 
d="M3 -3h-2v2h2v-2zM3 1h-2v2h2v-2zM3 5h-2v2h2v-2z" />
    <glyph glyph-name="glyph453" unicode="&#x2847;" horiz-adv-x="8" 
d="M3 -3h-2v2h2v-2zM3 1h-2v2h2v-2zM3 5h-2v2h2v-2zM3 9h-2v2h2v-2z" />
    <glyph glyph-name="glyph454" unicode="&#x2848;" horiz-adv-x="8" 
d="M3 -3h-2v2h2v-2zM7 9h-2v2h2v-2z" />
    <glyph glyph-name="glyph455" unicode="&#x2849;" horiz-adv-x="8" 
d="M3 -3h-2v2h2v-2zM7 9h-2v2h2v-2zM3 9h-2v2h2v-2z" />
    <glyph glyph-name="glyph456" unicode="&#x284a;" horiz-adv-x="8" 
d="M3 -3h-2v2h2v-2zM3 5h-2v2h2v-2zM7 9h-2v2h2v-2z" />
    <glyph glyph-name="glyph457" unicode="&#x284b;" horiz-adv-x="8" 
d="M3 -3h-2v2h2v-2zM3 5h-2v2h2v-2zM7 9h-2v2h2v-2zM3 9h-2v2h2v-2z" />
    <glyph glyph-name="glyph458" unicode="&#x284c;" horiz-adv-x="8" 
d="M3 -3h-2v2h2v-2zM3 1h-2v2h2v-2zM7 9h-2v2h2v-2z" />
    <glyph glyph-name="glyph459" unicode="&#x284d;" horiz-adv-x="8" 
d="M3 -3h-2v2h2v-2zM3 1h-2v2h2v-2zM7 9h-2v2h2v-2zM3 9h-2v2h2v-2z" />
    <glyph glyph-name="glyph460" unicode="&#x284e;" horiz-adv-x="8" 
d="M3 -3h-2v2h2v-2zM3 1h-2v2h2v-2zM3 5h-2v2h2v-2zM7 9h-2v2h2v-2z" />
    <glyph glyph-name="glyph461" unicode="&#x284f;" horiz-adv-x="8" 
d="M3 -3h-2v2h2v-2zM3 1h-2v2h2v-2zM3 5h-2v2h2v-2zM7 9h-2v2h2v-2zM3 9h-2v2h2v-2z" />
    <glyph glyph-name="glyph462" unicode="&#x2850;" horiz-adv-x="8" 
d="M3 -3h-2v2h2v-2zM7 5h-2v2h2v-2z" />
    <glyph glyph-name="glyph463" unicode="&#x2851;" horiz-adv-x="8" 
d="M3 -3h-2v2h2v-2zM7 5h-2v2h2v-2zM3 9h-2v2h2v-2z" />
    <glyph glyph-name="glyph464" unicode="&#x2852;" horiz-adv-x="8" 
d="M3 -3h-2v2h2v-2zM7 5h-2v2h2v-2zM3 5h-2v2h2v-2z" />
    <glyph glyph-name="glyph465" unicode="&#x2853;" horiz-adv-x="8" 
d="M3 -3h-2v2h2v-2zM7 5h-2v2h2v-2zM3 5h-2v2h2v-2zM3 9h-2v2h2v-2z" />
    <glyph glyph-name="glyph466" unicode="&#x2854;" horiz-adv-x="8" 
d="M3 -3h-2v2h2v-2zM3 1h-2v2h2v-2zM7 5h-2v2h2v-2z" />
    <glyph glyph-name="glyph467" unicode="&#x2855;" horiz-adv-x="8" 
d="M3 -3h-2v2h2v-2zM3 1h-2v2h2v-2zM7 5h-2v2h2v-2zM3 9h-2v2h2v-2z" />
    <glyph glyph-name="glyph468" unicode="&#x2856;" horiz-adv-x="8" 
d="M3 -3h-2v2h2v-2zM3 1h-2v2h2v-2zM7 5h-2v2h2v-2zM3 5h-2v2h2v-2z" />
    <glyph glyph-name="glyph469" unicode="&#x2857;" horiz-adv-x="8" 
d="M3 -3h-2v2h2v-2zM3 1h-2v2h2v-2zM7 5h-2v2h2v-2zM3 5h-2v2h2v-2zM3 9h-2v2h2v-2z" />
    <glyph glyph-name="glyph470" unicode="&#x2858;" horiz-adv-x="8" 
d="M3 -3h-2v2h2v-2zM7 5h-2v2h2v-2zM7 9h-2v2h2v-2z" />
    <glyph glyph-name="glyph471" unicode="&#x2859;" horiz-adv-x="8" 
d="M3 -3h-2v2h2v-2zM7 5h-2v2h2v-2zM7 9h-2v2h2v-2zM3 9h-2v2h2v-2z" />
    <glyph glyph-name="glyph472" unicode="&#x285a;" horiz-adv-x="8" 
d="M3 -3h-2v2h2v-2zM7 5h-2v2h2v-2zM3 5h-2v2h2v-2zM7 9h-2v2h2v-2z" />
    <glyph glyph-name="glyph473" unicode="&#x285b;" horiz-adv-x="8" 
d="M3 -3h-2v2h2v-2zM7 5h-2v2h2v-2zM3 5h-2v2h2v-2zM7 9h-2v2h2v-2zM3 9h-2v2h2v-2z" />
    <glyph glyph-name="glyph474" unicode="&#x285c;" horiz-adv-x="8" 
d="M3 -3h-2v2h2v-2zM3 1h-2v2h2v-2zM7 5h-2v2h2v-2zM7 9h-2v2h2v-2z" />
    <glyph glyph-name="glyph475" unicode="&#x285d;" horiz-adv-x="8" 
d="M3 -3h-2v2h2v-2zM3 1h-2v2h2v-2zM7 5h-2v2h2v-2zM7 9h-2v2h2v-2zM3 9h-2v2h2v-2z" />
    <glyph glyph-name="glyph476" unicode="&#x285e;" horiz-adv-x="8" 
d="M3 -3h-2v2h2v-2zM3 1h-2v2h2v-2zM7 5h-2v2h2v-2zM3 5h-2v2h2v-2zM7 9h-2v2h2v-2z" />
    <glyph glyph-name="glyph477" unicode="&#x285f;" horiz-adv-x="8" 
d="M3 -3h-2v2h2v-2zM3 1h-2v2h2v-2zM7 5h-2v2h2v-2zM3 5h-2v2h2v-2zM7 9h-2v2h2v-2zM3 9h-2v2h2v-2z" />
    <glyph glyph-name="glyph478" unicode="&#x2860;" horiz-adv-x="8" 
d="M3 -3h-2v2h2v-2zM7 1h-2v2h2v-2z" />
    <glyph glyph-name="glyph479" unicode="&#x2861;" horiz-adv-x="8" 
d="M3 -3h-2v2h2v-2zM7 1h-2v2h2v-2zM3 9h-2v2h2v-2z" />
    <glyph glyph-name="glyph480" unicode="&#x2862;" horiz-adv-x="8" 
d="M3 -3h-2v2h2v-2zM7 1h-2v2h2v-2zM3 5h-2v2h2v-2z" />
    <glyph glyph-name="glyph481" unicode="&#x2863;" horiz-adv-x="8" 
d="M3 -3h-2v2h2v-2zM7 1h-2v2h2v-2zM3 5h-2v2h2v-2zM3 9h-2v2h2v-2z" />
    <glyph glyph-name="glyph482" unicode="&#x2864;" horiz-adv-x="8" 
d="M3 -3h-2v2h2v-2zM7 1h-2v2h2v-2zM3 1h-2v2h2v-2z" />
    <glyph glyph-name="glyph483" unicode="&#x2865;" horiz-adv-x="8" 
d="M3 -3h-2v2h2v-2zM7 1h-2v2h2v-2zM3 1h-2v2h2v-2zM3 9h-2v2h2v-2z" />
    <glyph glyph-name="glyph484" unicode="&#x2866;" horiz-adv-x="8" 
d="M3 -3h-2v2h2v-2zM7 1h-2v2h2v-2zM3 1h-2v2h2v-2zM3 5h-2v2h2v-2z" />
    <glyph glyph-name="glyph485" unicode="&#x2867;" horiz-adv-x="8" 
d="M3 -3h-2v2h2v-2zM7 1h-2v2h2v-2zM3 1h-2v2h2v-2zM3 5h-2v2h2v-2zM3 9h-2v2h2v-2z" />
    <glyph glyph-name="glyph486" unicode="&#x2868;" horiz-adv-x="8" 
d="M3 -3h-2v2h2v-2zM7 1h-2v2h2v-2zM7 9h-2v2h2v-2z" />
    <glyph glyph-name="glyph487" unicode="&#x2869;" horiz-adv-x="8" 
d="M3 -3h-2v2h2v-2zM7 1h-2v2h2v-2zM7 9h-2v2h2v-2zM3 9h-2v2h2v-2z" />
    <glyph glyph-name="glyph488" unicode="&#x286a;" horiz-adv-x="8" 
d="M3 -3h-2v2h2v-2zM7 1h-2v2h2v-2zM3 5h-2v2h2v-2zM7 9h-2v2h2v-2z" />
    <glyph glyph-name="glyph489" unicode="&#x286b;" horiz-adv-x="8" 
d="M3 -3h-2v2h2v-2zM7 1h-2v2h2v-2zM3 5h-2v2h2v-2zM7 9h-2v2h2v-2zM3 9h-2v2h2v-2z" />
    <glyph glyph-name="glyph490" unicode="&#x286c;" horiz-adv-x="8" 
d="M3 -3h-2v2h2v-2zM7 1h-2v2h2v-2zM3 1h-2v2h2v-2zM7 9h-2v2h2v-2z" />
    <glyph glyph-name="glyph491" unicode="&#x286d;" horiz-adv-x="8" 
d="M3 -3h-2v2h2v-2zM7 1h-2v2h2v-2zM3 1h-2v2h2v-2zM7 9h-2v2h2v-2zM3 9h-2v2h2v-2z" />
    <glyph glyph-name="glyph492" unicode="&#x286e;" horiz-adv-x="8" 
d="M3 -3h-2v2h2v-2zM7 1h-2v2h2v-2zM3 1h-2v2h2v-2zM3 5h-2v2h2v-2zM7 9h-2v2h2v-2z" />
    <glyph glyph-name="glyph493" unicode="&#x286f;" horiz-adv-x="8" 
d="M3 -3h-2v2h2v-2zM7 1h-2v2h2v-2zM3 1h-2v2h2v-2zM3 5h-2v2h2v-2zM7 9h-2v2h2v-2zM3 9h-2v2h2v-2z" />
    <glyph glyph-name="glyph494" unicode="&#x2870;" horiz-adv-x="8" 
d="M3 -3h-2v2h2v-2zM7 1h-2v2h2v-2zM7 5h-2v2h2v-2z" />
    <glyph glyph-name="glyph495" unicode="&#x2871;" horiz-adv-x="8" 
d="M3 -3h-2v2h2v-2zM7 1h-2v2h2v-2zM7 5h-2v2h2v-2zM3 9h-2v2h2v-2z" />
    <glyph glyph-name="glyph496" unicode="&#x2872;" horiz-adv-x="8" 
d="M3 -3h-2v2h2v-2zM7 1h-2v2h2v-2zM7 5h-2v2h2v-2zM3 5h-2v2h2v-2z" />
    <glyph glyph-name="glyph497" unicode="&#x2873;" horiz-adv-x="8" 
d="M3 -3h-2v2h2v-2zM7 1h-2v2h2v-2zM7 5h-2v2h2v-2zM3 5h-2v2h2v-2zM3 9h-2v2h2v-2z" />
    <glyph glyph-name="glyph498" unicode="&#x2874;" horiz-adv-x="8" 
d="M3 -3h-2v2h2v-2zM7 1h-2v2h2v-2zM3 1h-2v2h2v-2zM7 5h-2v2h2v-2z" />
    <glyph glyph-name="glyph499" unicode="&#x2875;" horiz-adv-x="8" 
d="M3 -3h-2v2h2v-2zM7 1h-2v2h2v-2zM3 1h-2v2h2v-2zM7 5h-2v2h2v-2zM3 9h-2v2h2v-2z" />
    <glyph glyph-name="glyph500" unicode="&#x2876;" horiz-adv-x="8" 
d="M3 -3h-2v2h2v-2zM7 1h-2v2h2v-2zM3 1h-2v2h2v-2zM7 5h-2v2h2v-2zM3 5h-2v2h2v-2z" />
    <glyph glyph-name="glyph501" unicode="&#x2877;" horiz-adv-x="8" 
d="M3 -3h-2v2h2v-2zM7 1h-2v2h2v-2zM3 1h-2v2h2v-2zM7 5h-2v2h2v-2zM3 5h-2v2h2v-2zM3 9h-2v2h2v-2z" />
    <glyph glyph-name="glyph502" unicode="&#x2878;" horiz-adv-x="8" 
d="M3 -3h-2v2h2v-2zM7 1h-2v2h2v-2zM7 5h-2v2h2v-2zM7 9h-2v2h2v-2z" />
    <glyph glyph-name="glyph503" unicode="&#x2879;" horiz-adv-x="8" 
d="M3 -3h-2v2h2v-2zM7 1h-2v2h2v-2zM7 5h-2v2h2v-2zM7 9h-2v2h2v-2zM3 9h-2v2h2v-2z" />
    <glyph glyph-name="glyph504" unicode="&#x287a;" horiz-adv-x="8" 
d="M3 -3h-2v2h2v-2zM7 1h-2v2h2v-2zM7 5h-2v2h2v-2zM3 5h-2v2h2v-2zM7 9h-2v2h2v-2z" />
    <glyph glyph-name="glyph505" unicode="&#x287b;" horiz-adv-x="8" 
d="M3 -3h-2v2h2v-2zM7 1h-2v2h2v-2zM7 5h-2v2h2v-2zM3 5h-2v2h2v-2zM7 9h-2v2h2v-2zM3 9h-2v2h2v-2z" />
    <glyph glyph-name="glyph506" unicode="&#x287c;" horiz-adv-x="8" 
d="M3 -3h-2v2h2v-2zM7 1h-2v2h2v-2zM3 1h-2v2h2v-2zM7 5h-2v2h2v-2zM7 9h-2v2h2v-2z" />
    <glyph glyph-name="glyph507" unicode="&#x287d;" horiz-adv-x="8" 
d="M3 -3h-2v2h2v-2zM7 1h-2v2h2v-2zM3 1h-2v2h2v-2zM7 5h-2v2h2v-2zM7 9h-2v2h2v-2zM3 9h-2v2h2v-2z" />
    <glyph glyph-name="glyph508" unicode="&#x287e;" horiz-adv-x="8" 
d="M3 -3h-2v2h2v-2zM7 1h-2v2h2v-2zM3 1h-2v2h2v-2zM7 5h-2v2h2v-2zM3 5h-2v2h2v-2zM7 9h-2v2h2v-2z" />
    <glyph glyph-name="glyph509" unicode="&#x287f;" horiz-adv-x="8" 
d="M3 -3h-2v2h2v-2zM7 1h-2v2h2v-2zM3 1h-2v2h2v-2zM7 5h-2v2h2v-2zM3 5h-2v2h2v-2zM7 9h-2v2h2v-2zM3 9h-2v2h2v-2z" />
    <glyph glyph-name="glyph510" unicode="&#x2880;" horiz-adv-x="8" 
d="M7 -3h-2v2h2v-2z" />
    <glyph glyph-name="glyph511" unicode="&#x2881;" horiz-adv-x="8" 
d="M7 -3h-2v2h2v-2zM3 9h-2v2h2v-2z" />
    <glyph glyph-name="glyph512" unicode="&#x2882;" horiz-adv-x="8" 
d="M7 -3h-2v2h2v-2zM3 5h-2v2h2v-2z" />
    <glyph glyph-name="glyph513" unicode="&#x2883;" horiz-adv-x="8" 
d="M7 -3h-2v2h2v-2zM3 5h-2v2h2v-2zM3 9h-2v2h2v-2z" />
    <glyph glyph-name="glyph514" unicode="&#x2884;" horiz-adv-x="8" 
d="M7 -3h-2v2h2v-2zM3 1h-2v2h2v-2z" />
    <glyph glyph-name="glyph515" unicode="&#x2885;" horiz-adv-x="8" 
d="M7 -3h-2v2h2v-2zM3 1h-2v2h2v-2zM3 9h-2v2h2v-2z" />
    <glyph glyph-name="glyph516" unicode="&#x2886;" horiz-adv-x="8" 
d="M7 -3h-2v2h2v-2zM3 1h-2v2h2v-2zM3 5h-2v2h2v-2z" />
    <glyph glyph-name="glyph517" unicode="&#x2887;" horiz-adv-x="8" 
d="M7 -3h-2v2h2v-2zM3 1h-2v2h2v-2zM3 5h-2v2h2v-2zM3 9h-2v2h2v-2z" />
    <glyph glyph-name="glyph518" unicode="&#x2888;" horiz-adv-x="8" 
d="M7 -3h-2v2h2v-2zM7 9h-2v2h2v-2z" />
    <glyph glyph-name="glyph519" unicode="&#x2889;" horiz-adv-x="8" 
d="M7 -3h-2v2h2v-2zM7 9h-2v2h2v-2zM3 9h-2v2h2v-2z" />
    <glyph glyph-name="glyph520" unicode="&#x288a;" horiz-adv-x="8" 
d="M7 -3h-2v2h2v-2zM3 5h-2v2h2v-2zM7 9h-2v2h2v-2z" />
    <glyph glyph-name="glyph521" unicode="&#x288b;" horiz-adv-x="8" 
d="M7 -3h-2v2h2v-2zM3 5h-2v2h2v-2zM7 9h-2v2h2v-2zM3 9h-2v2h2v-2z" />
    <glyph glyph-name="glyph522" unicode="&#x288c;" horiz-adv-x="8" 
d="M7 -3h-2v2h2v-2zM3 1h-2v2h2v-2zM7 9h-2v2h2v-2z" />
    <glyph glyph-name="glyph523" unicode="&#x288d;" horiz-adv-x="8" 
d="M7 -3h-2v2h2v-2zM3 1h-2v2h2v-2zM7 9h-2v2h2v-2zM3 9h-2v2h2v-2z" />
    <glyph glyph-name="glyph524" unicode="&#x288e;" horiz-adv-x="8" 
d="M7 -3h-2v2h2v-2zM3 1h-2v2h2v-2zM3 5h-2v2h2v-2zM7 9h-2v2h2v-2z" />
    <glyph glyph-name="glyph525" unicode="&#x288f;" horiz-adv-x="8" 
d="M7 -3h-2v2h2v-2zM3 1h-2v2h2v-2zM3 5h-2v2h2v-2zM7 9h-2v2h2v-2zM3 9h-2v2h2v-2z" />
    <glyph glyph-name="glyph526" unicode="&#x2890;" horiz-adv-x="8" 
d="M7 -3h-2v2h2v-2zM7 5h-2v2h2v-2z" />
    <glyph glyph-name="glyph527" unicode="&#x2891;" horiz-adv-x="8" 
d="M7 -3h-2v2h2v-2zM7 5h-2v2h2v-2zM3 9h-2v2h2v-2z" />
    <glyph glyph-name="glyph528" unicode="&#x2892;" horiz-adv-x="8" 
d="M7 -3h-2v2h2v-2zM7 5h-2v2h2v-2zM3 5h-2v2h2v-2z" />
    <glyph glyph-name="glyph529" unicode="&#x2893;" horiz-adv-x="8" 
d="M7 -3h-2v2h2v-2zM7 5h-2v2h2v-2zM3 5h-2v2h2v-2zM3 9h-2v2h2v-2z" />
    <glyph glyph-name="glyph530" unicode="&#x2894;" horiz-adv-x="8" 
d="M7 -3h-2v2h2v-2zM3 1h-2v2h2v-2zM7 5h-2v2h2v-2z" />
    <glyph glyph-name="glyph531" unicode="&#x2895;" horiz-adv-x="8" 
d="M7 -3h-2v2h2v-2zM3 1h-2v2h2v-2zM7 5h-2v2h2v-2zM3 9h-2v2h2v-2z" />
    <glyph glyph-name="glyph532" unicode="&#x2896;" horiz-adv-x="8" 
d="M7 -3h-2v2h2v-2zM3 1h-2v2h2v-2zM7 5h-2v2h2v-2zM3 5h-2v2h2v-2z" />
    <glyph glyph-name="glyph533" unicode="&#x2897;" horiz-adv-x="8" 
d="M7 -3h-2v2h2v-2zM3 1h-2v2h2v-2zM7 5h-2v2h2v-2zM3 5h-2v2h2v-2zM3 9h-2v2h2v-2z" />
    <glyph glyph-name="glyph534" unicode="&#x2898;" horiz-adv-x="8" 
d="M7 -3h-2v2h2v-2zM7 5h-2v2h2v-2zM7 9h-2v2h2v-2z" />
    <glyph glyph-name="glyph535" unicode="&#x2899;" horiz-adv-x="8" 
d="M7 -3h-2v2h2v-2zM7 5h-2v2h2v-2zM7 9h-2v2h2v-2zM3 9h-2v2h2v-2z" />
    <glyph glyph-name="glyph536" unicode="&#x289a;" horiz-adv-x="8" 
d="M7 -3h-2v2h2v-2zM7 5h-2v2h2v-2zM3 5h-2v2h2v-2zM7 9h-2v2h2v-2z" />
    <glyph glyph-name="glyph537" unicode="&#x289b;" horiz-adv-x="8" 
d="M7 -3h-2v2h2v-2zM7 5h-2v2h2v-2zM3 5h-2v2h2v-2zM7 9h-2v2h2v-2zM3 9h-2v2h2v-2z" />
    <glyph glyph-name="glyph538" unicode="&#x289c;" horiz-adv-x="8" 
d="M7 -3h-2v2h2v-2zM3 1h-2v2h2v-2zM7 5h-2v2h2v-2zM7 9h-2v2h2v-2z" />
    <glyph glyph-name="glyph539" unicode="&#x289d;" horiz-adv-x="8" 
d="M7 -3h-2v2h2v-2zM3 1h-2v2h2v-2zM7 5h-2v2h2v-2zM7 9h-2v2h2v-2zM3 9h-2v2h2v-2z" />
    <glyph glyph-name="glyph540" unicode="&#x289e;" horiz-adv-x="8" 
d="M7 -3h-2v2h2v-2zM3 1h-2v2h2v-2zM7 5h-2v2h2v-2zM3 5h-2v2h2v-2zM7 9h-2v2h2v-2z" />
    <glyph glyph-name="glyph541" unicode="&#x289f;" horiz-adv-x="8" 
d="M7 -3h-2v2h2v-2zM3 1h-2v2h2v-2zM7 5h-2v2h2v-2zM3 5h-2v2h2v-2zM7 9h-2v2h2v-2zM3 9h-2v2h2v-2z" />
    <glyph glyph-name="glyph542" unicode="&#x28a0;" horiz-adv-x="8" 
d="M7 -3h-2v2h2v-2zM7 1h-2v2h2v-2z" />
    <glyph glyph-name="glyph543" unicode="&#x28a1;" horiz-adv-x="8" 
d="M7 -3h-2v2h2v-2zM7 1h-2v2h2v-2zM3 9h-2v2h2v-2z" />
    <glyph glyph-name="glyph544" unicode="&#x28a2;" horiz-adv-x="8" 
d="M7 -3h-2v2h2v-2zM7 1h-2v2h2v-2zM3 5h-2v2h2v-2z" />
    <glyph glyph-name="glyph545" unicode="&#x28a3;" horiz-adv-x="8" 
d="M7 -3h-2v2h2v-2zM7 1h-2v2h2v-2zM3 5h-2v2h2v-2zM3 9h-2v2h2v-2z" />
    <glyph glyph-name="glyph546" unicode="&#x28a4;" horiz-adv-x="8" 
d="M7 -3h-2v2h2v-2zM7 1h-2v2h2v-2zM3 1h-2v2h2v-2z" />
    <glyph glyph-name="glyph547" unicode="&#x28a5;" horiz-adv-x="8" 
d="M7 -3h-2v2h2v-2zM7 1h-2v2h2v-2zM3 1h-2v2h2v-2zM3 9h-2v2h2v-2z" />
    <glyph glyph-name="glyph548" unicode="&#x28a6;" horiz-adv-x="8" 
d="M7 -3h-2v2h2v-2zM7 1h-2v2h2v-2zM3 1h-2v2h2v-2zM3 5h-2v2h2v-2z" />
    <glyph glyph-name="glyph549" unicode="&#x28a7;" horiz-adv-x="8" 
d="M7 -3h-2v2h2v-2zM7 1h-2v2h2v-2zM3 1h-2v2h2v-2zM3 5h-2v2h2v-2zM3 9h-2v2h2v-2z" />
    <glyph glyph-name="glyph550" unicode="&#x28a8;" horiz-adv-x="8" 
d="M7 -3h-2v2h2v-2zM7 1h-2v2h2v-2zM7 9h-2v2h2v-2z" />
    <glyph glyph-name="glyph551" unicode="&#x28a9;" horiz-adv-x="8" 
d="M7 -3h-2v2h2v-2zM7 1h-2v2h2v-2zM7 9h-2v2h2v-2zM3 9h-2v2h2v-2z" />
    <glyph glyph-name="glyph552" unicode="&#x28aa;" horiz-adv-x="8" 
d="M7 -3h-2v2h2v-2zM7 1h-2v2h2v-2zM3 5h-2v2h2v-2zM7 9h-2v2h2v-2z" />
    <glyph glyph-name="glyph553" unicode="&#x28ab;" horiz-adv-x="8" 
d="M7 -3h-2v2h2v-2zM7 1h-2v2h2v-2zM3 5h-2v2h2v-2zM7 9h-2v2h2v-2zM3 9h-2v2h2v-2z" />
    <glyph glyph-name="glyph554" unicode="&#x28ac;" horiz-adv-x="8" 
d="M7 -3h-2v2h2v-2zM7 1h-2v2h2v-2zM3 1h-2v2h2v-2zM7 9h-2v2h2v-2z" />
    <glyph glyph-name="glyph555" unicode="&#x28ad;" horiz-adv-x="8" 
d="M7 -3h-2v2h2v-2zM7 1h-2v2h2v-2zM3 1h-2v2h2v-2zM7 9h-2v2h2v-2zM3 9h-2v2h2v-2z" />
    <glyph glyph-name="glyph556" unicode="&#x28ae;" horiz-adv-x="8" 
d="M7 -3h-2v2h2v-2zM7 1h-2v2h2v-2zM3 1h-2v2h2v-2zM3 5h-2v2h2v-2zM7 9h-2v2h2v-2z" />
    <glyph glyph-name="glyph557" unicode="&#x28af;" horiz-adv-x="8" 
d="M7 -3h-2v2h2v-2zM7 1h-2v2h2v-2zM3 1h-2v2h2v-2zM3 5h-2v2h2v-2zM7 9h-2v2h2v-2zM3 9h-2v2h2v-2z" />
    <glyph glyph-name="glyph558" unicode="&#x28b0;" horiz-adv-x="8" 
d="M7 -3h-2v2h2v-2zM7 1h-2v2h2v-2zM7 5h-2v2h2v-2z" />
    <glyph glyph-name="glyph559" unicode="&#x28b1;" horiz-adv-x="8" 
d="M7 -3h-2v2h2v-2zM7 1h-2v2h2v-2zM7 5h-2v2h2v-2zM3 9h-2v2h2v-2z" />
    <glyph glyph-name="glyph560" unicode="&#x28b2;" horiz-adv-x="8" 
d="M7 -3h-2v2h2v-2zM7 1h-2v2h2v-2zM7 5h-2v2h2v-2zM3 5h-2v2h2v-2z" />
    <glyph glyph-name="glyph561" unicode="&#x28b3;" horiz-adv-x="8" 
d="M7 -3h-2v2h2v-2zM7 1h-2v2h2v-2zM7 5h-2v2h2v-2zM3 5h-2v2h2v-2zM3 9h-2v2h2v-2z" />
    <glyph glyph-name="glyph562" unicode="&#x28b4;" horiz-adv-x="8" 
d="M7 -3h-2v2h2v-2zM7 1h-2v2h2v-2zM3 1h-2v2h2v-2zM7 5h-2v2h2v-2z" />
    <glyph glyph-name="glyph563" unicode="&#x28b5;" horiz-adv-x="8" 
d="M7 -3h-2v2h2v-2zM7 1h-2v2h2v-2zM3 1h-2v2h2v-2zM7 5h-2v2h2v-2zM3 9h-2v2h2v-2z" />
    <glyph glyph-name="glyph564" unicode="&#x28b6;" horiz-adv-x="8" 
d="M7 -3h-2v2h2v-2zM7 1h-2v2h2v-2zM3 1h-2v2h2v-2zM7 5h-2v2h2v-2zM3 5h-2v2h2v-2z" />
    <glyph glyph-name="glyph565" unicode="&#x28b7;" horiz-adv-x="8" 
d="M7 -3h-2v2h2v-2zM7 1h-2v2h2v-2zM3 1h-2v2h2v-2zM7 5h-2v2h2v-2zM3 5h-2v2h2v-2zM3 9h-2v2h2v-2z" />
    <glyph glyph-name="glyph566" unicode="&#x28b8;" horiz-adv-x="8" 
d="M7 -3h-2v2h2v-2zM7 1h-2v2h2v-2zM7 5h-2v2h2v-2zM7 9h-2v2h2v-2z" />
    <glyph glyph-name="glyph567" unicode="&#x28b9;" horiz-adv-x="8" 
d="M7 -3h-2v2h2v-2zM7 1h-2v2h2v-2zM7 5h-2v2h2v-2zM7 9h-2v2h2v-2zM3 9h-2v2h2v-2z" />
    <glyph glyph-name="glyph568" unicode="&#x28ba;" horiz-adv-x="8" 
d="M7 -3h-2v2h2v-2zM7 1h-2v2h2v-2zM7 5h-2v2h2v-2zM3 5h-2v2h2v-2zM7 9h-2v2h2v-2z" />
    <glyph glyph-name="glyph569" unicode="&#x28bb;" horiz-adv-x="8" 
d="M7 -3h-2v2h2v-2zM7 1h-2v2h2v-2zM7 5h-2v2h2v-2zM3 5h-2v2h2v-2zM7 9h-2v2h2v-2zM3 9h-2v2h2v-2z" />
    <glyph glyph-name="glyph570" unicode="&#x28bc;" horiz-adv-x="8" 
d="M7 -3h-2v2h2v-2zM7 1h-2v2h2v-2zM3 1h-2v2h2v-2zM7 5h-2v2h2v-2zM7 9h-2v2h2v-2z" />
    <glyph glyph-name="glyph571" unicode="&#x28bd;" horiz-adv-x="8" 
d="M7 -3h-2v2h2v-2zM7 1h-2v2h2v-2zM3 1h-2v2h2v-2zM7 5h-2v2h2v-2zM7 9h-2v2h2v-2zM3 9h-2v2h2v-2z" />
    <glyph glyph-name="glyph572" unicode="&#x28be;" horiz-adv-x="8" 
d="M7 -3h-2v2h2v-2zM7 1h-2v2h2v-2zM3 1h-2v2h2v-2zM7 5h-2v2h2v-2zM3 5h-2v2h2v-2zM7 9h-2v2h2v-2z" />
    <glyph glyph-name="glyph573" unicode="&#x28bf;" horiz-adv-x="8" 
d="M7 -3h-2v2h2v-2zM7 1h-2v2h2v-2zM3 1h-2v2h2v-2zM7 5h-2v2h2v-2zM3 5h-2v2h2v-2zM7 9h-2v2h2v-2zM3 9h-2v2h2v-2z" />
    <glyph glyph-name="glyph574" unicode="&#x28c0;" horiz-adv-x="8" 
d="M7 -3h-2v2h2v-2zM3 -3h-2v2h2v-2z" />
    <glyph glyph-name="glyph575" unicode="&#x28c1;" horiz-adv-x="8" 
d="M7 -3h-2v2h2v-2zM3 -3h-2v2h2v-2zM3 9h-2v2h2v-2z" />
    <glyph glyph-name="glyph576" unicode="&#x28c2;" horiz-adv-x="8" 
d="M7 -3h-2v2h2v-2zM3 -3h-2v2h2v-2zM3 5h-2v2h2v-2z" />
    <glyph glyph-name="glyph577" unicode="&#x28c3;" horiz-adv-x="8" 
d="M7 -3h-2v2h2v-2zM3 -3h-2v2h2v-2zM3 5h-2v2h2v-2zM3 9h-2v2h2v-2z" />
    <glyph glyph-name="glyph578" unicode="&#x28c4;" horiz-adv-x="8" 
d="M7 -3h-2v2h2v-2zM3 -3h-2v2h2v-2zM3 1h-2v2h2v-2z" />
    <glyph glyph-name="glyph579" unicode="&#x28c5;" horiz-adv-x="8" 
d="M7 -3h-2v2h2v-2zM3 -3h-2v2h2v-2zM3 1h-2v2h2v-2zM3 9h-2v2h2v-2z" />
    <glyph glyph-name="glyph580" unicode="&#x28c6;" horiz-adv-x="8" 
d="M7 -3h-2v2h2v-2zM3 -3h-2v2h2v-2zM3 1h-2v2h2v-2zM3 5h-2v2h2v-2z" />
    <glyph glyph-name="glyph581" unicode="&#x28c7;" horiz-adv-x="8" 
d="M7 -3h-2v2h2v-2zM3 -3h-2v2h2v-2zM3 1h-2v2h2v-2zM3 5h-2v2h2v-2zM3 9h-2v2h2v-2z" />
    <glyph glyph-name="glyph582" unicode="&#x28c8;" horiz-adv-x="8" 
d="M7 -3h-2v2h2v-2zM3 -3h-2v2h2v-2zM7 9h-2v2h2v-2z" />
    <glyph glyph-name="glyph583" unicode="&#x28c9;" horiz-adv-x="8" 
d="M7 -3h-2v2h2v-2zM3 -3h-2v2h2v-2zM7 9h-2v2h2v-2zM3 9h-2v2h2v-2z" />
    <glyph glyph-name="glyph584" unicode="&#x28ca;" horiz-adv-x="8" 
d="M7 -3h-2v2h2v-2zM3 -3h-2v2h2v-2zM3 5h-2v2h2v-2zM7 9h-2v2h2v-2z" />
    <glyph glyph-name="glyph585" unicode="&#x28cb;" horiz-adv-x="8" 
d="M7 -3h-2v2h2v-2zM3 -3h-2v2h2v-2zM3 5h-2v2h2v-2zM7 9h-2v2h2v-2zM3 9h-2v2h2v-2z" />
    <glyph glyph-name="glyph586" unicode="&#x28cc;" horiz-adv-x="8" 
d="M7 -3h-2v2h2v-2zM3 -3h-2v2h2v-2zM3 1h-2v2h2v-2zM7 9h-2v2h2v-2z" />
    <glyph glyph-name="glyph587" unicode="&#x28cd;" horiz-adv-x="8" 
d="M7 -3h-2v2h2v-2zM3 -3h-2v2h2v-2zM3 1h-2v2h2v-2zM7 9h-2v2h2v-2zM3 9h-2v2h2v-2z" />
    <glyph glyph-name="glyph588" unicode="&#x28ce;" horiz-adv-x="8" 
d="M7 -3h-2v2h2v-2zM3 -3h-2v2h2v-2zM3 1h-2v2h2v-2zM3 5h-2v2h2v-2zM7 9h-2v2h2v-2z" />
    <glyph glyph-name="glyph589" unicode="&#x28cf;" horiz-adv-x="8" 
d="M7 -3h-2v2h2v-2zM3 -3h-2v2h2v-2zM3 1h-2v2h2v-2zM3 5h-2v2h2v-2zM7 9h-2v2h2v-2zM3 9h-2v2h2v-2z" />
    <glyph glyph-name="glyph590" unicode="&#x28d0;" horiz-adv-x="8" 
d="M7 -3h-2v2h2v-2zM3 -3h-2v2h2v-2zM7 5h-2v2h2v-2z" />
    <glyph glyph-name="glyph591" unicode="&#x28d1;" horiz-adv-x="8" 
d="M7 -3h-2v2h2v-2zM3 -3h-2v2h2v-2zM7 5h-2v2h2v-2zM3 9h-2v2h2v-2z" />
    <glyph glyph-name="glyph592" unicode="&#x28d2;" horiz-adv-x="8" 
d="M7 -3h-2v2h2v-2zM3 -3h-2v2h2v-2zM7 5h-2v2h2v-2zM3 5h-2v2h2v-2z" />
    <glyph glyph-name="glyph593" unicode="&#x28d3;" horiz-adv-x="8" 
d="M7 -3h-2v2h2v-2zM3 -3h-2v2h2v-2zM7 5h-2v2h2v-2zM3 5h-2v2h2v-2zM3 9h-2v2h2v-2z" />
    <glyph glyph-name="glyph594" unicode="&#x28d4;" horiz-adv-x="8" 
d="M7 -3h-2v2h2v-2zM3 -3h-2v2h2v-2zM3 1h-2v2h2v-2zM7 5h-2v2h2v-2z" />
    <glyph glyph-name="glyph595" unicode="&#x28d5;" horiz-adv-x="8" 
d="M7 -3h-2v2h2v-2zM3 -3h-2v2h2v-2zM3 1h-2v2h2v-2zM7 5h-2v2h2v-2zM3 9h-2v2h2v-2z" />
    <glyph glyph-name="glyph596" unicode="&#x28d6;" horiz-adv-x="8" 
d="M7 -3h-2v2h2v-2zM3 -3h-2v2h2v-2zM3 1h-2v2h2v-2zM7 5h-2v2h2v-2zM3 5h-2v2h2v-2z" />
    <glyph glyph-name="glyph597" unicode="&#x28d7;" horiz-adv-x="8" 
d="M7 -3h-2v2h2v-2zM3 -3h-2v2h2v-2zM3 1h-2v2h2v-2zM7 5h-2v2h2v-2zM3 5h-2v2h2v-2zM3 9h-2v2h2v-2z" />
    <glyph glyph-name="glyph598" unicode="&#x28d8;" horiz-adv-x="8" 
d="M7 -3h-2v2h2v-2zM3 -3h-2v2h2v-2zM7 5h-2v2h2v-2zM7 9h-2v2h2v-2z" />
    <glyph glyph-name="glyph599" unicode="&#x28d9;" horiz-adv-x="8" 
d="M7 -3h-2v2h2v-2zM3 -3h-2v2h2v-2zM7 5h-2v2h2v-2zM7 9h-2v2h2v-2zM3 9h-2v2h2v-2z" />
    <glyph glyph-name="glyph600" unicode="&#x28da;" horiz-adv-x="8" 
d="M7 -3h-2v2h2v-2zM3 -3h-2v2h2v-2zM7 5h-2v2h2v-2zM3 5h-2v2h2v-2zM7 9h-2v2h2v-2z" />
    <glyph glyph-name="glyph601" unicode="&#x28db;" horiz-adv-x="8" 
d="M7 -3h-2v2h2v-2zM3 -3h-2v2h2v-2zM7 5h-2v2h2v-2zM3 5h-2v2h2v-2zM7 9h-2v2h2v-2zM3 9h-2v2h2v-2z" />
    <glyph glyph-name="glyph602" unicode="&#x28dc;" horiz-adv-x="8" 
d="M7 -3h-2v2h2v-2zM3 -3h-2v2h2v-2zM3 1h-2v2h2v-2zM7 5h-2v2h2v-2zM7 9h-2v2h2v-2z" />
    <glyph glyph-name="glyph603" unicode="&#x28dd;" horiz-adv-x="8" 
d="M7 -3h-2v2h2v-2zM3 -3h-2v2h2v-2zM3 1h-2v2h2v-2zM7 5h-2v2h2v-2zM7 9h-2v2h2v-2zM3 9h-2v2h2v-2z" />
    <glyph glyph-name="glyph604" unicode="&#x28de;" horiz-adv-x="8" 
d="M7 -3h-2v2h2v-2zM3 -3h-2v2h2v-2zM3 1h-2v2h2v-2zM7 5h-2v2h2v-2zM3 5h-2v2h2v-2zM7 9h-2v2h2v-2z" />
    <glyph glyph-name="glyph605" unicode="&#x28df;" horiz-adv-x="8" 
d="M7 -3h-2v2h2v-2zM3 -3h-2v2h2v-2zM3 1h-2v2h2v-2zM7 5h-2v2h2v-2zM3 5h-2v2h2v-2zM7 9h-2v2h2v-2zM3 9h-2v2h2v-2z" />
    <glyph glyph-name="glyph606" unicode="&#x28e0;" horiz-adv-x="8" 
d="M7 -3h-2v2h2v-2zM3 -3h-2v2h2v-2zM7 1h-2v2h2v-2z" />
    <glyph glyph-name="glyph607" unicode="&#x28e1;" horiz-adv-x="8" 
d="M7 -3h-2v2h2v-2zM3 -3h-2v2h2v-2zM7 1h-2v2h2v-2zM3 9h-2v2h2v-2z" />
    <glyph glyph-name="glyph608" unicode="&#x28e2;" horiz-adv-x="8" 
d="M7 -3h-2v2h2v-2zM3 -3h-2v2h2v-2zM7 1h-2v2h2v-2zM3 5h-2v2h2v-2z" />
    <glyph glyph-name="glyph609" unicode="&#x28e3;" horiz-adv-x="8" 
d="M7 -3h-2v2h2v-2zM3 -3h-2v2h2v-2zM7 1h-2v2h2v-2zM3 5h-2v2h2v-2zM3 9h-2v2h2v-2z" />
    <glyph glyph-name="glyph610" unicode="&#x28e4;" horiz-adv-x="8" 
d="M7 -3h-2v2h2v-2zM3 -3h-2v2h2v-2zM7 1h-2v2h2v-2zM3 1h-2v2h2v-2z" />
    <glyph glyph-name="glyph611" unicode="&#x28e5;" horiz-adv-x="8" 
d="M7 -3h-2v2h2v-2zM3 -3h-2v2h2v-2zM7 1h-2v2h2v-2zM3 1h-2v2h2v-2zM3 9h-2v2h2v-2z" />
    <glyph glyph-name="glyph612" unicode="&#x28e6;" horiz-adv-x="8" 
d="M7 -3h-2v2h2v-2zM3 -3h-2v2h2v-2zM7 1h-2v2h2v-2zM3 1h-2v2h2v-2zM3 5h-2v2h2v-2z" />
    <glyph glyph-name="glyph613" unicode="&#x28e7;" horiz-adv-x="8" 
d="M7 -3h-2v2h2v-2zM3 -3h-2v2h2v-2zM7 1h-2v2h2v-2zM3 1h-2v2h2v-2zM3 5h-2v2h2v-2zM3 9h-2v2h2v-2z" />
    <glyph glyph-name="glyph614" unicode="&#x28e8;" horiz-adv-x="8" 
d="M7 -3h-2v2h2v-2zM3 -3h-2v2h2v-2zM7 1h-2v2h2v-2zM7 9h-2v2h2v-2z" />
    <glyph glyph-name="glyph615" unicode="&#x28e9;" horiz-adv-x="8" 
d="M7 -3h-2v2h2v-2zM3 -3h-2v2h2v-2zM7 1h-2v2h2v-2zM7 9h-2v2h2v-2zM3 9h-2v2h2v-2z" />
    <glyph glyph-name="glyph616" unicode="&#x28ea;" horiz-adv-x="8" 
d="M7 -3h-2v2h2v-2zM3 -3h-2v2h2v-2zM7 1h-2v2h2v-2zM3 5h-2v2h2v-2zM7 9h-2v2h2v-2z" />
    <glyph glyph-name="glyph617" unicode="&#x28eb;" horiz-adv-x="8" 
d="M7 -3h-2v2h2v-2zM3 -3h-2v2h2v-2zM7 1h-2v2h2v-2zM3 5h-2v2h2v-2zM7 9h-2v2h2v-2zM3 9h-2v2h2v-2z" />
    <glyph glyph-name="glyph618" unicode="&#x28ec;" horiz-adv-x="8" 
d="M7 -3h-2v2h2v-2zM3 -3h-2v2h2v-2zM7 1h-2v2h2v-2zM3 1h-2v2h2v-2zM7 9h-2v2h2v-2z" />
    <glyph glyph-name="glyph619" unicode="&#x28ed;" horiz-adv-x="8" 
d="M7 -3h-2v2h2v-2zM3 -3h-2v2h2v-2zM7 1h-2v2h2v-2zM3 1h-2v2h2v-2zM7 9h-2v2h2v-2zM3 9h-2v2h2v-2z" />
    <glyph glyph-name="glyph620" unicode="&#x28ee;" horiz-adv-x="8" 
d="M7 -3h-2v2h2v-2zM3 -3h-2v2h2v-2zM7 1h-2v2h2v-2zM3 1h-2v2h2v-2zM3 5h-2v2h2v-2zM7 9h-2v2h2v-2z" />
    <glyph glyph-name="glyph621" unicode="&#x28ef;" horiz-adv-x="8" 
d="M7 -3h-2v2h2v-2zM3 -3h-2v2h2v-2zM7 1h-2v2h2v-2zM3 1h-2v2h2v-2zM3 5h-2v2h2v-2zM7 9h-2v2h2v-2zM3 9h-2v2h2v-2z" />
    <glyph glyph-name="glyph622" unicode="&#x28f0;" horiz-adv-x="8" 
d="M7 -3h-2v2h2v-2zM3 -3h-2v2h2v-2zM7 1h-2v2h2v-2zM7 5h-2v2h2v-2z" />
    <glyph glyph-name="glyph623" unicode="&#x28f1;" horiz-adv-x="8" 
d="M7 -3h-2v2h2v-2zM3 -3h-2v2h2v-2zM7 1h-2v2h2v-2zM7 5h-2v2h2v-2zM3 9h-2v2h2v-2z" />
    <glyph glyph-name="glyph624" unicode="&#x28f2;" horiz-adv-x="8" 
d="M7 -3h-2v2h2v-2zM3 -3h-2v2h2v-2zM7 1h-2v2h2v-2zM7 5h-2v2h2v-2zM3 5h-2v2h2v-2z" />
    <glyph glyph-name="glyph625" unicode="&#x28f3;" horiz-adv-x="8" 
d="M7 -3h-2v2h2v-2zM3 -3h-2v2h2v-2zM7 1h-2v2h2v-2zM7 5h-2v2h2v-2zM3 5h-2v2h2v-2zM3 9h-2v2h2v-2z" />
    <glyph glyph-name="glyph626" unicode="&#x28f4;" horiz-adv-x="8" 
d="M7 -3h-2v2h2v-2zM3 -3h-2v2h2v-2zM7 1h-2v2h2v-2zM3 1h-2v2h2v-2zM7 5h-2v2h2v-2z" />
    <glyph glyph-name="glyph627" unicode="&#x28f5;" horiz-adv-x="8" 
d="M7 -3h-2v2h2v-2zM3 -3h-2v2h2v-2zM7 1h-2v2h2v-2zM3 1h-2v2h2v-2zM7 5h-2v2h2v-2zM3 9h-2v2h2v-2z" />
    <glyph glyph-name="glyph628" unicode="&#x28f6;" horiz-adv-x="8" 
d="M7 -3h-2v2h2v-2zM3 -3h-2v2h2v-2zM7 1h-2v2h2v-2zM3 1h-2v2h2v-2zM7 5h-2v2h2v-2zM3 5h-2v2h2v-2z" />
    <glyph glyph-name="glyph629" unicode="&#x28f7;" horiz-adv-x="8" 
d="M7 -3h-2v2h2v-2zM3 -3h-2v2h2v-2zM7 1h-2v2h2v-2zM3 1h-2v2h2v-2zM7 5h-2v2h2v-2zM3 5h-2v2h2v-2zM3 9h-2v2h2v-2z" />
    <glyph glyph-name="glyph630" unicode="&#x28f8;" horiz-adv-x="8" 
d="M7 -3h-2v2h2v-2zM3 -3h-2v2h2v-2zM7 1h-2v2h2v-2zM7 5h-2v2h2v-2zM7 9h-2v2h2v-2z" />
    <glyph glyph-name="glyph631" unicode="&#x28f9;" horiz-adv-x="8" 
d="M7 -3h-2v2h2v-2zM3 -3h-2v2h2v-2zM7 1h-2v2h2v-2zM7 5h-2v2h2v-2zM7 9h-2v2h2v-2zM3 9h-2v2h2v-2z" />
    <glyph glyph-name="glyph632" unicode="&#x28fa;" horiz-adv-x="8" 
d="M7 -3h-2v2h2v-2zM3 -3h-2v2h2v-2zM7 1h-2v2h2v-2zM7 5h-2v2h2v-2zM3 5h-2v2h2v-2zM7 9h-2v2h2v-2z" />
    <glyph glyph-name="glyph633" unicode="&#x28fb;" horiz-adv-x="8" 
d="M7 -3h-2v2h2v-2zM3 -3h-2v2h2v-2zM7 1h-2v2h2v-2zM7 5h-2v2h2v-2zM3 5h-2v2h2v-2zM7 9h-2v2h2v-2zM3 9h-2v2h2v-2z" />
    <glyph glyph-name="glyph634" unicode="&#x28fc;" horiz-adv-x="8" 
d="M7 -3h-2v2h2v-2zM3 -3h-2v2h2v-2zM7 1h-2v2h2v-2zM3 1h-2v2h2v-2zM7 5h-2v2h2v-2zM7 9h-2v2h2v-2z" />
    <glyph glyph-name="glyph635" unicode="&#x28fd;" horiz-adv-x="8" 
d="M7 -3h-2v2h2v-2zM3 -3h-2v2h2v-2zM7 1h-2v2h2v-2zM3 1h-2v2h2v-2zM7 5h-2v2h2v-2zM7 9h-2v2h2v-2zM3 9h-2v2h2v-2z" />
    <glyph glyph-name="glyph636" unicode="&#x28fe;" horiz-adv-x="8" 
d="M7 -3h-2v2h2v-2zM3 -3h-2v2h2v-2zM7 1h-2v2h2v-2zM3 1h-2v2h2v-2zM7 5h-2v2h2v-2zM3 5h-2v2h2v-2zM7 9h-2v2h2v-2z" />
    <glyph glyph-name="glyph637" unicode="&#x28ff;" horiz-adv-x="8" 
d="M7 -3h-2v2h2v-2zM3 -3h-2v2h2v-2zM7 1h-2v2h2v-2zM3 1h-2v2h2v-2zM7 5h-2v2h2v-2zM3 5h-2v2h2v-2zM7 9h-2v2h2v-2zM3 9h-2v2h2v-2z" />
    <glyph glyph-name="glyph653" unicode="&#x3131;" 
d="M11 3v1h1v5h-10v1h12v-6h-1v-1h-2z" />
    <glyph glyph-name="glyph654" unicode="&#x3132;" 
d="M11 3v1h1v5h-3v1h5v-6h-1v-1h-2zM4 3v1h1v5h-3v1h5v-6h-1v-1h-2z" />
    <glyph glyph-name="glyph655" unicode="&#x3133;" 
d="M5 3v1h1v5h-4v1h6v-6h1v1h1v5h2v-5h1v-1h1v-1h-2v1h-2v-1h-2v1h-1v-1h-2z" />
    <glyph glyph-name="glyph656" unicode="&#x3134;" 
d="M14 3h-11v1h-1v6h2v-6h10v-1z" />
    <glyph glyph-name="glyph657" unicode="&#x3135;" 
d="M8 3v1h1v1h1v4h-2v1h6v-1h-2v-4h1v-1h1v-1h-2v1h-2v-1h-2zM7 3h-4v1h-1v6h2v-6h3v-1z" />
    <glyph glyph-name="glyph658" unicode="&#x3136;" 
d="M8 8v1h2v1h2v-1h2v-1h-1v-1h1v-3h-1v-1h-4v1h-1v-1h-5v1h-1v6h2v-6h4v3h1v1h-1zM10 4h2v3h-2v-3z" />
    <glyph glyph-name="glyph659" unicode="&#x3137;" 
d="M14 3h-11v1h-1v6h12v-1h-10v-5h10v-1z" />
    <glyph glyph-name="glyph660" unicode="&#x3138;" 
d="M14 3h-6v7h6v-1h-4v-5h4v-1zM7 3h-4v1h-1v6h5v-1h-3v-5h3v-1z" />
    <glyph glyph-name="glyph661" unicode="&#x3139;" 
d="M2 9v1h12v-4h-10v-2h10v-1h-11v1h-1v3h10v2h-10z" />
    <glyph glyph-name="glyph662" unicode="&#x313a;" 
d="M9 9v1h5v-6h-1v-1h-1v6h-3zM2 9v1h6v-4h-4v-2h4v-1h-5v1h-1v3h4v2h-4z" />
    <glyph glyph-name="glyph663" unicode="&#x313b;" 
d="M2 9v1h6v-4h-4v-2h4v-1h-5v1h-1v3h4v2h-4zM13 3h-3v1h-1v6h5v-6h-1v-1zM12 4v5h-1v-5h1z" />
    <glyph glyph-name="glyph664" unicode="&#x313c;" 
d="M2 9v1h6v-4h-4v-2h4v-1h-5v1h-1v3h4v2h-4zM13 3h-3v1h-1v6h2v-3h1v3h2v-6h-1v-1zM12 4v2h-1v-2h1z" />
    <glyph glyph-name="glyph665" unicode="&#x313d;" 
d="M2 9v1h6v-4h-4v-2h5v1h1v5h2v-5h1v-1h1v-1h-2v1h-2v-1h-7v1h-1v3h4v2h-4z" />
    <glyph glyph-name="glyph666" unicode="&#x313e;" 
d="M2 9v1h6v-4h-4v-2h4v-1h-5v1h-1v3h4v2h-4zM14 3h-4v1h-1v6h5v-1h-3v-2h3v-1h-3v-2h3v-1z" />
    <glyph glyph-name="glyph667" unicode="&#x313f;" 
d="M2 9v1h13v-1h-1v-5h1v-1h-12v1h-1v3h4v2h-4zM4 4h5v5h-1v-3h-4v-2zM12 4v5h-1v-5h1z" />
    <glyph glyph-name="glyph668" unicode="&#x3140;" 
d="M2 9v1h6v-1h2v1h2v-1h2v-1h-1v-1h1v-3h-1v-1h-4v1h-1v-1h-5v1h-1v3h4v2h-4zM10 4h2v3h-2v-3zM4 4h4v2h-4v-2zM9 7v1h-1v-1h1z" />
    <glyph glyph-name="glyph669" unicode="&#x3141;" 
d="M13 3h-10v1h-1v6h12v-6h-1v-1zM4 4h8v5h-8v-5z" />
    <glyph glyph-name="glyph670" unicode="&#x3142;" 
d="M13 3h-10v1h-1v6h2v-3h8v3h2v-6h-1v-1zM4 4h8v2h-8v-2z" />
    <glyph glyph-name="glyph671" unicode="&#x3143;" 
d="M13 3h-10v1h-1v6h2v-3h3v3h2v-3h3v3h2v-6h-1v-1zM9 4h3v2h-3v-2zM4 4h3v2h-3v-2z" />
    <glyph glyph-name="glyph672" unicode="&#x3144;" 
d="M14 3h-2v1h-2v-1h-2v1h1v1h1v5h2v-5h1v-1h1v-1zM7 3h-4v1h-1v6h2v-3h2v3h2v-6h-1v-1zM4 4h2v2h-2v-2z" />
    <glyph glyph-name="glyph673" unicode="&#x3145;" 
d="M2 4v1h3v1h1v1h1v3h2v-3h1v-1h1v-1h3v-1h-4v1h-1v1h-2v-1h-1v-1h-4z" />
    <glyph glyph-name="glyph674" unicode="&#x3146;" 
d="M6 3v1h1v1h-2v-1h-1v-1h-2v1h1v1h1v1h1v4h2v-4h2v4h2v-4h1v-1h1v-1h1v-1h-2v1h-1v1h-2v-1h-1v-1h-2z" />
    <glyph glyph-name="glyph675" unicode="&#x3147;" 
d="M12 3h-8v1h-1v1h-1v3h1v1h1v1h8v-1h1v-1h1v-3h-1v-1h-1v-1zM5 4h6v1h1v3h-1v1h-6v-1h-1v-3h1v-1z" />
    <glyph glyph-name="glyph676" unicode="&#x3148;" 
d="M2 3v1h3v1h1v1h1v3h-5v1h12v-1h-5v-3h1v-1h1v-1h3v-1h-4v1h-1v1h-2v-1h-1v-1h-4z" />
    <glyph glyph-name="glyph677" unicode="&#x3149;" 
d="M6 3v1h1v1h-2v-1h-1v-1h-2v1h1v1h1v1h1v3h-3v1h12v-1h-3v-3h1v-1h1v-1h1v-1h-2v1h-1v1h-2v-1h-1v-1h-2zM7 6h2v3h-2v-3z" />
    <glyph glyph-name="glyph678" unicode="&#x314a;" 
d="M2 3v1h3v1h1v1h1v2h-5v1h5v1h2v-1h5v-1h-5v-2h1v-1h1v-1h3v-1h-4v1h-1v1h-2v-1h-1v-1h-4z" />
    <glyph glyph-name="glyph679" unicode="&#x314b;" 
d="M11 3v1h1v2h-10v1h10v2h-10v1h12v-6h-1v-1h-2z" />
    <glyph glyph-name="glyph680" unicode="&#x314c;" 
d="M14 3h-11v1h-1v6h12v-1h-10v-2h9v-1h-9v-2h10v-1z" />
    <glyph glyph-name="glyph681" unicode="&#x314d;" 
d="M2 3v1h2v5h-2v1h12v-1h-2v-5h2v-1h-12zM6 4h4v5h-4v-5z" />
    <glyph glyph-name="glyph682" unicode="&#x314e;" 
d="M2 8v1h5v2h2v-2h5v-1h-2v-1h2v-3h-2v-1h-8v1h-2v3h2v1h-2zM5 4h6v1h1v1h-1v1h-6v-1h-1v-1h1v-1z" />
    <glyph glyph-name="glyph683" unicode="&#x314f;" 
d="M13 -2h-2v13h2v-6h3v-1h-3v-6z" />
    <glyph glyph-name="glyph684" unicode="&#x3150;" 
d="M15 -2h-2v6h-1v-6h-2v13h2v-6h1v6h2v-13z" />
    <glyph glyph-name="glyph685" unicode="&#x3151;" 
d="M13 -2h-2v13h2v-4h3v-1h-3v-3h3v-1h-3v-4z" />
    <glyph glyph-name="glyph686" unicode="&#x3152;" 
d="M15 -2h-2v4h-1v-4h-2v13h2v-4h1v4h2v-13zM13 3v3h-1v-3h1z" />
    <glyph glyph-name="glyph687" unicode="&#x3153;" 
d="M9 4v1h3v6h2v-13h-2v6h-3z" />
    <glyph glyph-name="glyph688" unicode="&#x3154;" 
d="M8 4v1h2v6h2v-13h-2v6h-2zM15 -2h-2v13h2v-13z" />
    <glyph glyph-name="glyph689" unicode="&#x3155;" 
d="M9 2v1h3v3h-3v1h3v4h2v-13h-2v4h-3z" />
    <glyph glyph-name="glyph690" unicode="&#x3156;" 
d="M8 2v1h2v3h-2v1h2v4h2v-13h-2v4h-2zM15 -2h-2v13h2v-13z" />
    <glyph glyph-name="glyph691" unicode="&#x3157;" 
d="M1 -1v1h6v5h2v-5h6v-1h-14z" />
    <glyph glyph-name="glyph692" unicode="&#x3158;" 
d="M1 -1v1h3v5h2v-5h5v11h2v-6h3v-1h-3v-6h-2v1h-10z" />
    <glyph glyph-name="glyph693" unicode="&#x3159;" 
d="M1 -1v1h3v5h2v-5h4v11h2v-6h1v6h2v-13h-2v6h-1v-6h-2v1h-9z" />
    <glyph glyph-name="glyph694" unicode="&#x315a;" 
d="M1 -1v1h3v5h2v-5h6v11h2v-13h-2v1h-11z" />
    <glyph glyph-name="glyph695" unicode="&#x315b;" 
d="M1 -1v1h4v5h2v-5h2v5h2v-5h4v-1h-14z" />
    <glyph glyph-name="glyph696" unicode="&#x315c;" 
d="M1 2v1h14v-1h-6v-4h-2v4h-6z" />
    <glyph glyph-name="glyph697" unicode="&#x315d;" 
d="M8 1v1h4v1h-6v-5h-2v5h-3v1h11v7h2v-13h-2v3h-4z" />
    <glyph glyph-name="glyph698" unicode="&#x315e;" 
d="M8 1v1h2v1h-4v-5h-2v5h-3v1h9v7h2v-13h-2v3h-2zM15 -2h-2v13h2v-13z" />
    <glyph glyph-name="glyph699" unicode="&#x315f;" 
d="M1 3v1h11v7h2v-13h-2v5h-6v-5h-2v5h-3z" />
    <glyph glyph-name="glyph700" unicode="&#x3160;" 
d="M1 2v1h14v-1h-3v-4h-2v4h-4v-4h-2v4h-3z" />
    <glyph glyph-name="glyph701" unicode="&#x3161;" 
d="M1 -1v1h14v-1h-14z" />
    <glyph glyph-name="glyph702" unicode="&#x3162;" 
d="M1 -1v1h11v11h2v-13h-2v1h-11z" />
    <glyph glyph-name="glyph703" unicode="&#x3163;" 
d="M14 -2h-2v13h2v-13z" />
    <glyph glyph-name="glyph1119" unicode="&#xac00;" 
d="M13 -2h-2v13h2v-6h3v-1h-3v-6zM2 -1v1h2v1h1v8h-4v1h6v-9h-1v-1h-1v-1h-3z" />
    <glyph glyph-name="glyph1120" unicode="&#xac01;" 
d="M2 2v1h11v-4h-1v-1h-1v4h-9zM13 4h-2v7h2v-3h3v-1h-3v-3zM2 4v1h3v5h-4v1h6v-6h-1v-1h-4z" />
    <glyph glyph-name="glyph1121" unicode="&#xac02;" 
d="M2 2v1h11v-4h-1v-1h-1v4h-3v-3h-1v-1h-1v4h-4zM13 4h-2v7h2v-3h3v-1h-3v-3zM2 4v1h3v5h-4v1h6v-6h-1v-1h-4z" />
    <glyph glyph-name="glyph1122" unicode="&#xac03;" 
d="M9 -2v1h1v1h1v3h2v-3h1v-1h1v-1h-2v1h-2v-1h-2zM2 2v1h6v-4h-1v-1h-1v4h-4zM13 4h-2v7h2v-3h3v-1h-3v-3zM2 4v1h3v5h-4v1h6v-6h-1v-1h-4z" />
    <glyph glyph-name="glyph1123" unicode="&#xac04;" 
d="M13 -2h-10v1h-1v4h2v-4h9v-1zM13 4h-2v7h2v-3h3v-1h-3v-3zM2 4v1h3v5h-4v1h6v-6h-1v-1h-4z" />
    <glyph glyph-name="glyph1124" unicode="&#xac05;" 
d="M7 2v1h6v-1h-2v-2h1v-1h1v-1h-2v1h-2v-1h-6v1h-1v4h2v-4h4v1h1v2h-2zM13 4h-2v7h2v-3h3v-1h-3v-3zM2 4v1h3v5h-4v1h6v-6h-1v-1h-4z" />
    <glyph glyph-name="glyph1125" unicode="&#xac06;" 
d="M7 1v1h2v1h2v-1h2v-1h-1v-1h1v-1h-1v-1h-4v1h-1v-1h-4v1h-1v4h2v-4h3v1h1v1h-1zM9 -1h2v1h-2v-1zM13 4h-2v7h2v-3h3v-1h-3v-3zM2 4v1h3v5h-4v1h6v-6h-1v-1h-4z" />
    <glyph glyph-name="glyph1126" unicode="&#xac07;" 
d="M13 -2h-10v1h-1v4h11v-1h-9v-3h9v-1zM13 4h-2v7h2v-3h3v-1h-3v-3zM2 4v1h3v5h-4v1h6v-6h-1v-1h-4z" />
    <glyph glyph-name="glyph1127" unicode="&#xac08;" 
d="M2 2v1h11v-3h-9v-1h9v-1h-10v1h-1v2h9v1h-9zM13 4h-2v7h2v-3h3v-1h-3v-3zM2 4v1h3v5h-4v1h6v-6h-1v-1h-4z" />
    <glyph glyph-name="glyph1128" unicode="&#xac09;" 
d="M8 2v1h5v-4h-1v-1h-1v4h-3zM2 2v1h5v-3h-3v-1h3v-1h-4v1h-1v2h3v1h-3zM13 4h-2v7h2v-3h3v-1h-3v-3zM2 4v1h3v5h-4v1h6v-6h-1v-1h-4z" />
    <glyph glyph-name="glyph1129" unicode="&#xac0a;" 
d="M2 2v1h5v-3h-3v-1h3v-1h-4v1h-1v2h3v1h-3zM12 -2h-3v1h-1v4h5v-4h-1v-1zM11 -1v3h-1v-3h1zM13 4h-2v7h2v-3h3v-1h-3v-3zM2 4v1h3v5h-4v1h6v-6h-1v-1h-4z" />
    <glyph glyph-name="glyph1130" unicode="&#xac0b;" 
d="M2 2v1h5v-3h-3v-1h3v-1h-4v1h-1v2h3v1h-3zM12 -2h-3v1h-1v4h2v-2h1v2h2v-4h-1v-1zM11 -1v1h-1v-1h1zM13 4h-2v7h2v-3h3v-1h-3v-3zM2 4v1h3v5h-4v1h6v-6h-1v-1h-4z" />
    <glyph glyph-name="glyph1131" unicode="&#xac0c;" 
d="M8 -2v1h1v1h1v3h2v-3h1v-1h1v-1h-2v1h-2v-1h-2zM2 2v1h5v-3h-3v-1h3v-1h-4v1h-1v2h3v1h-3zM13 4h-2v7h2v-3h3v-1h-3v-3zM2 4v1h3v5h-4v1h6v-6h-1v-1h-4z" />
    <glyph glyph-name="glyph1132" unicode="&#xac0d;" 
d="M2 2v1h5v-3h-3v-1h3v-1h-4v1h-1v2h3v1h-3zM13 -2h-5v5h5v-1h-3v-1h3v-1h-3v-1h3v-1zM13 4h-2v7h2v-3h3v-1h-3v-3zM2 4v1h3v5h-4v1h6v-6h-1v-1h-4z" />
    <glyph glyph-name="glyph1133" unicode="&#xac0e;" 
d="M2 2v1h11v-1h-1v-3h1v-1h-10v1h-1v2h3v1h-3zM4 -1h3v1h-3v-1zM10 -1v3h-1v-3h1zM13 4h-2v7h2v-3h3v-1h-3v-3zM2 4v1h3v5h-4v1h6v-6h-1v-1h-4z" />
    <glyph glyph-name="glyph1134" unicode="&#xac0f;" 
d="M2 2v1h5v-1h2v1h2v-1h2v-1h-1v-1h1v-1h-1v-1h-4v1h-1v-1h-4v1h-1v2h3v1h-3zM9 -1h2v1h-2v-1zM4 -1h3v1h1v1h-1v-1h-3v-1zM13 4h-2v7h2v-3h3v-1h-3v-3zM2 4v1h3v5h-4v1h6v-6h-1v-1h-4z" />
    <glyph glyph-name="glyph1135" unicode="&#xac10;" 
d="M12 -2h-9v1h-1v4h11v-4h-1v-1zM4 -1h7v3h-7v-3zM13 4h-2v7h2v-3h3v-1h-3v-3zM2 4v1h3v5h-4v1h6v-6h-1v-1h-4z" />
    <glyph glyph-name="glyph1136" unicode="&#xac11;" 
d="M12 -2h-9v1h-1v4h2v-2h7v2h2v-4h-1v-1zM4 -1h7v1h-7v-1zM13 4h-2v7h2v-3h3v-1h-3v-3zM2 4v1h3v5h-4v1h6v-6h-1v-1h-4z" />
    <glyph glyph-name="glyph1137" unicode="&#xac12;" 
d="M8 -2v1h1v1h1v3h2v-3h1v-1h1v-1h-2v1h-2v-1h-2zM6 -2h-3v1h-1v4h2v-2h1v2h2v-4h-1v-1zM5 -1v1h-1v-1h1zM13 4h-2v7h2v-3h3v-1h-3v-3zM2 4v1h3v5h-4v1h6v-6h-1v-1h-4z" />
    <glyph glyph-name="glyph1138" unicode="&#xac13;" 
d="M1 -2v1h3v1h1v1h1v2h2v-2h1v-1h1v-1h3v-1h-4v1h-1v1h-2v-1h-1v-1h-4zM13 4h-2v7h2v-3h3v-1h-3v-3zM2 4v1h3v5h-4v1h6v-6h-1v-1h-4z" />
    <glyph glyph-name="glyph1139" unicode="&#xac14;" 
d="M2 -2v1h1v1h1v3h2v-3h1v-1h2v1h1v3h2v-3h1v-1h1v-1h-2v1h-2v-1h-4v1h-2v-1h-2zM13 4h-2v7h2v-3h3v-1h-3v-3zM2 4v1h3v5h-4v1h6v-6h-1v-1h-4z" />
    <glyph glyph-name="glyph1140" unicode="&#xac15;" 
d="M11 -2h-7v1h-2v3h2v1h7v-1h2v-3h-2v-1zM5 -1h5v1h1v1h-1v1h-5v-1h-1v-1h1v-1zM13 4h-2v7h2v-3h3v-1h-3v-3zM2 4v1h3v5h-4v1h6v-6h-1v-1h-4z" />
    <glyph glyph-name="glyph1141" unicode="&#xac16;" 
d="M1 -2v1h3v1h1v1h1v1h-5v1h12v-1h-5v-1h1v-1h1v-1h3v-1h-4v1h-1v1h-2v-1h-1v-1h-4zM13 4h-2v7h2v-3h3v-1h-3v-3zM2 4v1h3v5h-4v1h6v-6h-1v-1h-4z" />
    <glyph glyph-name="glyph1142" unicode="&#xac17;" 
d="M1 -2v1h3v1h1v1h1v1h-5v1h5v1h2v-1h5v-1h-5v-1h1v-1h1v-1h3v-1h-4v1h-1v1h-2v-1h-1v-1h-4zM13 4h-2v7h2v-3h3v-1h-3v-3zM2 4v1h3v5h-4v1h6v-6h-1v-1h-4z" />
    <glyph glyph-name="glyph1143" unicode="&#xac18;" 
d="M2 0v1h9v1h-9v1h11v-4h-1v-1h-1v2h-9zM13 4h-2v7h2v-3h3v-1h-3v-3zM2 4v1h3v5h-4v1h6v-6h-1v-1h-4z" />
    <glyph glyph-name="glyph1144" unicode="&#xac19;" 
d="M13 -2h-10v1h-1v4h11v-1h-9v-1h9v-1h-9v-1h9v-1zM13 4h-2v7h2v-3h3v-1h-3v-3zM2 4v1h3v5h-4v1h6v-6h-1v-1h-4z" />
    <glyph glyph-name="glyph1145" unicode="&#xac1a;" 
d="M2 -2v1h2v3h-2v1h11v-1h-2v-3h2v-1h-11zM6 -1h3v3h-3v-3zM13 4h-2v7h2v-3h3v-1h-3v-3zM2 4v1h3v5h-4v1h6v-6h-1v-1h-4z" />
    <glyph glyph-name="glyph1146" unicode="&#xac1b;" 
d="M2 2v1h4v1h3v-1h4v-1h-1v-1h1v-2h-1v-1h-9v1h-1v2h1v1h-1zM4 -1h7v2h-7v-2zM13 4h-2v7h2v-3h3v-1h-3v-3zM2 4v1h3v5h-4v1h6v-6h-1v-1h-4z" />
    <glyph glyph-name="glyph1147" unicode="&#xac1c;" 
d="M15 -2h-2v6h-1v-6h-2v13h2v-6h1v6h2v-13zM2 -1v1h2v1h1v8h-4v1h6v-9h-1v-1h-1v-1h-3z" />
    <glyph glyph-name="glyph1148" unicode="&#xac1d;" 
d="M2 2v1h13v-4h-1v-1h-1v4h-11zM15 4h-2v3h-1v-3h-2v7h2v-3h1v3h2v-7zM2 4v1h3v5h-4v1h6v-6h-1v-1h-4z" />
    <glyph glyph-name="glyph1149" unicode="&#xac1e;" 
d="M9 2v1h6v-4h-1v-1h-1v4h-4zM2 2v1h6v-4h-1v-1h-1v4h-4zM15 4h-2v3h-1v-3h-2v7h2v-3h1v3h2v-7zM2 4v1h3v5h-4v1h6v-6h-1v-1h-4z" />
    <glyph glyph-name="glyph1150" unicode="&#xac1f;" 
d="M9 -2v1h1v1h1v3h2v-3h1v-1h1v-1h-2v1h-2v-1h-2zM2 2v1h6v-4h-1v-1h-1v4h-4zM15 4h-2v3h-1v-3h-2v7h2v-3h1v3h2v-7zM2 4v1h3v5h-4v1h6v-6h-1v-1h-4z" />
    <glyph glyph-name="glyph1151" unicode="&#xac20;" 
d="M15 -2h-12v1h-1v4h2v-4h11v-1zM15 4h-2v3h-1v-3h-2v7h2v-3h1v3h2v-7zM2 4v1h3v5h-4v1h6v-6h-1v-1h-4z" />
    <glyph glyph-name="glyph1152" unicode="&#xac21;" 
d="M9 -2v1h1v1h1v2h-2v1h6v-1h-2v-2h1v-1h1v-1h-2v1h-2v-1h-2zM8 -2h-5v1h-1v4h2v-4h4v-1zM15 4h-2v3h-1v-3h-2v7h2v-3h1v3h2v-7zM2 4v1h3v5h-4v1h6v-6h-1v-1h-4z" />
    <glyph glyph-name="glyph1153" unicode="&#xac22;" 
d="M8 1v1h2v1h3v-1h2v-1h-1v-1h1v-1h-1v-1h-5v1h-1v-1h-5v1h-1v4h2v-4h4v1h1v1h-1zM10 -1h3v1h-3v-1zM15 4h-2v3h-1v-3h-2v7h2v-3h1v3h2v-7zM2 4v1h3v5h-4v1h6v-6h-1v-1h-4z" />
    <glyph glyph-name="glyph1154" unicode="&#xac23;" 
d="M15 -2h-12v1h-1v4h13v-1h-11v-3h11v-1zM15 4h-2v3h-1v-3h-2v7h2v-3h1v3h2v-7zM2 4v1h3v5h-4v1h6v-6h-1v-1h-4z" />
    <glyph glyph-name="glyph1155" unicode="&#xac24;" 
d="M2 2v1h13v-3h-11v-1h11v-1h-12v1h-1v2h11v1h-11zM15 4h-2v3h-1v-3h-2v7h2v-3h1v3h2v-7zM2 4v1h3v5h-4v1h6v-6h-1v-1h-4z" />
    <glyph glyph-name="glyph1156" unicode="&#xac25;" 
d="M9 2v1h6v-4h-1v-1h-1v4h-4zM2 2v1h6v-3h-4v-1h4v-1h-5v1h-1v2h4v1h-4zM15 4h-2v3h-1v-3h-2v7h2v-3h1v3h2v-7zM2 4v1h3v5h-4v1h6v-6h-1v-1h-4z" />
    <glyph glyph-name="glyph1157" unicode="&#xac26;" 
d="M2 2v1h6v-3h-4v-1h4v-1h-5v1h-1v2h4v1h-4zM14 -2h-4v1h-1v4h6v-4h-1v-1zM11 -1h2v3h-2v-3zM15 4h-2v3h-1v-3h-2v7h2v-3h1v3h2v-7zM2 4v1h3v5h-4v1h6v-6h-1v-1h-4z" />
    <glyph glyph-name="glyph1158" unicode="&#xac27;" 
d="M2 2v1h6v-3h-4v-1h4v-1h-5v1h-1v2h4v1h-4zM14 -2h-4v1h-1v4h2v-2h2v2h2v-4h-1v-1zM11 -1h2v1h-2v-1zM15 4h-2v3h-1v-3h-2v7h2v-3h1v3h2v-7zM2 4v1h3v5h-4v1h6v-6h-1v-1h-4z" />
    <glyph glyph-name="glyph1159" unicode="&#xac28;" 
d="M9 -2v1h1v1h1v3h2v-3h1v-1h1v-1h-2v1h-2v-1h-2zM2 2v1h6v-3h-4v-1h4v-1h-5v1h-1v2h4v1h-4zM15 4h-2v3h-1v-3h-2v7h2v-3h1v3h2v-7zM2 4v1h3v5h-4v1h6v-6h-1v-1h-4z" />
    <glyph glyph-name="glyph1160" unicode="&#xac29;" 
d="M2 2v1h6v-3h-4v-1h4v-1h-5v1h-1v2h4v1h-4zM15 -2h-6v5h6v-1h-4v-1h4v-1h-4v-1h4v-1zM15 4h-2v3h-1v-3h-2v7h2v-3h1v3h2v-7zM2 4v1h3v5h-4v1h6v-6h-1v-1h-4z" />
    <glyph glyph-name="glyph1161" unicode="&#xac2a;" 
d="M2 2v1h13v-1h-1v-3h1v-1h-12v1h-1v2h4v1h-4zM4 -1h5v3h-1v-2h-4v-1zM12 -1v3h-1v-3h1zM15 4h-2v3h-1v-3h-2v7h2v-3h1v3h2v-7zM2 4v1h3v5h-4v1h6v-6h-1v-1h-4z" />
    <glyph glyph-name="glyph1162" unicode="&#xac2b;" 
d="M2 2v1h6v-1h2v1h3v-1h2v-1h-1v-1h1v-1h-1v-1h-5v1h-1v-1h-5v1h-1v2h4v1h-4zM10 -1h3v1h-3v-1zM4 -1h4v1h1v1h-1v-1h-4v-1zM15 4h-2v3h-1v-3h-2v7h2v-3h1v3h2v-7zM2 4v1h3v5h-4v1h6v-6h-1v-1h-4z" />
    <glyph glyph-name="glyph1163" unicode="&#xac2c;" 
d="M14 -2h-11v1h-1v4h13v-4h-1v-1zM4 -1h9v3h-9v-3zM15 4h-2v3h-1v-3h-2v7h2v-3h1v3h2v-7zM2 4v1h3v5h-4v1h6v-6h-1v-1h-4z" />
    <glyph glyph-name="glyph1164" unicode="&#xac2d;" 
d="M14 -2h-11v1h-1v4h2v-2h9v2h2v-4h-1v-1zM4 -1h9v1h-9v-1zM15 4h-2v3h-1v-3h-2v7h2v-3h1v3h2v-7zM2 4v1h3v5h-4v1h6v-6h-1v-1h-4z" />
    <glyph glyph-name="glyph1165" unicode="&#xac2e;" 
d="M15 -2h-2v1h-2v-1h-3v1h2v1h1v3h2v-3h1v-1h1v-1zM7 -2h-4v1h-1v4h2v-2h2v2h2v-4h-1v-1zM4 -1h2v1h-2v-1zM15 4h-2v3h-1v-3h-2v7h2v-3h1v3h2v-7zM2 4v1h3v5h-4v1h6v-6h-1v-1h-4z" />
    <glyph glyph-name="glyph1166" unicode="&#xac2f;" 
d="M2 -2v1h3v1h1v1h1v2h3v-2h1v-1h1v-1h3v-1h-4v1h-1v1h-1v1h-1v-1h-1v-1h-1v-1h-4zM15 4h-2v3h-1v-3h-2v7h2v-3h1v3h2v-7zM2 4v1h3v5h-4v1h6v-6h-1v-1h-4z" />
    <glyph glyph-name="glyph1167" unicode="&#xac30;" 
d="M9 -2v1h1v1h1v3h2v-3h1v-1h1v-1h-2v1h-2v-1h-2zM2 -2v1h1v1h1v3h2v-3h1v-1h1v-1h-2v1h-2v-1h-2zM15 4h-2v3h-1v-3h-2v7h2v-3h1v3h2v-7zM2 4v1h3v5h-4v1h6v-6h-1v-1h-4z" />
    <glyph glyph-name="glyph1168" unicode="&#xac31;" 
d="M13 -2h-9v1h-2v3h2v1h9v-1h2v-3h-2v-1zM5 -1h7v1h1v1h-1v1h-7v-1h-1v-1h1v-1zM15 4h-2v3h-1v-3h-2v7h2v-3h1v3h2v-7zM2 4v1h3v5h-4v1h6v-6h-1v-1h-4z" />
    <glyph glyph-name="glyph1169" unicode="&#xac32;" 
d="M2 -2v1h3v1h1v1h1v1h-5v1h13v-1h-5v-1h1v-1h1v-1h3v-1h-4v1h-1v1h-1v1h-1v-1h-1v-1h-1v-1h-4zM15 4h-2v3h-1v-3h-2v7h2v-3h1v3h2v-7zM2 4v1h3v5h-4v1h6v-6h-1v-1h-4z" />
    <glyph glyph-name="glyph1170" unicode="&#xac33;" 
d="M2 -2v1h3v1h1v1h-4v1h5v1h3v-1h5v-1h-4v-1h1v-1h3v-1h-4v1h-1v1h-1v1h-1v-1h-1v-1h-1v-1h-4zM15 4h-2v3h-1v-3h-2v7h2v-3h1v3h2v-7zM2 4v1h3v5h-4v1h6v-6h-1v-1h-4z" />
    <glyph glyph-name="glyph1171" unicode="&#xac34;" 
d="M2 0v1h11v1h-11v1h13v-4h-1v-1h-1v2h-11zM15 4h-2v3h-1v-3h-2v7h2v-3h1v3h2v-7zM2 4v1h3v5h-4v1h6v-6h-1v-1h-4z" />
    <glyph glyph-name="glyph1172" unicode="&#xac35;" 
d="M15 -2h-12v1h-1v4h13v-1h-11v-1h11v-1h-11v-1h11v-1zM15 4h-2v3h-1v-3h-2v7h2v-3h1v3h2v-7zM2 4v1h3v5h-4v1h6v-6h-1v-1h-4z" />
    <glyph glyph-name="glyph1173" unicode="&#xac36;" 
d="M2 -2v1h2v3h-2v1h13v-1h-2v-3h2v-1h-13zM6 -1h5v3h-5v-3zM15 4h-2v3h-1v-3h-2v7h2v-3h1v3h2v-7zM2 4v1h3v5h-4v1h6v-6h-1v-1h-4z" />
    <glyph glyph-name="glyph1174" unicode="&#xac37;" 
d="M2 -1v1h1v1h-1v1h5v1h3v-1h5v-1h-1v-1h1v-1h-1v-1h-11v1h-1zM4 -1h9v1h-9v-1zM15 4h-2v3h-1v-3h-2v7h2v-3h1v3h2v-7zM2 4v1h3v5h-4v1h6v-6h-1v-1h-4z" />
    <glyph glyph-name="glyph1175" unicode="&#xac38;" 
d="M13 -2h-2v13h2v-4h3v-1h-3v-3h3v-1h-3v-4zM2 -1v1h2v1h1v8h-4v1h6v-9h-1v-1h-1v-1h-3z" />
    <glyph glyph-name="glyph1176" unicode="&#xac39;" 
d="M2 2v1h11v-4h-1v-1h-1v4h-9zM13 4h-2v7h2v-2h3v-1h-3v-1h3v-1h-3v-2zM2 4v1h3v5h-4v1h6v-6h-1v-1h-4z" />
    <glyph glyph-name="glyph1177" unicode="&#xac3a;" 
d="M2 2v1h11v-4h-1v-1h-1v4h-3v-3h-1v-1h-1v4h-4zM13 4h-2v7h2v-2h3v-1h-3v-1h3v-1h-3v-2zM2 4v1h3v5h-4v1h6v-6h-1v-1h-4z" />
    <glyph glyph-name="glyph1178" unicode="&#xac3b;" 
d="M9 -2v1h1v1h1v3h2v-3h1v-1h1v-1h-2v1h-2v-1h-2zM2 2v1h6v-4h-1v-1h-1v4h-4zM13 4h-2v7h2v-2h3v-1h-3v-1h3v-1h-3v-2zM2 4v1h3v5h-4v1h6v-6h-1v-1h-4z" />
    <glyph glyph-name="glyph1179" unicode="&#xac3c;" 
d="M13 -2h-10v1h-1v4h2v-4h9v-1zM13 4h-2v7h2v-2h3v-1h-3v-1h3v-1h-3v-2zM2 4v1h3v5h-4v1h6v-6h-1v-1h-4z" />
    <glyph glyph-name="glyph1180" unicode="&#xac3d;" 
d="M7 2v1h6v-1h-2v-2h1v-1h1v-1h-2v1h-2v-1h-6v1h-1v4h2v-4h4v1h1v2h-2zM13 4h-2v7h2v-2h3v-1h-3v-1h3v-1h-3v-2zM2 4v1h3v5h-4v1h6v-6h-1v-1h-4z" />
    <glyph glyph-name="glyph1181" unicode="&#xac3e;" 
d="M7 1v1h2v1h2v-1h2v-1h-1v-1h1v-1h-1v-1h-4v1h-1v-1h-4v1h-1v4h2v-4h3v1h1v1h-1zM9 -1h2v1h-2v-1zM13 4h-2v7h2v-2h3v-1h-3v-1h3v-1h-3v-2zM2 4v1h3v5h-4v1h6v-6h-1v-1h-4z" />
    <glyph glyph-name="glyph1182" unicode="&#xac3f;" 
d="M13 -2h-10v1h-1v4h11v-1h-9v-3h9v-1zM13 4h-2v7h2v-2h3v-1h-3v-1h3v-1h-3v-2zM2 4v1h3v5h-4v1h6v-6h-1v-1h-4z" />
    <glyph glyph-name="glyph1183" unicode="&#xac40;" 
d="M2 2v1h11v-3h-9v-1h9v-1h-10v1h-1v2h9v1h-9zM13 4h-2v7h2v-2h3v-1h-3v-1h3v-1h-3v-2zM2 4v1h3v5h-4v1h6v-6h-1v-1h-4z" />
    <glyph glyph-name="glyph1184" unicode="&#xac41;" 
d="M8 2v1h5v-4h-1v-1h-1v4h-3zM2 2v1h5v-3h-3v-1h3v-1h-4v1h-1v2h3v1h-3zM13 4h-2v7h2v-2h3v-1h-3v-1h3v-1h-3v-2zM2 4v1h3v5h-4v1h6v-6h-1v-1h-4z" />
    <glyph glyph-name="glyph1185" unicode="&#xac42;" 
d="M2 2v1h5v-3h-3v-1h3v-1h-4v1h-1v2h3v1h-3zM12 -2h-3v1h-1v4h5v-4h-1v-1zM11 -1v3h-1v-3h1zM13 4h-2v7h2v-2h3v-1h-3v-1h3v-1h-3v-2zM2 4v1h3v5h-4v1h6v-6h-1v-1h-4z" />
    <glyph glyph-name="glyph1186" unicode="&#xac43;" 
d="M2 2v1h5v-3h-3v-1h3v-1h-4v1h-1v2h3v1h-3zM12 -2h-3v1h-1v4h2v-2h1v2h2v-4h-1v-1zM11 -1v1h-1v-1h1zM13 4h-2v7h2v-2h3v-1h-3v-1h3v-1h-3v-2zM2 4v1h3v5h-4v1h6v-6h-1v-1h-4z" />
    <glyph glyph-name="glyph1187" unicode="&#xac44;" 
d="M8 -2v1h1v1h1v3h2v-3h1v-1h1v-1h-2v1h-2v-1h-2zM2 2v1h5v-3h-3v-1h3v-1h-4v1h-1v2h3v1h-3zM13 4h-2v7h2v-2h3v-1h-3v-1h3v-1h-3v-2zM2 4v1h3v5h-4v1h6v-6h-1v-1h-4z" />
    <glyph glyph-name="glyph1188" unicode="&#xac45;" 
d="M2 2v1h5v-3h-3v-1h3v-1h-4v1h-1v2h3v1h-3zM13 -2h-5v5h5v-1h-3v-1h3v-1h-3v-1h3v-1zM13 4h-2v7h2v-2h3v-1h-3v-1h3v-1h-3v-2zM2 4v1h3v5h-4v1h6v-6h-1v-1h-4z" />
    <glyph glyph-name="glyph1189" unicode="&#xac46;" 
d="M2 2v1h11v-1h-1v-3h1v-1h-10v1h-1v2h3v1h-3zM4 -1h3v1h-3v-1zM10 -1v3h-1v-3h1zM13 4h-2v7h2v-2h3v-1h-3v-1h3v-1h-3v-2zM2 4v1h3v5h-4v1h6v-6h-1v-1h-4z" />
    <glyph glyph-name="glyph1190" unicode="&#xac47;" 
d="M2 2v1h5v-1h2v1h2v-1h2v-1h-1v-1h1v-1h-1v-1h-4v1h-1v-1h-4v1h-1v2h3v1h-3zM9 -1h2v1h-2v-1zM4 -1h3v1h1v1h-1v-1h-3v-1zM13 4h-2v7h2v-2h3v-1h-3v-1h3v-1h-3v-2zM2 4v1h3v5h-4v1h6v-6h-1v-1h-4z" />
    <glyph glyph-name="glyph1191" unicode="&#xac48;" 
d="M12 -2h-9v1h-1v4h11v-4h-1v-1zM4 -1h7v3h-7v-3zM13 4h-2v7h2v-2h3v-1h-3v-1h3v-1h-3v-2zM2 4v1h3v5h-4v1h6v-6h-1v-1h-4z" />
    <glyph glyph-name="glyph1192" unicode="&#xac49;" 
d="M12 -2h-9v1h-1v4h2v-2h7v2h2v-4h-1v-1zM4 -1h7v1h-7v-1zM13 4h-2v7h2v-2h3v-1h-3v-1h3v-1h-3v-2zM2 4v1h3v5h-4v1h6v-6h-1v-1h-4z" />
    <glyph glyph-name="glyph1193" unicode="&#xac4a;" 
d="M8 -2v1h1v1h1v3h2v-3h1v-1h1v-1h-2v1h-2v-1h-2zM6 -2h-3v1h-1v4h2v-2h1v2h2v-4h-1v-1zM5 -1v1h-1v-1h1zM13 4h-2v7h2v-2h3v-1h-3v-1h3v-1h-3v-2zM2 4v1h3v5h-4v1h6v-6h-1v-1h-4z" />
    <glyph glyph-name="glyph1194" unicode="&#xac4b;" 
d="M1 -2v1h3v1h1v1h1v2h2v-2h1v-1h1v-1h3v-1h-4v1h-1v1h-2v-1h-1v-1h-4zM13 4h-2v7h2v-2h3v-1h-3v-1h3v-1h-3v-2zM2 4v1h3v5h-4v1h6v-6h-1v-1h-4z" />
    <glyph glyph-name="glyph1195" unicode="&#xac4c;" 
d="M2 -2v1h1v1h1v3h2v-3h1v-1h2v1h1v3h2v-3h1v-1h1v-1h-2v1h-2v-1h-4v1h-2v-1h-2zM13 4h-2v7h2v-2h3v-1h-3v-1h3v-1h-3v-2zM2 4v1h3v5h-4v1h6v-6h-1v-1h-4z" />
    <glyph glyph-name="glyph1196" unicode="&#xac4d;" 
d="M11 -2h-7v1h-2v3h2v1h7v-1h2v-3h-2v-1zM5 -1h5v1h1v1h-1v1h-5v-1h-1v-1h1v-1zM13 4h-2v7h2v-2h3v-1h-3v-1h3v-1h-3v-2zM2 4v1h3v5h-4v1h6v-6h-1v-1h-4z" />
    <glyph glyph-name="glyph1197" unicode="&#xac4e;" 
d="M1 -2v1h3v1h1v1h1v1h-5v1h12v-1h-5v-1h1v-1h1v-1h3v-1h-4v1h-1v1h-2v-1h-1v-1h-4zM13 4h-2v7h2v-2h3v-1h-3v-1h3v-1h-3v-2zM2 4v1h3v5h-4v1h6v-6h-1v-1h-4z" />
    <glyph glyph-name="glyph1198" unicode="&#xac4f;" 
d="M1 -2v1h3v1h1v1h1v1h-5v1h5v1h2v-1h5v-1h-5v-1h1v-1h1v-1h3v-1h-4v1h-1v1h-2v-1h-1v-1h-4zM13 4h-2v7h2v-2h3v-1h-3v-1h3v-1h-3v-2zM2 4v1h3v5h-4v1h6v-6h-1v-1h-4z" />
    <glyph glyph-name="glyph1199" unicode="&#xac50;" 
d="M2 0v1h9v1h-9v1h11v-4h-1v-1h-1v2h-9zM13 4h-2v7h2v-2h3v-1h-3v-1h3v-1h-3v-2zM2 4v1h3v5h-4v1h6v-6h-1v-1h-4z" />
    <glyph glyph-name="glyph1200" unicode="&#xac51;" 
d="M13 -2h-10v1h-1v4h11v-1h-9v-1h9v-1h-9v-1h9v-1zM13 4h-2v7h2v-2h3v-1h-3v-1h3v-1h-3v-2zM2 4v1h3v5h-4v1h6v-6h-1v-1h-4z" />
    <glyph glyph-name="glyph1201" unicode="&#xac52;" 
d="M2 -2v1h2v3h-2v1h11v-1h-2v-3h2v-1h-11zM6 -1h3v3h-3v-3zM13 4h-2v7h2v-2h3v-1h-3v-1h3v-1h-3v-2zM2 4v1h3v5h-4v1h6v-6h-1v-1h-4z" />
    <glyph glyph-name="glyph1202" unicode="&#xac53;" 
d="M2 2v1h4v1h3v-1h4v-1h-1v-1h1v-2h-1v-1h-9v1h-1v2h1v1h-1zM4 -1h7v2h-7v-2zM13 4h-2v7h2v-2h3v-1h-3v-1h3v-1h-3v-2zM2 4v1h3v5h-4v1h6v-6h-1v-1h-4z" />
    <glyph glyph-name="glyph1203" unicode="&#xac54;" 
d="M15 -2h-2v4h-1v-4h-2v13h2v-4h1v4h2v-13zM13 3v3h-1v-3h1zM2 -1v1h2v1h1v8h-4v1h6v-9h-1v-1h-1v-1h-3z" />
    <glyph glyph-name="glyph1204" unicode="&#xac55;" 
d="M2 2v1h13v-4h-1v-1h-1v4h-11zM15 4h-2v2h-1v-2h-2v7h2v-2h1v2h2v-7zM13 7v1h-1v-1h1zM2 4v1h3v5h-4v1h6v-6h-1v-1h-4z" />
    <glyph glyph-name="glyph1205" unicode="&#xac56;" 
d="M9 2v1h6v-4h-1v-1h-1v4h-4zM2 2v1h6v-4h-1v-1h-1v4h-4zM15 4h-2v2h-1v-2h-2v7h2v-2h1v2h2v-7zM13 7v1h-1v-1h1zM2 4v1h3v5h-4v1h6v-6h-1v-1h-4z" />
    <glyph glyph-name="glyph1206" unicode="&#xac57;" 
d="M9 -2v1h1v1h1v3h2v-3h1v-1h1v-1h-2v1h-2v-1h-2zM2 2v1h6v-4h-1v-1h-1v4h-4zM15 4h-2v2h-1v-2h-2v7h2v-2h1v2h2v-7zM13 7v1h-1v-1h1zM2 4v1h3v5h-4v1h6v-6h-1v-1h-4z" />
    <glyph glyph-name="glyph1207" unicode="&#xac58;" 
d="M15 -2h-12v1h-1v4h2v-4h11v-1zM15 4h-2v2h-1v-2h-2v7h2v-2h1v2h2v-7zM13 7v1h-1v-1h1zM2 4v1h3v5h-4v1h6v-6h-1v-1h-4z" />
    <glyph glyph-name="glyph1208" unicode="&#xac59;" 
d="M9 -2v1h1v1h1v2h-2v1h6v-1h-2v-2h1v-1h1v-1h-2v1h-2v-1h-2zM8 -2h-5v1h-1v4h2v-4h4v-1zM15 4h-2v2h-1v-2h-2v7h2v-2h1v2h2v-7zM13 7v1h-1v-1h1zM2 4v1h3v5h-4v1h6v-6h-1v-1h-4z" />
    <glyph glyph-name="glyph1209" unicode="&#xac5a;" 
d="M8 1v1h2v1h3v-1h2v-1h-1v-1h1v-1h-1v-1h-5v1h-1v-1h-5v1h-1v4h2v-4h4v1h1v1h-1zM10 -1h3v1h-3v-1zM15 4h-2v2h-1v-2h-2v7h2v-2h1v2h2v-7zM13 7v1h-1v-1h1zM2 4v1h3v5h-4v1h6v-6h-1v-1h-4z" />
    <glyph glyph-name="glyph1210" unicode="&#xac5b;" 
d="M15 -2h-12v1h-1v4h13v-1h-11v-3h11v-1zM15 4h-2v2h-1v-2h-2v7h2v-2h1v2h2v-7zM13 7v1h-1v-1h1zM2 4v1h3v5h-4v1h6v-6h-1v-1h-4z" />
    <glyph glyph-name="glyph1211" unicode="&#xac5c;" 
d="M2 2v1h13v-3h-11v-1h11v-1h-12v1h-1v2h11v1h-11zM15 4h-2v2h-1v-2h-2v7h2v-2h1v2h2v-7zM13 7v1h-1v-1h1zM2 4v1h3v5h-4v1h6v-6h-1v-1h-4z" />
    <glyph glyph-name="glyph1212" unicode="&#xac5d;" 
d="M9 2v1h6v-4h-1v-1h-1v4h-4zM2 2v1h6v-3h-4v-1h4v-1h-5v1h-1v2h4v1h-4zM15 4h-2v2h-1v-2h-2v7h2v-2h1v2h2v-7zM13 7v1h-1v-1h1zM2 4v1h3v5h-4v1h6v-6h-1v-1h-4z" />
    <glyph glyph-name="glyph1213" unicode="&#xac5e;" 
d="M2 2v1h6v-3h-4v-1h4v-1h-5v1h-1v2h4v1h-4zM14 -2h-4v1h-1v4h6v-4h-1v-1zM11 -1h2v3h-2v-3zM15 4h-2v2h-1v-2h-2v7h2v-2h1v2h2v-7zM13 7v1h-1v-1h1zM2 4v1h3v5h-4v1h6v-6h-1v-1h-4z" />
    <glyph glyph-name="glyph1214" unicode="&#xac5f;" 
d="M2 2v1h6v-3h-4v-1h4v-1h-5v1h-1v2h4v1h-4zM14 -2h-4v1h-1v4h2v-2h2v2h2v-4h-1v-1zM11 -1h2v1h-2v-1zM15 4h-2v2h-1v-2h-2v7h2v-2h1v2h2v-7zM13 7v1h-1v-1h1zM2 4v1h3v5h-4v1h6v-6h-1v-1h-4z" />
    <glyph glyph-name="glyph1215" unicode="&#xac60;" 
d="M9 -2v1h1v1h1v3h2v-3h1v-1h1v-1h-2v1h-2v-1h-2zM2 2v1h6v-3h-4v-1h4v-1h-5v1h-1v2h4v1h-4zM15 4h-2v2h-1v-2h-2v7h2v-2h1v2h2v-7zM13 7v1h-1v-1h1zM2 4v1h3v5h-4v1h6v-6h-1v-1h-4z" />
    <glyph glyph-name="glyph1216" unicode="&#xac61;" 
d="M2 2v1h6v-3h-4v-1h4v-1h-5v1h-1v2h4v1h-4zM15 -2h-6v5h6v-1h-4v-1h4v-1h-4v-1h4v-1zM15 4h-2v2h-1v-2h-2v7h2v-2h1v2h2v-7zM13 7v1h-1v-1h1zM2 4v1h3v5h-4v1h6v-6h-1v-1h-4z" />
    <glyph glyph-name="glyph1217" unicode="&#xac62;" 
d="M2 2v1h13v-1h-1v-3h1v-1h-12v1h-1v2h4v1h-4zM4 -1h5v3h-1v-2h-4v-1zM12 -1v3h-1v-3h1zM15 4h-2v2h-1v-2h-2v7h2v-2h1v2h2v-7zM13 7v1h-1v-1h1zM2 4v1h3v5h-4v1h6v-6h-1v-1h-4z" />
    <glyph glyph-name="glyph1218" unicode="&#xac63;" 
d="M2 2v1h6v-1h2v1h3v-1h2v-1h-1v-1h1v-1h-1v-1h-5v1h-1v-1h-5v1h-1v2h4v1h-4zM10 -1h3v1h-3v-1zM4 -1h4v1h1v1h-1v-1h-4v-1zM15 4h-2v2h-1v-2h-2v7h2v-2h1v2h2v-7zM13 7v1h-1v-1h1zM2 4v1h3v5h-4v1h6v-6h-1v-1h-4z" />
    <glyph glyph-name="glyph1219" unicode="&#xac64;" 
d="M14 -2h-11v1h-1v4h13v-4h-1v-1zM4 -1h9v3h-9v-3zM15 4h-2v2h-1v-2h-2v7h2v-2h1v2h2v-7zM13 7v1h-1v-1h1zM2 4v1h3v5h-4v1h6v-6h-1v-1h-4z" />
    <glyph glyph-name="glyph1220" unicode="&#xac65;" 
d="M14 -2h-11v1h-1v4h2v-2h9v2h2v-4h-1v-1zM4 -1h9v1h-9v-1zM15 4h-2v2h-1v-2h-2v7h2v-2h1v2h2v-7zM13 7v1h-1v-1h1zM2 4v1h3v5h-4v1h6v-6h-1v-1h-4z" />
    <glyph glyph-name="glyph1221" unicode="&#xac66;" 
d="M15 -2h-2v1h-2v-1h-3v1h2v1h1v3h2v-3h1v-1h1v-1zM7 -2h-4v1h-1v4h2v-2h2v2h2v-4h-1v-1zM4 -1h2v1h-2v-1zM15 4h-2v2h-1v-2h-2v7h2v-2h1v2h2v-7zM13 7v1h-1v-1h1zM2 4v1h3v5h-4v1h6v-6h-1v-1h-4z" />
    <glyph glyph-name="glyph1222" unicode="&#xac67;" 
d="M2 -2v1h3v1h1v1h1v2h3v-2h1v-1h1v-1h3v-1h-4v1h-1v1h-1v1h-1v-1h-1v-1h-1v-1h-4zM15 4h-2v2h-1v-2h-2v7h2v-2h1v2h2v-7zM13 7v1h-1v-1h1zM2 4v1h3v5h-4v1h6v-6h-1v-1h-4z" />
    <glyph glyph-name="glyph1223" unicode="&#xac68;" 
d="M9 -2v1h1v1h1v3h2v-3h1v-1h1v-1h-2v1h-2v-1h-2zM2 -2v1h1v1h1v3h2v-3h1v-1h1v-1h-2v1h-2v-1h-2zM15 4h-2v2h-1v-2h-2v7h2v-2h1v2h2v-7zM13 7v1h-1v-1h1zM2 4v1h3v5h-4v1h6v-6h-1v-1h-4z" />
    <glyph glyph-name="glyph1224" unicode="&#xac69;" 
d="M13 -2h-9v1h-2v3h2v1h9v-1h2v-3h-2v-1zM5 -1h7v1h1v1h-1v1h-7v-1h-1v-1h1v-1zM15 4h-2v2h-1v-2h-2v7h2v-2h1v2h2v-7zM13 7v1h-1v-1h1zM2 4v1h3v5h-4v1h6v-6h-1v-1h-4z" />
    <glyph glyph-name="glyph1225" unicode="&#xac6a;" 
d="M2 -2v1h3v1h1v1h1v1h-5v1h13v-1h-5v-1h1v-1h1v-1h3v-1h-4v1h-1v1h-1v1h-1v-1h-1v-1h-1v-1h-4zM15 4h-2v2h-1v-2h-2v7h2v-2h1v2h2v-7zM13 7v1h-1v-1h1zM2 4v1h3v5h-4v1h6v-6h-1v-1h-4z" />
    <glyph glyph-name="glyph1226" unicode="&#xac6b;" 
d="M2 -2v1h3v1h1v1h-4v1h5v1h3v-1h5v-1h-4v-1h1v-1h3v-1h-4v1h-1v1h-1v1h-1v-1h-1v-1h-1v-1h-4zM15 4h-2v2h-1v-2h-2v7h2v-2h1v2h2v-7zM13 7v1h-1v-1h1zM2 4v1h3v5h-4v1h6v-6h-1v-1h-4z" />
    <glyph glyph-name="glyph1227" unicode="&#xac6c;" 
d="M2 0v1h11v1h-11v1h13v-4h-1v-1h-1v2h-11zM15 4h-2v2h-1v-2h-2v7h2v-2h1v2h2v-7zM13 7v1h-1v-1h1zM2 4v1h3v5h-4v1h6v-6h-1v-1h-4z" />
    <glyph glyph-name="glyph1228" unicode="&#xac6d;" 
d="M15 -2h-12v1h-1v4h13v-1h-11v-1h11v-1h-11v-1h11v-1zM15 4h-2v2h-1v-2h-2v7h2v-2h1v2h2v-7zM13 7v1h-1v-1h1zM2 4v1h3v5h-4v1h6v-6h-1v-1h-4z" />
    <glyph glyph-name="glyph1229" unicode="&#xac6e;" 
d="M2 -2v1h2v3h-2v1h13v-1h-2v-3h2v-1h-13zM6 -1h5v3h-5v-3zM15 4h-2v2h-1v-2h-2v7h2v-2h1v2h2v-7zM13 7v1h-1v-1h1zM2 4v1h3v5h-4v1h6v-6h-1v-1h-4z" />
    <glyph glyph-name="glyph1230" unicode="&#xac6f;" 
d="M2 -1v1h1v1h-1v1h5v1h3v-1h5v-1h-1v-1h1v-1h-1v-1h-11v1h-1zM4 -1h9v1h-9v-1zM15 4h-2v2h-1v-2h-2v7h2v-2h1v2h2v-7zM13 7v1h-1v-1h1zM2 4v1h3v5h-4v1h6v-6h-1v-1h-4z" />
    <glyph glyph-name="glyph1231" unicode="&#xac70;" 
d="M9 4v1h3v6h2v-13h-2v6h-3zM2 -1v1h2v1h1v8h-4v1h6v-9h-1v-1h-1v-1h-3z" />
    <glyph glyph-name="glyph1232" unicode="&#xac71;" 
d="M2 2v1h12v-4h-1v-1h-1v4h-10zM9 7v1h3v3h2v-7h-2v3h-3zM2 4v1h3v5h-4v1h6v-6h-1v-1h-4z" />
    <glyph glyph-name="glyph1233" unicode="&#xac72;" 
d="M9 2v1h5v-4h-1v-1h-1v4h-3zM2 2v1h6v-4h-1v-1h-1v4h-4zM9 7v1h3v3h2v-7h-2v3h-3zM2 4v1h3v5h-4v1h6v-6h-1v-1h-4z" />
    <glyph glyph-name="glyph1234" unicode="&#xac73;" 
d="M9 -2v1h1v1h1v3h2v-3h1v-1h1v-1h-2v1h-2v-1h-2zM2 2v1h6v-4h-1v-1h-1v4h-4zM9 7v1h3v3h2v-7h-2v3h-3zM2 4v1h3v5h-4v1h6v-6h-1v-1h-4z" />
    <glyph glyph-name="glyph1235" unicode="&#xac74;" 
d="M14 -2h-11v1h-1v4h2v-4h10v-1zM9 7v1h3v3h2v-7h-2v3h-3zM2 4v1h3v5h-4v1h6v-6h-1v-1h-4z" />
    <glyph glyph-name="glyph1236" unicode="&#xac75;" 
d="M8 2v1h6v-1h-2v-2h1v-1h1v-1h-2v1h-2v-1h-7v1h-1v4h2v-4h5v1h1v2h-2zM9 7v1h3v3h2v-7h-2v3h-3zM2 4v1h3v5h-4v1h6v-6h-1v-1h-4z" />
    <glyph glyph-name="glyph1237" unicode="&#xac76;" 
d="M7 1v1h2v1h3v-1h2v-1h-1v-1h1v-1h-1v-1h-5v1h-1v-1h-4v1h-1v4h2v-4h3v1h1v1h-1zM9 -1h3v1h-3v-1zM9 7v1h3v3h2v-7h-2v3h-3zM2 4v1h3v5h-4v1h6v-6h-1v-1h-4z" />
    <glyph glyph-name="glyph1238" unicode="&#xac77;" 
d="M14 -2h-11v1h-1v4h12v-1h-10v-3h10v-1zM9 7v1h3v3h2v-7h-2v3h-3zM2 4v1h3v5h-4v1h6v-6h-1v-1h-4z" />
    <glyph glyph-name="glyph1239" unicode="&#xac78;" 
d="M2 2v1h12v-3h-10v-1h10v-1h-11v1h-1v2h10v1h-10zM9 7v1h3v3h2v-7h-2v3h-3zM2 4v1h3v5h-4v1h6v-6h-1v-1h-4z" />
    <glyph glyph-name="glyph1240" unicode="&#xac79;" 
d="M9 2v1h5v-4h-1v-1h-1v4h-3zM2 2v1h6v-3h-4v-1h4v-1h-5v1h-1v2h4v1h-4zM9 7v1h3v3h2v-7h-2v3h-3zM2 4v1h3v5h-4v1h6v-6h-1v-1h-4z" />
    <glyph glyph-name="glyph1241" unicode="&#xac7a;" 
d="M2 2v1h5v-3h-3v-1h3v-1h-4v1h-1v2h3v1h-3zM13 -2h-4v1h-1v4h6v-4h-1v-1zM10 -1h2v3h-2v-3zM9 7v1h3v3h2v-7h-2v3h-3zM2 4v1h3v5h-4v1h6v-6h-1v-1h-4z" />
    <glyph glyph-name="glyph1242" unicode="&#xac7b;" 
d="M2 2v1h5v-3h-3v-1h3v-1h-4v1h-1v2h3v1h-3zM13 -2h-4v1h-1v4h2v-2h2v2h2v-4h-1v-1zM10 -1h2v1h-2v-1zM9 7v1h3v3h2v-7h-2v3h-3zM2 4v1h3v5h-4v1h6v-6h-1v-1h-4z" />
    <glyph glyph-name="glyph1243" unicode="&#xac7c;" 
d="M9 -2v1h1v1h1v3h2v-3h1v-1h1v-1h-2v1h-2v-1h-2zM2 2v1h6v-3h-4v-1h4v-1h-5v1h-1v2h4v1h-4zM9 7v1h3v3h2v-7h-2v3h-3zM2 4v1h3v5h-4v1h6v-6h-1v-1h-4z" />
    <glyph glyph-name="glyph1244" unicode="&#xac7d;" 
d="M2 2v1h6v-3h-4v-1h4v-1h-5v1h-1v2h4v1h-4zM14 -2h-5v5h5v-1h-3v-1h3v-1h-3v-1h3v-1zM9 7v1h3v3h2v-7h-2v3h-3zM2 4v1h3v5h-4v1h6v-6h-1v-1h-4z" />
    <glyph glyph-name="glyph1245" unicode="&#xac7e;" 
d="M2 2v1h12v-1h-1v-3h1v-1h-11v1h-1v2h3v1h-3zM4 -1h4v3h-1v-2h-3v-1zM11 -1v3h-1v-3h1zM9 7v1h3v3h2v-7h-2v3h-3zM2 4v1h3v5h-4v1h6v-6h-1v-1h-4z" />
    <glyph glyph-name="glyph1246" unicode="&#xac7f;" 
d="M2 2v1h6v-1h2v1h2v-1h2v-1h-1v-1h1v-1h-1v-1h-4v1h-1v-1h-5v1h-1v2h4v1h-4zM10 -1h2v1h-2v-1zM4 -1h4v1h1v1h-1v-1h-4v-1zM9 7v1h3v3h2v-7h-2v3h-3zM2 4v1h3v5h-4v1h6v-6h-1v-1h-4z" />
    <glyph glyph-name="glyph1247" unicode="&#xac80;" 
d="M13 -2h-10v1h-1v4h12v-4h-1v-1zM4 -1h8v3h-8v-3zM9 7v1h3v3h2v-7h-2v3h-3zM2 4v1h3v5h-4v1h6v-6h-1v-1h-4z" />
    <glyph glyph-name="glyph1248" unicode="&#xac81;" 
d="M13 -2h-10v1h-1v4h2v-2h8v2h2v-4h-1v-1zM4 -1h8v1h-8v-1zM9 7v1h3v3h2v-7h-2v3h-3zM2 4v1h3v5h-4v1h6v-6h-1v-1h-4z" />
    <glyph glyph-name="glyph1249" unicode="&#xac82;" 
d="M9 -2v1h1v1h1v3h2v-3h1v-1h1v-1h-2v1h-2v-1h-2zM7 -2h-4v1h-1v4h2v-2h2v2h2v-4h-1v-1zM4 -1h2v1h-2v-1zM9 7v1h3v3h2v-7h-2v3h-3zM2 4v1h3v5h-4v1h6v-6h-1v-1h-4z" />
    <glyph glyph-name="glyph1250" unicode="&#xac83;" 
d="M2 -2v1h2v-1h-2zM14 -2h-2v1h2v-1zM12 -1h-3v1h-2v-1h-3v1h2v1h1v2h2v-2h1v-1h2v-1zM9 7v1h3v3h2v-7h-2v3h-3zM2 4v1h3v5h-4v1h6v-6h-1v-1h-4z" />
    <glyph glyph-name="glyph1251" unicode="&#xac84;" 
d="M9 -2v1h1v1h1v3h2v-3h1v-1h1v-1h-2v1h-2v-1h-2zM2 -2v1h1v1h1v3h2v-3h1v-1h1v-1h-2v1h-2v-1h-2zM9 7v1h3v3h2v-7h-2v3h-3zM2 4v1h3v5h-4v1h6v-6h-1v-1h-4z" />
    <glyph glyph-name="glyph1252" unicode="&#xac85;" 
d="M12 -2h-8v1h-2v3h2v1h8v-1h2v-3h-2v-1zM5 -1h6v1h1v1h-1v1h-6v-1h-1v-1h1v-1zM9 7v1h3v3h2v-7h-2v3h-3zM2 4v1h3v5h-4v1h6v-6h-1v-1h-4z" />
    <glyph glyph-name="glyph1253" unicode="&#xac86;" 
d="M2 -2v1h3v1h1v1h1v1h-5v1h12v-1h-5v-1h1v-1h1v-1h3v-1h-4v1h-1v1h-2v-1h-1v-1h-4zM9 7v1h3v3h2v-7h-2v3h-3zM2 4v1h3v5h-4v1h6v-6h-1v-1h-4z" />
    <glyph glyph-name="glyph1254" unicode="&#xac87;" 
d="M2 -2v1h3v1h1v1h-4v1h4v1h4v-1h4v-1h-4v-1h1v-1h3v-1h-4v1h-1v1h-2v-1h-1v-1h-4zM9 7v1h3v3h2v-7h-2v3h-3zM2 4v1h3v5h-4v1h6v-6h-1v-1h-4z" />
    <glyph glyph-name="glyph1255" unicode="&#xac88;" 
d="M2 0v1h10v1h-10v1h12v-4h-1v-1h-1v2h-10zM9 7v1h3v3h2v-7h-2v3h-3zM2 4v1h3v5h-4v1h6v-6h-1v-1h-4z" />
    <glyph glyph-name="glyph1256" unicode="&#xac89;" 
d="M14 -2h-11v1h-1v4h12v-1h-10v-1h9v-1h-9v-1h10v-1zM9 7v1h3v3h2v-7h-2v3h-3zM2 4v1h3v5h-4v1h6v-6h-1v-1h-4z" />
    <glyph glyph-name="glyph1257" unicode="&#xac8a;" 
d="M2 -2v1h2v3h-2v1h12v-1h-2v-3h2v-1h-12zM6 -1h4v3h-4v-3zM9 7v1h3v3h2v-7h-2v3h-3zM2 4v1h3v5h-4v1h6v-6h-1v-1h-4z" />
    <glyph glyph-name="glyph1258" unicode="&#xac8b;" 
d="M2 -1v1h1v1h-1v1h5v1h2v-1h5v-1h-1v-1h1v-1h-1v-1h-10v1h-1zM4 -1h8v1h-8v-1zM9 7v1h3v3h2v-7h-2v3h-3zM2 4v1h3v5h-4v1h6v-6h-1v-1h-4z" />
    <glyph glyph-name="glyph1259" unicode="&#xac8c;" 
d="M8 4v1h2v6h2v-13h-2v6h-2zM15 -2h-2v13h2v-13zM2 -1v1h2v1h1v8h-4v1h6v-9h-1v-1h-1v-1h-3z" />
    <glyph glyph-name="glyph1260" unicode="&#xac8d;" 
d="M2 2v1h13v-4h-1v-1h-1v4h-11zM8 7v1h2v3h2v-7h-2v3h-2zM15 4h-2v7h2v-7zM2 4v1h3v5h-4v1h6v-6h-1v-1h-4z" />
    <glyph glyph-name="glyph1261" unicode="&#xac8e;" 
d="M9 2v1h6v-4h-1v-1h-1v4h-4zM2 2v1h6v-4h-1v-1h-1v4h-4zM8 7v1h2v3h2v-7h-2v3h-2zM15 4h-2v7h2v-7zM2 4v1h3v5h-4v1h6v-6h-1v-1h-4z" />
    <glyph glyph-name="glyph1262" unicode="&#xac8f;" 
d="M9 -2v1h1v1h1v3h2v-3h1v-1h1v-1h-2v1h-2v-1h-2zM2 2v1h6v-4h-1v-1h-1v4h-4zM8 7v1h2v3h2v-7h-2v3h-2zM15 4h-2v7h2v-7zM2 4v1h3v5h-4v1h6v-6h-1v-1h-4z" />
    <glyph glyph-name="glyph1263" unicode="&#xac90;" 
d="M15 -2h-12v1h-1v4h2v-4h11v-1zM8 7v1h2v3h2v-7h-2v3h-2zM15 4h-2v7h2v-7zM2 4v1h3v5h-4v1h6v-6h-1v-1h-4z" />
    <glyph glyph-name="glyph1264" unicode="&#xac91;" 
d="M9 -2v1h1v1h1v2h-2v1h6v-1h-2v-2h1v-1h1v-1h-2v1h-2v-1h-2zM8 -2h-5v1h-1v4h2v-4h4v-1zM8 7v1h2v3h2v-7h-2v3h-2zM15 4h-2v7h2v-7zM2 4v1h3v5h-4v1h6v-6h-1v-1h-4z" />
    <glyph glyph-name="glyph1265" unicode="&#xac92;" 
d="M8 1v1h2v1h3v-1h2v-1h-1v-1h1v-1h-1v-1h-5v1h-1v-1h-5v1h-1v4h2v-4h4v1h1v1h-1zM10 -1h3v1h-3v-1zM8 7v1h2v3h2v-7h-2v3h-2zM15 4h-2v7h2v-7zM2 4v1h3v5h-4v1h6v-6h-1v-1h-4z" />
    <glyph glyph-name="glyph1266" unicode="&#xac93;" 
d="M15 -2h-12v1h-1v4h13v-1h-11v-3h11v-1zM8 7v1h2v3h2v-7h-2v3h-2zM15 4h-2v7h2v-7zM2 4v1h3v5h-4v1h6v-6h-1v-1h-4z" />
    <glyph glyph-name="glyph1267" unicode="&#xac94;" 
d="M2 2v1h13v-3h-11v-1h11v-1h-12v1h-1v2h11v1h-11zM8 7v1h2v3h2v-7h-2v3h-2zM15 4h-2v7h2v-7zM2 4v1h3v5h-4v1h6v-6h-1v-1h-4z" />
    <glyph glyph-name="glyph1268" unicode="&#xac95;" 
d="M9 2v1h6v-4h-1v-1h-1v4h-4zM2 2v1h6v-3h-4v-1h4v-1h-5v1h-1v2h4v1h-4zM8 7v1h2v3h2v-7h-2v3h-2zM15 4h-2v7h2v-7zM2 4v1h3v5h-4v1h6v-6h-1v-1h-4z" />
    <glyph glyph-name="glyph1269" unicode="&#xac96;" 
d="M2 2v1h6v-3h-4v-1h4v-1h-5v1h-1v2h4v1h-4zM14 -2h-4v1h-1v4h6v-4h-1v-1zM11 -1h2v3h-2v-3zM8 7v1h2v3h2v-7h-2v3h-2zM15 4h-2v7h2v-7zM2 4v1h3v5h-4v1h6v-6h-1v-1h-4z" />
    <glyph glyph-name="glyph1270" unicode="&#xac97;" 
d="M2 2v1h6v-3h-4v-1h4v-1h-5v1h-1v2h4v1h-4zM14 -2h-4v1h-1v4h2v-2h2v2h2v-4h-1v-1zM11 -1h2v1h-2v-1zM8 7v1h2v3h2v-7h-2v3h-2zM15 4h-2v7h2v-7zM2 4v1h3v5h-4v1h6v-6h-1v-1h-4z" />
    <glyph glyph-name="glyph1271" unicode="&#xac98;" 
d="M9 -2v1h1v1h1v3h2v-3h1v-1h1v-1h-2v1h-2v-1h-2zM2 2v1h6v-3h-4v-1h4v-1h-5v1h-1v2h4v1h-4zM8 7v1h2v3h2v-7h-2v3h-2zM15 4h-2v7h2v-7zM2 4v1h3v5h-4v1h6v-6h-1v-1h-4z" />
    <glyph glyph-name="glyph1272" unicode="&#xac99;" 
d="M2 2v1h6v-3h-4v-1h4v-1h-5v1h-1v2h4v1h-4zM15 -2h-6v5h6v-1h-4v-1h4v-1h-4v-1h4v-1zM8 7v1h2v3h2v-7h-2v3h-2zM15 4h-2v7h2v-7zM2 4v1h3v5h-4v1h6v-6h-1v-1h-4z" />
    <glyph glyph-name="glyph1273" unicode="&#xac9a;" 
d="M2 2v1h13v-1h-1v-3h1v-1h-12v1h-1v2h4v1h-4zM4 -1h5v3h-1v-2h-4v-1zM12 -1v3h-1v-3h1zM8 7v1h2v3h2v-7h-2v3h-2zM15 4h-2v7h2v-7zM2 4v1h3v5h-4v1h6v-6h-1v-1h-4z" />
    <glyph glyph-name="glyph1274" unicode="&#xac9b;" 
d="M2 2v1h6v-1h2v1h3v-1h2v-1h-1v-1h1v-1h-1v-1h-5v1h-1v-1h-5v1h-1v2h4v1h-4zM10 -1h3v1h-3v-1zM4 -1h4v1h1v1h-1v-1h-4v-1zM8 7v1h2v3h2v-7h-2v3h-2zM15 4h-2v7h2v-7zM2 4v1h3v5h-4v1h6v-6h-1v-1h-4z" />
    <glyph glyph-name="glyph1275" unicode="&#xac9c;" 
d="M14 -2h-11v1h-1v4h13v-4h-1v-1zM4 -1h9v3h-9v-3zM8 7v1h2v3h2v-7h-2v3h-2zM15 4h-2v7h2v-7zM2 4v1h3v5h-4v1h6v-6h-1v-1h-4z" />
    <glyph glyph-name="glyph1276" unicode="&#xac9d;" 
d="M14 -2h-11v1h-1v4h2v-2h9v2h2v-4h-1v-1zM4 -1h9v1h-9v-1zM8 7v1h2v3h2v-7h-2v3h-2zM15 4h-2v7h2v-7zM2 4v1h3v5h-4v1h6v-6h-1v-1h-4z" />
    <glyph glyph-name="glyph1277" unicode="&#xac9e;" 
d="M15 -2h-2v1h-2v-1h-3v1h2v1h1v3h2v-3h1v-1h1v-1zM7 -2h-4v1h-1v4h2v-2h2v2h2v-4h-1v-1zM4 -1h2v1h-2v-1zM8 7v1h2v3h2v-7h-2v3h-2zM15 4h-2v7h2v-7zM2 4v1h3v5h-4v1h6v-6h-1v-1h-4z" />
    <glyph glyph-name="glyph1278" unicode="&#xac9f;" 
d="M2 -2v1h3v1h1v1h1v2h3v-2h1v-1h1v-1h3v-1h-4v1h-1v1h-1v1h-1v-1h-1v-1h-1v-1h-4zM8 7v1h2v3h2v-7h-2v3h-2zM15 4h-2v7h2v-7zM2 4v1h3v5h-4v1h6v-6h-1v-1h-4z" />
    <glyph glyph-name="glyph1279" unicode="&#xaca0;" 
d="M9 -2v1h1v1h1v3h2v-3h1v-1h1v-1h-2v1h-2v-1h-2zM2 -2v1h1v1h1v3h2v-3h1v-1h1v-1h-2v1h-2v-1h-2zM8 7v1h2v3h2v-7h-2v3h-2zM15 4h-2v7h2v-7zM2 4v1h3v5h-4v1h6v-6h-1v-1h-4z" />
    <glyph glyph-name="glyph1280" unicode="&#xaca1;" 
d="M13 -2h-9v1h-2v3h2v1h9v-1h2v-3h-2v-1zM5 -1h7v1h1v1h-1v1h-7v-1h-1v-1h1v-1zM8 7v1h2v3h2v-7h-2v3h-2zM15 4h-2v7h2v-7zM2 4v1h3v5h-4v1h6v-6h-1v-1h-4z" />
    <glyph glyph-name="glyph1281" unicode="&#xaca2;" 
d="M2 -2v1h3v1h1v1h1v1h-5v1h13v-1h-5v-1h1v-1h1v-1h3v-1h-4v1h-1v1h-1v1h-1v-1h-1v-1h-1v-1h-4zM8 7v1h2v3h2v-7h-2v3h-2zM15 4h-2v7h2v-7zM2 4v1h3v5h-4v1h6v-6h-1v-1h-4z" />
    <glyph glyph-name="glyph1282" unicode="&#xaca3;" 
d="M2 -2v1h3v1h1v1h-4v1h5v1h3v-1h5v-1h-4v-1h1v-1h3v-1h-4v1h-1v1h-1v1h-1v-1h-1v-1h-1v-1h-4zM8 7v1h2v3h2v-7h-2v3h-2zM15 4h-2v7h2v-7zM2 4v1h3v5h-4v1h6v-6h-1v-1h-4z" />
    <glyph glyph-name="glyph1283" unicode="&#xaca4;" 
d="M2 0v1h11v1h-11v1h13v-4h-1v-1h-1v2h-11zM8 7v1h2v3h2v-7h-2v3h-2zM15 4h-2v7h2v-7zM2 4v1h3v5h-4v1h6v-6h-1v-1h-4z" />
    <glyph glyph-name="glyph1284" unicode="&#xaca5;" 
d="M15 -2h-12v1h-1v4h13v-1h-11v-1h11v-1h-11v-1h11v-1zM8 7v1h2v3h2v-7h-2v3h-2zM15 4h-2v7h2v-7zM2 4v1h3v5h-4v1h6v-6h-1v-1h-4z" />
    <glyph glyph-name="glyph1285" unicode="&#xaca6;" 
d="M2 -2v1h2v3h-2v1h13v-1h-2v-3h2v-1h-13zM6 -1h5v3h-5v-3zM8 7v1h2v3h2v-7h-2v3h-2zM15 4h-2v7h2v-7zM2 4v1h3v5h-4v1h6v-6h-1v-1h-4z" />
    <glyph glyph-name="glyph1286" unicode="&#xaca7;" 
d="M2 -1v1h1v1h-1v1h5v1h3v-1h5v-1h-1v-1h1v-1h-1v-1h-11v1h-1zM4 -1h9v1h-9v-1zM8 7v1h2v3h2v-7h-2v3h-2zM15 4h-2v7h2v-7zM2 4v1h3v5h-4v1h6v-6h-1v-1h-4z" />
    <glyph glyph-name="glyph1287" unicode="&#xaca8;" 
d="M9 2v1h3v3h-3v1h3v4h2v-13h-2v4h-3zM2 -1v1h2v1h1v8h-4v1h6v-9h-1v-1h-1v-1h-3z" />
    <glyph glyph-name="glyph1288" unicode="&#xaca9;" 
d="M2 2v1h12v-4h-1v-1h-1v4h-10zM9 6v1h3v1h-3v1h3v2h2v-7h-2v2h-3zM2 4v1h3v5h-4v1h6v-6h-1v-1h-4z" />
    <glyph glyph-name="glyph1289" unicode="&#xacaa;" 
d="M9 2v1h5v-4h-1v-1h-1v4h-3zM2 2v1h6v-4h-1v-1h-1v4h-4zM9 6v1h3v1h-3v1h3v2h2v-7h-2v2h-3zM2 4v1h3v5h-4v1h6v-6h-1v-1h-4z" />
    <glyph glyph-name="glyph1290" unicode="&#xacab;" 
d="M9 -2v1h1v1h1v3h2v-3h1v-1h1v-1h-2v1h-2v-1h-2zM2 2v1h6v-4h-1v-1h-1v4h-4zM9 6v1h3v1h-3v1h3v2h2v-7h-2v2h-3zM2 4v1h3v5h-4v1h6v-6h-1v-1h-4z" />
    <glyph glyph-name="glyph1291" unicode="&#xacac;" 
d="M14 -2h-11v1h-1v4h2v-4h10v-1zM9 6v1h3v1h-3v1h3v2h2v-7h-2v2h-3zM2 4v1h3v5h-4v1h6v-6h-1v-1h-4z" />
    <glyph glyph-name="glyph1292" unicode="&#xacad;" 
d="M8 2v1h6v-1h-2v-2h1v-1h1v-1h-2v1h-2v-1h-7v1h-1v4h2v-4h5v1h1v2h-2zM9 6v1h3v1h-3v1h3v2h2v-7h-2v2h-3zM2 4v1h3v5h-4v1h6v-6h-1v-1h-4z" />
    <glyph glyph-name="glyph1293" unicode="&#xacae;" 
d="M7 1v1h2v1h3v-1h2v-1h-1v-1h1v-1h-1v-1h-5v1h-1v-1h-4v1h-1v4h2v-4h3v1h1v1h-1zM9 -1h3v1h-3v-1zM9 6v1h3v1h-3v1h3v2h2v-7h-2v2h-3zM2 4v1h3v5h-4v1h6v-6h-1v-1h-4z" />
    <glyph glyph-name="glyph1294" unicode="&#xacaf;" 
d="M14 -2h-11v1h-1v4h12v-1h-10v-3h10v-1zM9 6v1h3v1h-3v1h3v2h2v-7h-2v2h-3zM2 4v1h3v5h-4v1h6v-6h-1v-1h-4z" />
    <glyph glyph-name="glyph1295" unicode="&#xacb0;" 
d="M2 2v1h12v-3h-10v-1h10v-1h-11v1h-1v2h10v1h-10zM9 6v1h3v1h-3v1h3v2h2v-7h-2v2h-3zM2 4v1h3v5h-4v1h6v-6h-1v-1h-4z" />
    <glyph glyph-name="glyph1296" unicode="&#xacb1;" 
d="M9 2v1h5v-4h-1v-1h-1v4h-3zM2 2v1h6v-3h-4v-1h4v-1h-5v1h-1v2h4v1h-4zM9 6v1h3v1h-3v1h3v2h2v-7h-2v2h-3zM2 4v1h3v5h-4v1h6v-6h-1v-1h-4z" />
    <glyph glyph-name="glyph1297" unicode="&#xacb2;" 
d="M2 2v1h5v-3h-3v-1h3v-1h-4v1h-1v2h3v1h-3zM13 -2h-4v1h-1v4h6v-4h-1v-1zM10 -1h2v3h-2v-3zM9 6v1h3v1h-3v1h3v2h2v-7h-2v2h-3zM2 4v1h3v5h-4v1h6v-6h-1v-1h-4z" />
    <glyph glyph-name="glyph1298" unicode="&#xacb3;" 
d="M2 2v1h5v-3h-3v-1h3v-1h-4v1h-1v2h3v1h-3zM13 -2h-4v1h-1v4h2v-2h2v2h2v-4h-1v-1zM10 -1h2v1h-2v-1zM9 6v1h3v1h-3v1h3v2h2v-7h-2v2h-3zM2 4v1h3v5h-4v1h6v-6h-1v-1h-4z" />
    <glyph glyph-name="glyph1299" unicode="&#xacb4;" 
d="M9 -2v1h1v1h1v3h2v-3h1v-1h1v-1h-2v1h-2v-1h-2zM2 2v1h6v-3h-4v-1h4v-1h-5v1h-1v2h4v1h-4zM9 6v1h3v1h-3v1h3v2h2v-7h-2v2h-3zM2 4v1h3v5h-4v1h6v-6h-1v-1h-4z" />
    <glyph glyph-name="glyph1300" unicode="&#xacb5;" 
d="M2 2v1h6v-3h-4v-1h4v-1h-5v1h-1v2h4v1h-4zM14 -2h-5v5h5v-1h-3v-1h3v-1h-3v-1h3v-1zM9 6v1h3v1h-3v1h3v2h2v-7h-2v2h-3zM2 4v1h3v5h-4v1h6v-6h-1v-1h-4z" />
    <glyph glyph-name="glyph1301" unicode="&#xacb6;" 
d="M2 2v1h12v-1h-1v-3h1v-1h-11v1h-1v2h3v1h-3zM4 -1h4v3h-1v-2h-3v-1zM11 -1v3h-1v-3h1zM9 6v1h3v1h-3v1h3v2h2v-7h-2v2h-3zM2 4v1h3v5h-4v1h6v-6h-1v-1h-4z" />
    <glyph glyph-name="glyph1302" unicode="&#xacb7;" 
d="M2 2v1h6v-1h2v1h2v-1h2v-1h-1v-1h1v-1h-1v-1h-4v1h-1v-1h-5v1h-1v2h4v1h-4zM10 -1h2v1h-2v-1zM4 -1h4v1h1v1h-1v-1h-4v-1zM9 6v1h3v1h-3v1h3v2h2v-7h-2v2h-3zM2 4v1h3v5h-4v1h6v-6h-1v-1h-4z" />
    <glyph glyph-name="glyph1303" unicode="&#xacb8;" 
d="M13 -2h-10v1h-1v4h12v-4h-1v-1zM4 -1h8v3h-8v-3zM9 6v1h3v1h-3v1h3v2h2v-7h-2v2h-3zM2 4v1h3v5h-4v1h6v-6h-1v-1h-4z" />
    <glyph glyph-name="glyph1304" unicode="&#xacb9;" 
d="M13 -2h-10v1h-1v4h2v-2h8v2h2v-4h-1v-1zM4 -1h8v1h-8v-1zM9 6v1h3v1h-3v1h3v2h2v-7h-2v2h-3zM2 4v1h3v5h-4v1h6v-6h-1v-1h-4z" />
    <glyph glyph-name="glyph1305" unicode="&#xacba;" 
d="M9 -2v1h1v1h1v3h2v-3h1v-1h1v-1h-2v1h-2v-1h-2zM7 -2h-4v1h-1v4h2v-2h2v2h2v-4h-1v-1zM4 -1h2v1h-2v-1zM9 6v1h3v1h-3v1h3v2h2v-7h-2v2h-3zM2 4v1h3v5h-4v1h6v-6h-1v-1h-4z" />
    <glyph glyph-name="glyph1306" unicode="&#xacbb;" 
d="M2 -2v1h2v-1h-2zM14 -2h-2v1h2v-1zM12 -1h-3v1h-2v-1h-3v1h2v1h1v2h2v-2h1v-1h2v-1zM9 6v1h3v1h-3v1h3v2h2v-7h-2v2h-3zM2 4v1h3v5h-4v1h6v-6h-1v-1h-4z" />
    <glyph glyph-name="glyph1307" unicode="&#xacbc;" 
d="M9 -2v1h1v1h1v3h2v-3h1v-1h1v-1h-2v1h-2v-1h-2zM2 -2v1h1v1h1v3h2v-3h1v-1h1v-1h-2v1h-2v-1h-2zM9 6v1h3v1h-3v1h3v2h2v-7h-2v2h-3zM2 4v1h3v5h-4v1h6v-6h-1v-1h-4z" />
    <glyph glyph-name="glyph1308" unicode="&#xacbd;" 
d="M12 -2h-8v1h-2v3h2v1h8v-1h2v-3h-2v-1zM5 -1h6v1h1v1h-1v1h-6v-1h-1v-1h1v-1zM9 6v1h3v1h-3v1h3v2h2v-7h-2v2h-3zM2 4v1h3v5h-4v1h6v-6h-1v-1h-4z" />
    <glyph glyph-name="glyph1309" unicode="&#xacbe;" 
d="M2 -2v1h3v1h1v1h1v1h-5v1h12v-1h-5v-1h1v-1h1v-1h3v-1h-4v1h-1v1h-2v-1h-1v-1h-4zM9 6v1h3v1h-3v1h3v2h2v-7h-2v2h-3zM2 4v1h3v5h-4v1h6v-6h-1v-1h-4z" />
    <glyph glyph-name="glyph1310" unicode="&#xacbf;" 
d="M2 -2v1h3v1h1v1h-4v1h4v1h4v-1h4v-1h-4v-1h1v-1h3v-1h-4v1h-1v1h-2v-1h-1v-1h-4zM9 6v1h3v1h-3v1h3v2h2v-7h-2v2h-3zM2 4v1h3v5h-4v1h6v-6h-1v-1h-4z" />
    <glyph glyph-name="glyph1311" unicode="&#xacc0;" 
d="M2 0v1h10v1h-10v1h12v-4h-1v-1h-1v2h-10zM9 6v1h3v1h-3v1h3v2h2v-7h-2v2h-3zM2 4v1h3v5h-4v1h6v-6h-1v-1h-4z" />
    <glyph glyph-name="glyph1312" unicode="&#xacc1;" 
d="M14 -2h-11v1h-1v4h12v-1h-10v-1h9v-1h-9v-1h10v-1zM9 6v1h3v1h-3v1h3v2h2v-7h-2v2h-3zM2 4v1h3v5h-4v1h6v-6h-1v-1h-4z" />
    <glyph glyph-name="glyph1313" unicode="&#xacc2;" 
d="M2 -2v1h2v3h-2v1h12v-1h-2v-3h2v-1h-12zM6 -1h4v3h-4v-3zM9 6v1h3v1h-3v1h3v2h2v-7h-2v2h-3zM2 4v1h3v5h-4v1h6v-6h-1v-1h-4z" />
    <glyph glyph-name="glyph1314" unicode="&#xacc3;" 
d="M2 -1v1h1v1h-1v1h5v1h2v-1h5v-1h-1v-1h1v-1h-1v-1h-10v1h-1zM4 -1h8v1h-8v-1zM9 6v1h3v1h-3v1h3v2h2v-7h-2v2h-3zM2 4v1h3v5h-4v1h6v-6h-1v-1h-4z" />
    <glyph glyph-name="glyph1315" unicode="&#xacc4;" 
d="M8 2v1h2v3h-2v1h2v4h2v-13h-2v4h-2zM15 -2h-2v13h2v-13zM2 -1v1h2v1h1v8h-4v1h6v-9h-1v-1h-1v-1h-3z" />
    <glyph glyph-name="glyph1316" unicode="&#xacc5;" 
d="M2 2v1h13v-4h-1v-1h-1v4h-11zM8 6v1h2v1h-2v1h2v2h2v-7h-2v2h-2zM15 4h-2v7h2v-7zM2 4v1h3v5h-4v1h6v-6h-1v-1h-4z" />
    <glyph glyph-name="glyph1317" unicode="&#xacc6;" 
d="M9 2v1h6v-4h-1v-1h-1v4h-4zM2 2v1h6v-4h-1v-1h-1v4h-4zM8 6v1h2v1h-2v1h2v2h2v-7h-2v2h-2zM15 4h-2v7h2v-7zM2 4v1h3v5h-4v1h6v-6h-1v-1h-4z" />
    <glyph glyph-name="glyph1318" unicode="&#xacc7;" 
d="M9 -2v1h1v1h1v3h2v-3h1v-1h1v-1h-2v1h-2v-1h-2zM2 2v1h6v-4h-1v-1h-1v4h-4zM8 6v1h2v1h-2v1h2v2h2v-7h-2v2h-2zM15 4h-2v7h2v-7zM2 4v1h3v5h-4v1h6v-6h-1v-1h-4z" />
    <glyph glyph-name="glyph1319" unicode="&#xacc8;" 
d="M15 -2h-12v1h-1v4h2v-4h11v-1zM8 6v1h2v1h-2v1h2v2h2v-7h-2v2h-2zM15 4h-2v7h2v-7zM2 4v1h3v5h-4v1h6v-6h-1v-1h-4z" />
    <glyph glyph-name="glyph1320" unicode="&#xacc9;" 
d="M9 -2v1h1v1h1v2h-2v1h6v-1h-2v-2h1v-1h1v-1h-2v1h-2v-1h-2zM8 -2h-5v1h-1v4h2v-4h4v-1zM8 6v1h2v1h-2v1h2v2h2v-7h-2v2h-2zM15 4h-2v7h2v-7zM2 4v1h3v5h-4v1h6v-6h-1v-1h-4z" />
    <glyph glyph-name="glyph1321" unicode="&#xacca;" 
d="M8 1v1h2v1h3v-1h2v-1h-1v-1h1v-1h-1v-1h-5v1h-1v-1h-5v1h-1v4h2v-4h4v1h1v1h-1zM10 -1h3v1h-3v-1zM8 6v1h2v1h-2v1h2v2h2v-7h-2v2h-2zM15 4h-2v7h2v-7zM2 4v1h3v5h-4v1h6v-6h-1v-1h-4z" />
    <glyph glyph-name="glyph1322" unicode="&#xaccb;" 
d="M15 -2h-12v1h-1v4h13v-1h-11v-3h11v-1zM8 6v1h2v1h-2v1h2v2h2v-7h-2v2h-2zM15 4h-2v7h2v-7zM2 4v1h3v5h-4v1h6v-6h-1v-1h-4z" />
    <glyph glyph-name="glyph1323" unicode="&#xaccc;" 
d="M2 2v1h13v-3h-11v-1h11v-1h-12v1h-1v2h11v1h-11zM8 6v1h2v1h-2v1h2v2h2v-7h-2v2h-2zM15 4h-2v7h2v-7zM2 4v1h3v5h-4v1h6v-6h-1v-1h-4z" />
    <glyph glyph-name="glyph1324" unicode="&#xaccd;" 
d="M9 2v1h6v-4h-1v-1h-1v4h-4zM2 2v1h6v-3h-4v-1h4v-1h-5v1h-1v2h4v1h-4zM8 6v1h2v1h-2v1h2v2h2v-7h-2v2h-2zM15 4h-2v7h2v-7zM2 4v1h3v5h-4v1h6v-6h-1v-1h-4z" />
    <glyph glyph-name="glyph1325" unicode="&#xacce;" 
d="M2 2v1h6v-3h-4v-1h4v-1h-5v1h-1v2h4v1h-4zM14 -2h-4v1h-1v4h6v-4h-1v-1zM11 -1h2v3h-2v-3zM8 6v1h2v1h-2v1h2v2h2v-7h-2v2h-2zM15 4h-2v7h2v-7zM2 4v1h3v5h-4v1h6v-6h-1v-1h-4z" />
    <glyph glyph-name="glyph1326" unicode="&#xaccf;" 
d="M2 2v1h6v-3h-4v-1h4v-1h-5v1h-1v2h4v1h-4zM14 -2h-4v1h-1v4h2v-2h2v2h2v-4h-1v-1zM11 -1h2v1h-2v-1zM8 6v1h2v1h-2v1h2v2h2v-7h-2v2h-2zM15 4h-2v7h2v-7zM2 4v1h3v5h-4v1h6v-6h-1v-1h-4z" />
    <glyph glyph-name="glyph1327" unicode="&#xacd0;" 
d="M9 -2v1h1v1h1v3h2v-3h1v-1h1v-1h-2v1h-2v-1h-2zM2 2v1h6v-3h-4v-1h4v-1h-5v1h-1v2h4v1h-4zM8 6v1h2v1h-2v1h2v2h2v-7h-2v2h-2zM15 4h-2v7h2v-7zM2 4v1h3v5h-4v1h6v-6h-1v-1h-4z" />
    <glyph glyph-name="glyph1328" unicode="&#xacd1;" 
d="M2 2v1h6v-3h-4v-1h4v-1h-5v1h-1v2h4v1h-4zM15 -2h-6v5h6v-1h-4v-1h4v-1h-4v-1h4v-1zM8 6v1h2v1h-2v1h2v2h2v-7h-2v2h-2zM15 4h-2v7h2v-7zM2 4v1h3v5h-4v1h6v-6h-1v-1h-4z" />
    <glyph glyph-name="glyph1329" unicode="&#xacd2;" 
d="M2 2v1h13v-1h-1v-3h1v-1h-12v1h-1v2h4v1h-4zM4 -1h5v3h-1v-2h-4v-1zM12 -1v3h-1v-3h1zM8 6v1h2v1h-2v1h2v2h2v-7h-2v2h-2zM15 4h-2v7h2v-7zM2 4v1h3v5h-4v1h6v-6h-1v-1h-4z" />
    <glyph glyph-name="glyph1330" unicode="&#xacd3;" 
d="M2 2v1h6v-1h2v1h3v-1h2v-1h-1v-1h1v-1h-1v-1h-5v1h-1v-1h-5v1h-1v2h4v1h-4zM10 -1h3v1h-3v-1zM4 -1h4v1h1v1h-1v-1h-4v-1zM8 6v1h2v1h-2v1h2v2h2v-7h-2v2h-2zM15 4h-2v7h2v-7zM2 4v1h3v5h-4v1h6v-6h-1v-1h-4z" />
    <glyph glyph-name="glyph1331" unicode="&#xacd4;" 
d="M14 -2h-11v1h-1v4h13v-4h-1v-1zM4 -1h9v3h-9v-3zM8 6v1h2v1h-2v1h2v2h2v-7h-2v2h-2zM15 4h-2v7h2v-7zM2 4v1h3v5h-4v1h6v-6h-1v-1h-4z" />
    <glyph glyph-name="glyph1332" unicode="&#xacd5;" 
d="M14 -2h-11v1h-1v4h2v-2h9v2h2v-4h-1v-1zM4 -1h9v1h-9v-1zM8 6v1h2v1h-2v1h2v2h2v-7h-2v2h-2zM15 4h-2v7h2v-7zM2 4v1h3v5h-4v1h6v-6h-1v-1h-4z" />
    <glyph glyph-name="glyph1333" unicode="&#xacd6;" 
d="M15 -2h-2v1h-2v-1h-3v1h2v1h1v3h2v-3h1v-1h1v-1zM7 -2h-4v1h-1v4h2v-2h2v2h2v-4h-1v-1zM4 -1h2v1h-2v-1zM8 6v1h2v1h-2v1h2v2h2v-7h-2v2h-2zM15 4h-2v7h2v-7zM2 4v1h3v5h-4v1h6v-6h-1v-1h-4z" />
    <glyph glyph-name="glyph1334" unicode="&#xacd7;" 
d="M2 -2v1h3v1h1v1h1v2h3v-2h1v-1h1v-1h3v-1h-4v1h-1v1h-1v1h-1v-1h-1v-1h-1v-1h-4zM8 6v1h2v1h-2v1h2v2h2v-7h-2v2h-2zM15 4h-2v7h2v-7zM2 4v1h3v5h-4v1h6v-6h-1v-1h-4z" />
    <glyph glyph-name="glyph1335" unicode="&#xacd8;" 
d="M9 -2v1h1v1h1v3h2v-3h1v-1h1v-1h-2v1h-2v-1h-2zM2 -2v1h1v1h1v3h2v-3h1v-1h1v-1h-2v1h-2v-1h-2zM8 6v1h2v1h-2v1h2v2h2v-7h-2v2h-2zM15 4h-2v7h2v-7zM2 4v1h3v5h-4v1h6v-6h-1v-1h-4z" />
    <glyph glyph-name="glyph1336" unicode="&#xacd9;" 
d="M13 -2h-9v1h-2v3h2v1h9v-1h2v-3h-2v-1zM5 -1h7v1h1v1h-1v1h-7v-1h-1v-1h1v-1zM8 6v1h2v1h-2v1h2v2h2v-7h-2v2h-2zM15 4h-2v7h2v-7zM2 4v1h3v5h-4v1h6v-6h-1v-1h-4z" />
    <glyph glyph-name="glyph1337" unicode="&#xacda;" 
d="M2 -2v1h3v1h1v1h1v1h-5v1h13v-1h-5v-1h1v-1h1v-1h3v-1h-4v1h-1v1h-1v1h-1v-1h-1v-1h-1v-1h-4zM8 6v1h2v1h-2v1h2v2h2v-7h-2v2h-2zM15 4h-2v7h2v-7zM2 4v1h3v5h-4v1h6v-6h-1v-1h-4z" />
    <glyph glyph-name="glyph1338" unicode="&#xacdb;" 
d="M2 -2v1h3v1h1v1h-4v1h5v1h3v-1h5v-1h-4v-1h1v-1h3v-1h-4v1h-1v1h-1v1h-1v-1h-1v-1h-1v-1h-4zM8 6v1h2v1h-2v1h2v2h2v-7h-2v2h-2zM15 4h-2v7h2v-7zM2 4v1h3v5h-4v1h6v-6h-1v-1h-4z" />
    <glyph glyph-name="glyph1339" unicode="&#xacdc;" 
d="M2 0v1h11v1h-11v1h13v-4h-1v-1h-1v2h-11zM8 6v1h2v1h-2v1h2v2h2v-7h-2v2h-2zM15 4h-2v7h2v-7zM2 4v1h3v5h-4v1h6v-6h-1v-1h-4z" />
    <glyph glyph-name="glyph1340" unicode="&#xacdd;" 
d="M15 -2h-12v1h-1v4h13v-1h-11v-1h11v-1h-11v-1h11v-1zM8 6v1h2v1h-2v1h2v2h2v-7h-2v2h-2zM15 4h-2v7h2v-7zM2 4v1h3v5h-4v1h6v-6h-1v-1h-4z" />
    <glyph glyph-name="glyph1341" unicode="&#xacde;" 
d="M2 -2v1h2v3h-2v1h13v-1h-2v-3h2v-1h-13zM6 -1h5v3h-5v-3zM8 6v1h2v1h-2v1h2v2h2v-7h-2v2h-2zM15 4h-2v7h2v-7zM2 4v1h3v5h-4v1h6v-6h-1v-1h-4z" />
    <glyph glyph-name="glyph1342" unicode="&#xacdf;" 
d="M2 -1v1h1v1h-1v1h5v1h3v-1h5v-1h-1v-1h1v-1h-1v-1h-11v1h-1zM4 -1h9v1h-9v-1zM8 6v1h2v1h-2v1h2v2h2v-7h-2v2h-2zM15 4h-2v7h2v-7zM2 4v1h3v5h-4v1h6v-6h-1v-1h-4z" />
    <glyph glyph-name="glyph1343" unicode="&#xace0;" 
d="M1 -1v1h6v5h2v-5h6v-1h-14zM11 3v1h1v5h-10v1h12v-6h-1v-1h-2z" />
    <glyph glyph-name="glyph1344" unicode="&#xace1;" 
d="M2 2v1h12v-4h-1v-1h-1v4h-10zM1 4v1h6v3h2v-3h6v-1h-14zM11 5v1h1v4h-10v1h12v-5h-1v-1h-2z" />
    <glyph glyph-name="glyph1345" unicode="&#xace2;" 
d="M2 2v1h12v-4h-1v-1h-1v4h-4v-3h-1v-1h-1v4h-4zM1 4v1h6v3h2v-3h6v-1h-14zM11 5v1h1v4h-10v1h12v-5h-1v-1h-2z" />
    <glyph glyph-name="glyph1346" unicode="&#xace3;" 
d="M2 2v1h6v-4h1v1h1v3h2v-3h1v-1h1v-1h-2v1h-2v-1h-2v1h-1v-1h-1v4h-4zM1 4v1h6v3h2v-3h6v-1h-14zM11 5v1h1v4h-10v1h12v-5h-1v-1h-2z" />
    <glyph glyph-name="glyph1347" unicode="&#xace4;" 
d="M14 -2h-11v1h-1v4h2v-4h10v-1zM1 4v1h6v3h2v-3h6v-1h-14zM11 5v1h1v4h-10v1h12v-5h-1v-1h-2z" />
    <glyph glyph-name="glyph1348" unicode="&#xace5;" 
d="M8 2v1h6v-1h-2v-2h1v-1h1v-1h-2v1h-2v-1h-7v1h-1v4h2v-4h5v1h1v2h-2zM1 4v1h6v3h2v-3h6v-1h-14zM11 5v1h1v4h-10v1h12v-5h-1v-1h-2z" />
    <glyph glyph-name="glyph1349" unicode="&#xace6;" 
d="M7 1v1h2v1h3v-1h2v-1h-1v-1h1v-1h-1v-1h-5v1h-1v-1h-4v1h-1v4h2v-4h3v1h1v1h-1zM9 -1h3v1h-3v-1zM1 4v1h6v3h2v-3h6v-1h-14zM11 5v1h1v4h-10v1h12v-5h-1v-1h-2z" />
    <glyph glyph-name="glyph1350" unicode="&#xace7;" 
d="M14 -2h-11v1h-1v4h12v-1h-10v-3h10v-1zM1 4v1h6v3h2v-3h6v-1h-14zM11 5v1h1v4h-10v1h12v-5h-1v-1h-2z" />
    <glyph glyph-name="glyph1351" unicode="&#xace8;" 
d="M2 2v1h12v-3h-10v-1h10v-1h-11v1h-1v2h10v1h-10zM1 4v1h6v3h2v-3h6v-1h-14zM11 5v1h1v4h-10v1h12v-5h-1v-1h-2z" />
    <glyph glyph-name="glyph1352" unicode="&#xace9;" 
d="M2 2v1h12v-4h-1v-1h-1v4h-4v-2h-4v-1h4v-1h-5v1h-1v2h4v1h-4zM1 4v1h6v3h2v-3h6v-1h-14zM11 5v1h1v4h-10v1h12v-5h-1v-1h-2z" />
    <glyph glyph-name="glyph1353" unicode="&#xacea;" 
d="M2 2v1h5v-3h-3v-1h3v-1h-4v1h-1v2h3v1h-3zM13 -2h-4v1h-1v4h6v-4h-1v-1zM10 -1h2v3h-2v-3zM1 4v1h6v3h2v-3h6v-1h-14zM11 5v1h1v4h-10v1h12v-5h-1v-1h-2z" />
    <glyph glyph-name="glyph1354" unicode="&#xaceb;" 
d="M2 2v1h5v-3h-3v-1h3v-1h-4v1h-1v2h3v1h-3zM13 -2h-4v1h-1v4h2v-2h2v2h2v-4h-1v-1zM10 -1h2v1h-2v-1zM1 4v1h6v3h2v-3h6v-1h-14zM11 5v1h1v4h-10v1h12v-5h-1v-1h-2z" />
    <glyph glyph-name="glyph1355" unicode="&#xacec;" 
d="M2 2v1h6v-3h-4v-1h5v1h1v3h2v-3h1v-1h1v-1h-2v1h-2v-1h-7v1h-1v2h4v1h-4zM1 4v1h6v3h2v-3h6v-1h-14zM11 5v1h1v4h-10v1h12v-5h-1v-1h-2z" />
    <glyph glyph-name="glyph1356" unicode="&#xaced;" 
d="M2 2v1h6v-3h-4v-1h4v-1h-5v1h-1v2h4v1h-4zM14 -2h-5v5h5v-1h-3v-1h3v-1h-3v-1h3v-1zM1 4v1h6v3h2v-3h6v-1h-14zM11 5v1h1v4h-10v1h12v-5h-1v-1h-2z" />
    <glyph glyph-name="glyph1357" unicode="&#xacee;" 
d="M2 2v1h12v-1h-1v-3h1v-1h-11v1h-1v2h3v1h-3zM4 -1h4v3h-1v-2h-3v-1zM11 -1v3h-1v-3h1zM1 4v1h6v3h2v-3h6v-1h-14zM11 5v1h1v4h-10v1h12v-5h-1v-1h-2z" />
    <glyph glyph-name="glyph1358" unicode="&#xacef;" 
d="M2 2v1h6v-1h2v1h2v-1h2v-1h-1v-1h1v-1h-1v-1h-4v1h-1v-1h-5v1h-1v2h4v1h-4zM10 -1h2v1h-2v-1zM4 -1h4v1h1v1h-1v-1h-4v-1zM1 4v1h6v3h2v-3h6v-1h-14zM11 5v1h1v4h-10v1h12v-5h-1v-1h-2z" />
    <glyph glyph-name="glyph1359" unicode="&#xacf0;" 
d="M13 -2h-10v1h-1v4h12v-4h-1v-1zM4 -1h8v3h-8v-3zM1 4v1h6v3h2v-3h6v-1h-14zM11 5v1h1v4h-10v1h12v-5h-1v-1h-2z" />
    <glyph glyph-name="glyph1360" unicode="&#xacf1;" 
d="M13 -2h-10v1h-1v4h2v-2h8v2h2v-4h-1v-1zM4 -1h8v1h-8v-1zM1 4v1h6v3h2v-3h6v-1h-14zM11 5v1h1v4h-10v1h12v-5h-1v-1h-2z" />
    <glyph glyph-name="glyph1361" unicode="&#xacf2;" 
d="M14 -2h-2v1h-2v-1h-2v1h1v1h1v3h2v-3h1v-1h1v-1zM7 -2h-4v1h-1v4h2v-2h2v2h2v-4h-1v-1zM4 -1h2v1h-2v-1zM1 4v1h6v3h2v-3h6v-1h-14zM11 5v1h1v4h-10v1h12v-5h-1v-1h-2z" />
    <glyph glyph-name="glyph1362" unicode="&#xacf3;" 
d="M2 -2v1h3v1h1v1h1v2h2v-2h1v-1h1v-1h3v-1h-4v1h-1v1h-2v-1h-1v-1h-4zM1 4v1h6v3h2v-3h6v-1h-14zM11 5v1h1v4h-10v1h12v-5h-1v-1h-2z" />
    <glyph glyph-name="glyph1363" unicode="&#xacf4;" 
d="M2 -2v1h1v1h1v3h2v-3h1v-1h2v1h1v3h2v-3h1v-1h1v-1h-2v1h-2v-1h-4v1h-2v-1h-2zM1 4v1h6v3h2v-3h6v-1h-14zM11 5v1h1v4h-10v1h12v-5h-1v-1h-2z" />
    <glyph glyph-name="glyph1364" unicode="&#xacf5;" 
d="M12 -2h-8v1h-2v3h2v1h8v-1h2v-3h-2v-1zM5 -1h6v1h1v1h-1v1h-6v-1h-1v-1h1v-1zM1 4v1h6v3h2v-3h6v-1h-14zM11 5v1h1v4h-10v1h12v-5h-1v-1h-2z" />
    <glyph glyph-name="glyph1365" unicode="&#xacf6;" 
d="M2 -2v1h3v1h1v1h1v1h-5v1h12v-1h-5v-1h1v-1h1v-1h3v-1h-4v1h-1v1h-2v-1h-1v-1h-4zM1 4v1h6v3h2v-3h6v-1h-14zM11 5v1h1v4h-10v1h12v-5h-1v-1h-2z" />
    <glyph glyph-name="glyph1366" unicode="&#xacf7;" 
d="M2 -2v1h3v1h1v1h-4v1h5v1h2v-1h5v-1h-4v-1h1v-1h3v-1h-4v1h-1v1h-2v-1h-1v-1h-4zM1 4v1h6v3h2v-3h6v-1h-14zM11 5v1h1v4h-10v1h12v-5h-1v-1h-2z" />
    <glyph glyph-name="glyph1367" unicode="&#xacf8;" 
d="M2 0v1h10v1h-10v1h12v-4h-1v-1h-1v2h-10zM1 4v1h6v3h2v-3h6v-1h-14zM11 5v1h1v4h-10v1h12v-5h-1v-1h-2z" />
    <glyph glyph-name="glyph1368" unicode="&#xacf9;" 
d="M14 -2h-11v1h-1v4h12v-1h-10v-1h10v-1h-10v-1h10v-1zM1 4v1h6v3h2v-3h6v-1h-14zM11 5v1h1v4h-10v1h12v-5h-1v-1h-2z" />
    <glyph glyph-name="glyph1369" unicode="&#xacfa;" 
d="M2 -2v1h2v3h-2v1h12v-1h-2v-3h2v-1h-12zM6 -1h4v3h-4v-3zM1 4v1h6v3h2v-3h6v-1h-14zM11 5v1h1v4h-10v1h12v-5h-1v-1h-2z" />
    <glyph glyph-name="glyph1370" unicode="&#xacfb;" 
d="M2 -1v1h1v1h-1v1h5v1h2v-1h5v-1h-1v-1h1v-1h-1v-1h-10v1h-1zM4 -1h8v1h-8v-1zM1 4v1h6v3h2v-3h6v-1h-14zM11 5v1h1v4h-10v1h12v-5h-1v-1h-2z" />
    <glyph glyph-name="glyph1371" unicode="&#xacfc;" 
d="M1 -1v1h3v5h2v-5h5v11h2v-6h3v-1h-3v-6h-2v1h-10zM6 3v1h1v5h-6v1h8v-6h-1v-1h-2z" />
    <glyph glyph-name="glyph1372" unicode="&#xacfd;" 
d="M2 2v1h11v-4h-1v-1h-1v4h-9zM1 4v1h3v2h2v-2h5v6h2v-3h3v-1h-3v-4h-2v1h-10zM6 6v1h1v3h-6v1h8v-4h-1v-1h-2z" />
    <glyph glyph-name="glyph1373" unicode="&#xacfe;" 
d="M2 2v1h11v-4h-1v-1h-1v4h-3v-3h-1v-1h-1v4h-4zM1 4v1h3v2h2v-2h5v6h2v-3h3v-1h-3v-4h-2v1h-10zM6 6v1h1v3h-6v1h8v-4h-1v-1h-2z" />
    <glyph glyph-name="glyph1374" unicode="&#xacff;" 
d="M9 -2v1h1v1h1v3h2v-3h1v-1h1v-1h-2v1h-2v-1h-2zM2 2v1h6v-4h-1v-1h-1v4h-4zM1 4v1h3v2h2v-2h5v6h2v-3h3v-1h-3v-4h-2v1h-10zM6 6v1h1v3h-6v1h8v-4h-1v-1h-2z" />
    <glyph glyph-name="glyph1375" unicode="&#xad00;" 
d="M13 -2h-10v1h-1v4h2v-4h9v-1zM1 4v1h3v2h2v-2h5v6h2v-3h3v-1h-3v-4h-2v1h-10zM6 6v1h1v3h-6v1h8v-4h-1v-1h-2z" />
    <glyph glyph-name="glyph1376" unicode="&#xad01;" 
d="M7 2v1h6v-1h-2v-2h1v-1h1v-1h-2v1h-2v-1h-6v1h-1v4h2v-4h4v1h1v2h-2zM1 4v1h3v2h2v-2h5v6h2v-3h3v-1h-3v-4h-2v1h-10zM6 6v1h1v3h-6v1h8v-4h-1v-1h-2z" />
    <glyph glyph-name="glyph1377" unicode="&#xad02;" 
d="M7 1v1h2v1h2v-1h2v-1h-1v-1h1v-1h-1v-1h-4v1h-1v-1h-4v1h-1v4h2v-4h3v1h1v1h-1zM9 -1h2v1h-2v-1zM1 4v1h3v2h2v-2h5v6h2v-3h3v-1h-3v-4h-2v1h-10zM6 6v1h1v3h-6v1h8v-4h-1v-1h-2z" />
    <glyph glyph-name="glyph1378" unicode="&#xad03;" 
d="M13 -2h-10v1h-1v4h11v-1h-9v-3h9v-1zM1 4v1h3v2h2v-2h5v6h2v-3h3v-1h-3v-4h-2v1h-10zM6 6v1h1v3h-6v1h8v-4h-1v-1h-2z" />
    <glyph glyph-name="glyph1379" unicode="&#xad04;" 
d="M2 2v1h11v-3h-9v-1h9v-1h-10v1h-1v2h9v1h-9zM1 4v1h3v2h2v-2h5v6h2v-3h3v-1h-3v-4h-2v1h-10zM6 6v1h1v3h-6v1h8v-4h-1v-1h-2z" />
    <glyph glyph-name="glyph1380" unicode="&#xad05;" 
d="M8 2v1h5v-4h-1v-1h-1v4h-3zM2 2v1h5v-3h-3v-1h3v-1h-4v1h-1v2h3v1h-3zM1 4v1h3v2h2v-2h5v6h2v-3h3v-1h-3v-4h-2v1h-10zM6 6v1h1v3h-6v1h8v-4h-1v-1h-2z" />
    <glyph glyph-name="glyph1381" unicode="&#xad06;" 
d="M2 2v1h5v-3h-3v-1h3v-1h-4v1h-1v2h3v1h-3zM12 -2h-3v1h-1v4h5v-4h-1v-1zM11 -1v3h-1v-3h1zM1 4v1h3v2h2v-2h5v6h2v-3h3v-1h-3v-4h-2v1h-10zM6 6v1h1v3h-6v1h8v-4h-1v-1h-2z" />
    <glyph glyph-name="glyph1382" unicode="&#xad07;" 
d="M2 2v1h5v-3h-3v-1h3v-1h-4v1h-1v2h3v1h-3zM12 -2h-3v1h-1v4h2v-2h1v2h2v-4h-1v-1zM11 -1v1h-1v-1h1zM1 4v1h3v2h2v-2h5v6h2v-3h3v-1h-3v-4h-2v1h-10zM6 6v1h1v3h-6v1h8v-4h-1v-1h-2z" />
    <glyph glyph-name="glyph1383" unicode="&#xad08;" 
d="M8 -2v1h1v1h1v3h2v-3h1v-1h1v-1h-2v1h-2v-1h-2zM2 2v1h5v-3h-3v-1h3v-1h-4v1h-1v2h3v1h-3zM1 4v1h3v2h2v-2h5v6h2v-3h3v-1h-3v-4h-2v1h-10zM6 6v1h1v3h-6v1h8v-4h-1v-1h-2z" />
    <glyph glyph-name="glyph1384" unicode="&#xad09;" 
d="M2 2v1h5v-3h-3v-1h3v-1h-4v1h-1v2h3v1h-3zM13 -2h-5v5h5v-1h-3v-1h3v-1h-3v-1h3v-1zM1 4v1h3v2h2v-2h5v6h2v-3h3v-1h-3v-4h-2v1h-10zM6 6v1h1v3h-6v1h8v-4h-1v-1h-2z" />
    <glyph glyph-name="glyph1385" unicode="&#xad0a;" 
d="M2 2v1h11v-1h-1v-3h1v-1h-10v1h-1v2h3v1h-3zM4 -1h3v1h-3v-1zM10 -1v3h-1v-3h1zM1 4v1h3v2h2v-2h5v6h2v-3h3v-1h-3v-4h-2v1h-10zM6 6v1h1v3h-6v1h8v-4h-1v-1h-2z" />
    <glyph glyph-name="glyph1386" unicode="&#xad0b;" 
d="M2 2v1h5v-1h2v1h2v-1h2v-1h-1v-1h1v-1h-1v-1h-4v1h-1v-1h-4v1h-1v2h3v1h-3zM9 -1h2v1h-2v-1zM4 -1h3v1h1v1h-1v-1h-3v-1zM1 4v1h3v2h2v-2h5v6h2v-3h3v-1h-3v-4h-2v1h-10zM6 6v1h1v3h-6v1h8v-4h-1v-1h-2z" />
    <glyph glyph-name="glyph1387" unicode="&#xad0c;" 
d="M12 -2h-9v1h-1v4h11v-4h-1v-1zM4 -1h7v3h-7v-3zM1 4v1h3v2h2v-2h5v6h2v-3h3v-1h-3v-4h-2v1h-10zM6 6v1h1v3h-6v1h8v-4h-1v-1h-2z" />
    <glyph glyph-name="glyph1388" unicode="&#xad0d;" 
d="M12 -2h-9v1h-1v4h2v-2h7v2h2v-4h-1v-1zM4 -1h7v1h-7v-1zM1 4v1h3v2h2v-2h5v6h2v-3h3v-1h-3v-4h-2v1h-10zM6 6v1h1v3h-6v1h8v-4h-1v-1h-2z" />
    <glyph glyph-name="glyph1389" unicode="&#xad0e;" 
d="M8 -2v1h1v1h1v3h2v-3h1v-1h1v-1h-2v1h-2v-1h-2zM6 -2h-3v1h-1v4h2v-2h1v2h2v-4h-1v-1zM5 -1v1h-1v-1h1zM1 4v1h3v2h2v-2h5v6h2v-3h3v-1h-3v-4h-2v1h-10zM6 6v1h1v3h-6v1h8v-4h-1v-1h-2z" />
    <glyph glyph-name="glyph1390" unicode="&#xad0f;" 
d="M1 -2v1h3v1h1v1h1v2h2v-2h1v-1h1v-1h3v-1h-4v1h-1v1h-2v-1h-1v-1h-4zM1 4v1h3v2h2v-2h5v6h2v-3h3v-1h-3v-4h-2v1h-10zM6 6v1h1v3h-6v1h8v-4h-1v-1h-2z" />
    <glyph glyph-name="glyph1391" unicode="&#xad10;" 
d="M2 -2v1h1v1h1v3h2v-3h1v-1h2v1h1v3h2v-3h1v-1h1v-1h-2v1h-2v-1h-4v1h-2v-1h-2zM1 4v1h3v2h2v-2h5v6h2v-3h3v-1h-3v-4h-2v1h-10zM6 6v1h1v3h-6v1h8v-4h-1v-1h-2z" />
    <glyph glyph-name="glyph1392" unicode="&#xad11;" 
d="M11 -2h-7v1h-2v3h2v1h7v-1h2v-3h-2v-1zM5 -1h5v1h1v1h-1v1h-5v-1h-1v-1h1v-1zM1 4v1h3v2h2v-2h5v6h2v-3h3v-1h-3v-4h-2v1h-10zM6 6v1h1v3h-6v1h8v-4h-1v-1h-2z" />
    <glyph glyph-name="glyph1393" unicode="&#xad12;" 
d="M1 -2v1h3v1h1v1h1v1h-5v1h12v-1h-5v-1h1v-1h1v-1h3v-1h-4v1h-1v1h-2v-1h-1v-1h-4zM1 4v1h3v2h2v-2h5v6h2v-3h3v-1h-3v-4h-2v1h-10zM6 6v1h1v3h-6v1h8v-4h-1v-1h-2z" />
    <glyph glyph-name="glyph1394" unicode="&#xad13;" 
d="M1 -2v1h3v1h1v1h1v1h-5v1h5v1h2v-1h5v-1h-5v-1h1v-1h1v-1h3v-1h-4v1h-1v1h-2v-1h-1v-1h-4zM1 4v1h3v2h2v-2h5v6h2v-3h3v-1h-3v-4h-2v1h-10zM6 6v1h1v3h-6v1h8v-4h-1v-1h-2z" />
    <glyph glyph-name="glyph1395" unicode="&#xad14;" 
d="M2 0v1h9v1h-9v1h11v-4h-1v-1h-1v2h-9zM1 4v1h3v2h2v-2h5v6h2v-3h3v-1h-3v-4h-2v1h-10zM6 6v1h1v3h-6v1h8v-4h-1v-1h-2z" />
    <glyph glyph-name="glyph1396" unicode="&#xad15;" 
d="M13 -2h-10v1h-1v4h11v-1h-9v-1h9v-1h-9v-1h9v-1zM1 4v1h3v2h2v-2h5v6h2v-3h3v-1h-3v-4h-2v1h-10zM6 6v1h1v3h-6v1h8v-4h-1v-1h-2z" />
    <glyph glyph-name="glyph1397" unicode="&#xad16;" 
d="M2 -2v1h2v3h-2v1h11v-1h-2v-3h2v-1h-11zM6 -1h3v3h-3v-3zM1 4v1h3v2h2v-2h5v6h2v-3h3v-1h-3v-4h-2v1h-10zM6 6v1h1v3h-6v1h8v-4h-1v-1h-2z" />
    <glyph glyph-name="glyph1398" unicode="&#xad17;" 
d="M2 2v1h4v1h3v-1h4v-1h-1v-1h1v-2h-1v-1h-9v1h-1v2h1v1h-1zM4 -1h7v2h-7v-2zM1 4v1h3v2h2v-2h5v6h2v-3h3v-1h-3v-4h-2v1h-10zM6 6v1h1v3h-6v1h8v-4h-1v-1h-2z" />
    <glyph glyph-name="glyph1399" unicode="&#xad18;" 
d="M1 -1v1h3v5h2v-5h4v11h2v-6h1v6h2v-13h-2v6h-1v-6h-2v1h-9zM6 3v1h1v5h-6v1h8v-6h-1v-1h-2z" />
    <glyph glyph-name="glyph1400" unicode="&#xad19;" 
d="M2 2v1h13v-4h-1v-1h-1v4h-11zM1 4v1h3v2h2v-2h4v6h2v-3h1v3h2v-8h-2v4h-1v-4h-2v1h-9zM6 6v1h1v3h-6v1h8v-4h-1v-1h-2z" />
    <glyph glyph-name="glyph1401" unicode="&#xad1a;" 
d="M9 2v1h6v-4h-1v-1h-1v4h-4zM2 2v1h6v-4h-1v-1h-1v4h-4zM1 4v1h3v2h2v-2h4v6h2v-3h1v3h2v-8h-2v4h-1v-4h-2v1h-9zM6 6v1h1v3h-6v1h8v-4h-1v-1h-2z" />
    <glyph glyph-name="glyph1402" unicode="&#xad1b;" 
d="M9 -2v1h1v1h1v3h2v-3h1v-1h1v-1h-2v1h-2v-1h-2zM2 2v1h6v-4h-1v-1h-1v4h-4zM1 4v1h3v2h2v-2h4v6h2v-3h1v3h2v-8h-2v4h-1v-4h-2v1h-9zM6 6v1h1v3h-6v1h8v-4h-1v-1h-2z" />
    <glyph glyph-name="glyph1403" unicode="&#xad1c;" 
d="M15 -2h-12v1h-1v4h2v-4h11v-1zM1 4v1h3v2h2v-2h4v6h2v-3h1v3h2v-8h-2v4h-1v-4h-2v1h-9zM6 6v1h1v3h-6v1h8v-4h-1v-1h-2z" />
    <glyph glyph-name="glyph1404" unicode="&#xad1d;" 
d="M9 -2v1h1v1h1v2h-2v1h6v-1h-2v-2h1v-1h1v-1h-2v1h-2v-1h-2zM8 -2h-5v1h-1v4h2v-4h4v-1zM1 4v1h3v2h2v-2h4v6h2v-3h1v3h2v-8h-2v4h-1v-4h-2v1h-9zM6 6v1h1v3h-6v1h8v-4h-1v-1h-2z" />
    <glyph glyph-name="glyph1405" unicode="&#xad1e;" 
d="M8 1v1h2v1h3v-1h2v-1h-1v-1h1v-1h-1v-1h-5v1h-1v-1h-5v1h-1v4h2v-4h4v1h1v1h-1zM10 -1h3v1h-3v-1zM1 4v1h3v2h2v-2h4v6h2v-3h1v3h2v-8h-2v4h-1v-4h-2v1h-9zM6 6v1h1v3h-6v1h8v-4h-1v-1h-2z" />
    <glyph glyph-name="glyph1406" unicode="&#xad1f;" 
d="M15 -2h-12v1h-1v4h13v-1h-11v-3h11v-1zM1 4v1h3v2h2v-2h4v6h2v-3h1v3h2v-8h-2v4h-1v-4h-2v1h-9zM6 6v1h1v3h-6v1h8v-4h-1v-1h-2z" />
    <glyph glyph-name="glyph1407" unicode="&#xad20;" 
d="M2 2v1h13v-3h-11v-1h11v-1h-12v1h-1v2h11v1h-11zM1 4v1h3v2h2v-2h4v6h2v-3h1v3h2v-8h-2v4h-1v-4h-2v1h-9zM6 6v1h1v3h-6v1h8v-4h-1v-1h-2z" />
    <glyph glyph-name="glyph1408" unicode="&#xad21;" 
d="M9 2v1h6v-4h-1v-1h-1v4h-4zM2 2v1h6v-3h-4v-1h4v-1h-5v1h-1v2h4v1h-4zM1 4v1h3v2h2v-2h4v6h2v-3h1v3h2v-8h-2v4h-1v-4h-2v1h-9zM6 6v1h1v3h-6v1h8v-4h-1v-1h-2z" />
    <glyph glyph-name="glyph1409" unicode="&#xad22;" 
d="M2 2v1h6v-3h-4v-1h4v-1h-5v1h-1v2h4v1h-4zM14 -2h-4v1h-1v4h6v-4h-1v-1zM11 -1h2v3h-2v-3zM1 4v1h3v2h2v-2h4v6h2v-3h1v3h2v-8h-2v4h-1v-4h-2v1h-9zM6 6v1h1v3h-6v1h8v-4h-1v-1h-2z" />
    <glyph glyph-name="glyph1410" unicode="&#xad23;" 
d="M2 2v1h6v-3h-4v-1h4v-1h-5v1h-1v2h4v1h-4zM14 -2h-4v1h-1v4h2v-2h2v2h2v-4h-1v-1zM11 -1h2v1h-2v-1zM1 4v1h3v2h2v-2h4v6h2v-3h1v3h2v-8h-2v4h-1v-4h-2v1h-9zM6 6v1h1v3h-6v1h8v-4h-1v-1h-2z" />
    <glyph glyph-name="glyph1411" unicode="&#xad24;" 
d="M9 -2v1h1v1h1v3h2v-3h1v-1h1v-1h-2v1h-2v-1h-2zM2 2v1h6v-3h-4v-1h4v-1h-5v1h-1v2h4v1h-4zM1 4v1h3v2h2v-2h4v6h2v-3h1v3h2v-8h-2v4h-1v-4h-2v1h-9zM6 6v1h1v3h-6v1h8v-4h-1v-1h-2z" />
    <glyph glyph-name="glyph1412" unicode="&#xad25;" 
d="M2 2v1h6v-3h-4v-1h4v-1h-5v1h-1v2h4v1h-4zM15 -2h-6v5h6v-1h-4v-1h4v-1h-4v-1h4v-1zM1 4v1h3v2h2v-2h4v6h2v-3h1v3h2v-8h-2v4h-1v-4h-2v1h-9zM6 6v1h1v3h-6v1h8v-4h-1v-1h-2z" />
    <glyph glyph-name="glyph1413" unicode="&#xad26;" 
d="M2 2v1h13v-1h-1v-3h1v-1h-12v1h-1v2h4v1h-4zM4 -1h5v3h-1v-2h-4v-1zM12 -1v3h-1v-3h1zM1 4v1h3v2h2v-2h4v6h2v-3h1v3h2v-8h-2v4h-1v-4h-2v1h-9zM6 6v1h1v3h-6v1h8v-4h-1v-1h-2z" />
    <glyph glyph-name="glyph1414" unicode="&#xad27;" 
d="M2 2v1h6v-1h2v1h3v-1h2v-1h-1v-1h1v-1h-1v-1h-5v1h-1v-1h-5v1h-1v2h4v1h-4zM10 -1h3v1h-3v-1zM4 -1h4v1h1v1h-1v-1h-4v-1zM1 4v1h3v2h2v-2h4v6h2v-3h1v3h2v-8h-2v4h-1v-4h-2v1h-9zM6 6v1h1v3h-6v1h8v-4h-1v-1h-2z" />
    <glyph glyph-name="glyph1415" unicode="&#xad28;" 
d="M14 -2h-11v1h-1v4h13v-4h-1v-1zM4 -1h9v3h-9v-3zM1 4v1h3v2h2v-2h4v6h2v-3h1v3h2v-8h-2v4h-1v-4h-2v1h-9zM6 6v1h1v3h-6v1h8v-4h-1v-1h-2z" />
    <glyph glyph-name="glyph1416" unicode="&#xad29;" 
d="M14 -2h-11v1h-1v4h2v-2h9v2h2v-4h-1v-1zM4 -1h9v1h-9v-1zM1 4v1h3v2h2v-2h4v6h2v-3h1v3h2v-8h-2v4h-1v-4h-2v1h-9zM6 6v1h1v3h-6v1h8v-4h-1v-1h-2z" />
    <glyph glyph-name="glyph1417" unicode="&#xad2a;" 
d="M15 -2h-2v1h-2v-1h-3v1h2v1h1v3h2v-3h1v-1h1v-1zM7 -2h-4v1h-1v4h2v-2h2v2h2v-4h-1v-1zM4 -1h2v1h-2v-1zM1 4v1h3v2h2v-2h4v6h2v-3h1v3h2v-8h-2v4h-1v-4h-2v1h-9zM6 6v1h1v3h-6v1h8v-4h-1v-1h-2z" />
    <glyph glyph-name="glyph1418" unicode="&#xad2b;" 
d="M2 -2v1h3v1h1v1h1v2h3v-2h1v-1h1v-1h3v-1h-4v1h-1v1h-1v1h-1v-1h-1v-1h-1v-1h-4zM1 4v1h3v2h2v-2h4v6h2v-3h1v3h2v-8h-2v4h-1v-4h-2v1h-9zM6 6v1h1v3h-6v1h8v-4h-1v-1h-2z" />
    <glyph glyph-name="glyph1419" unicode="&#xad2c;" 
d="M9 -2v1h1v1h1v3h2v-3h1v-1h1v-1h-2v1h-2v-1h-2zM2 -2v1h1v1h1v3h2v-3h1v-1h1v-1h-2v1h-2v-1h-2zM1 4v1h3v2h2v-2h4v6h2v-3h1v3h2v-8h-2v4h-1v-4h-2v1h-9zM6 6v1h1v3h-6v1h8v-4h-1v-1h-2z" />
    <glyph glyph-name="glyph1420" unicode="&#xad2d;" 
d="M13 -2h-9v1h-2v3h2v1h9v-1h2v-3h-2v-1zM5 -1h7v1h1v1h-1v1h-7v-1h-1v-1h1v-1zM1 4v1h3v2h2v-2h4v6h2v-3h1v3h2v-8h-2v4h-1v-4h-2v1h-9zM6 6v1h1v3h-6v1h8v-4h-1v-1h-2z" />
    <glyph glyph-name="glyph1421" unicode="&#xad2e;" 
d="M2 -2v1h3v1h1v1h1v1h-5v1h13v-1h-5v-1h1v-1h1v-1h3v-1h-4v1h-1v1h-1v1h-1v-1h-1v-1h-1v-1h-4zM1 4v1h3v2h2v-2h4v6h2v-3h1v3h2v-8h-2v4h-1v-4h-2v1h-9zM6 6v1h1v3h-6v1h8v-4h-1v-1h-2z" />
    <glyph glyph-name="glyph1422" unicode="&#xad2f;" 
d="M2 -2v1h3v1h1v1h-4v1h5v1h3v-1h5v-1h-4v-1h1v-1h3v-1h-4v1h-1v1h-1v1h-1v-1h-1v-1h-1v-1h-4zM1 4v1h3v2h2v-2h4v6h2v-3h1v3h2v-8h-2v4h-1v-4h-2v1h-9zM6 6v1h1v3h-6v1h8v-4h-1v-1h-2z" />
    <glyph glyph-name="glyph1423" unicode="&#xad30;" 
d="M2 0v1h11v1h-11v1h13v-4h-1v-1h-1v2h-11zM1 4v1h3v2h2v-2h4v6h2v-3h1v3h2v-8h-2v4h-1v-4h-2v1h-9zM6 6v1h1v3h-6v1h8v-4h-1v-1h-2z" />
    <glyph glyph-name="glyph1424" unicode="&#xad31;" 
d="M15 -2h-12v1h-1v4h13v-1h-11v-1h11v-1h-11v-1h11v-1zM1 4v1h3v2h2v-2h4v6h2v-3h1v3h2v-8h-2v4h-1v-4h-2v1h-9zM6 6v1h1v3h-6v1h8v-4h-1v-1h-2z" />
    <glyph glyph-name="glyph1425" unicode="&#xad32;" 
d="M2 -2v1h2v3h-2v1h13v-1h-2v-3h2v-1h-13zM6 -1h5v3h-5v-3zM1 4v1h3v2h2v-2h4v6h2v-3h1v3h2v-8h-2v4h-1v-4h-2v1h-9zM6 6v1h1v3h-6v1h8v-4h-1v-1h-2z" />
    <glyph glyph-name="glyph1426" unicode="&#xad33;" 
d="M2 -1v1h1v1h-1v1h5v1h3v-1h5v-1h-1v-1h1v-1h-1v-1h-11v1h-1zM4 -1h9v1h-9v-1zM1 4v1h3v2h2v-2h4v6h2v-3h1v3h2v-8h-2v4h-1v-4h-2v1h-9zM6 6v1h1v3h-6v1h8v-4h-1v-1h-2z" />
    <glyph glyph-name="glyph1427" unicode="&#xad34;" 
d="M1 -1v1h3v5h2v-5h6v11h2v-13h-2v1h-11zM6 3v1h1v5h-6v1h8v-6h-1v-1h-2z" />
    <glyph glyph-name="glyph1428" unicode="&#xad35;" 
d="M2 2v1h12v-4h-1v-1h-1v4h-10zM1 4v1h4v2h2v-2h5v6h2v-8h-2v1h-11zM6 6v1h1v3h-6v1h8v-4h-1v-1h-2z" />
    <glyph glyph-name="glyph1429" unicode="&#xad36;" 
d="M9 2v1h5v-4h-1v-1h-1v4h-3zM2 2v1h6v-4h-1v-1h-1v4h-4zM1 4v1h4v2h2v-2h5v6h2v-8h-2v1h-11zM6 6v1h1v3h-6v1h8v-4h-1v-1h-2z" />
    <glyph glyph-name="glyph1430" unicode="&#xad37;" 
d="M9 -2v1h1v1h1v3h2v-3h1v-1h1v-1h-2v1h-2v-1h-2zM2 2v1h6v-4h-1v-1h-1v4h-4zM1 4v1h4v2h2v-2h5v6h2v-8h-2v1h-11zM6 6v1h1v3h-6v1h8v-4h-1v-1h-2z" />
    <glyph glyph-name="glyph1431" unicode="&#xad38;" 
d="M14 -2h-11v1h-1v4h2v-4h10v-1zM1 4v1h4v2h2v-2h5v6h2v-8h-2v1h-11zM6 6v1h1v3h-6v1h8v-4h-1v-1h-2z" />
    <glyph glyph-name="glyph1432" unicode="&#xad39;" 
d="M8 2v1h6v-1h-2v-2h1v-1h1v-1h-2v1h-2v-1h-7v1h-1v4h2v-4h5v1h1v2h-2zM1 4v1h4v2h2v-2h5v6h2v-8h-2v1h-11zM6 6v1h1v3h-6v1h8v-4h-1v-1h-2z" />
    <glyph glyph-name="glyph1433" unicode="&#xad3a;" 
d="M7 1v1h2v1h3v-1h2v-1h-1v-1h1v-1h-1v-1h-5v1h-1v-1h-4v1h-1v4h2v-4h3v1h1v1h-1zM9 -1h3v1h-3v-1zM1 4v1h4v2h2v-2h5v6h2v-8h-2v1h-11zM6 6v1h1v3h-6v1h8v-4h-1v-1h-2z" />
    <glyph glyph-name="glyph1434" unicode="&#xad3b;" 
d="M14 -2h-11v1h-1v4h12v-1h-10v-3h10v-1zM1 4v1h4v2h2v-2h5v6h2v-8h-2v1h-11zM6 6v1h1v3h-6v1h8v-4h-1v-1h-2z" />
    <glyph glyph-name="glyph1435" unicode="&#xad3c;" 
d="M2 2v1h12v-3h-10v-1h10v-1h-11v1h-1v2h10v1h-10zM1 4v1h4v2h2v-2h5v6h2v-8h-2v1h-11zM6 6v1h1v3h-6v1h8v-4h-1v-1h-2z" />
    <glyph glyph-name="glyph1436" unicode="&#xad3d;" 
d="M9 2v1h5v-4h-1v-1h-1v4h-3zM2 2v1h6v-3h-4v-1h4v-1h-5v1h-1v2h4v1h-4zM1 4v1h4v2h2v-2h5v6h2v-8h-2v1h-11zM6 6v1h1v3h-6v1h8v-4h-1v-1h-2z" />
    <glyph glyph-name="glyph1437" unicode="&#xad3e;" 
d="M2 2v1h5v-3h-3v-1h3v-1h-4v1h-1v2h3v1h-3zM13 -2h-4v1h-1v4h6v-4h-1v-1zM10 -1h2v3h-2v-3zM1 4v1h4v2h2v-2h5v6h2v-8h-2v1h-11zM6 6v1h1v3h-6v1h8v-4h-1v-1h-2z" />
    <glyph glyph-name="glyph1438" unicode="&#xad3f;" 
d="M2 2v1h5v-3h-3v-1h3v-1h-4v1h-1v2h3v1h-3zM13 -2h-4v1h-1v4h2v-2h2v2h2v-4h-1v-1zM10 -1h2v1h-2v-1zM1 4v1h4v2h2v-2h5v6h2v-8h-2v1h-11zM6 6v1h1v3h-6v1h8v-4h-1v-1h-2z" />
    <glyph glyph-name="glyph1439" unicode="&#xad40;" 
d="M9 -2v1h1v1h1v3h2v-3h1v-1h1v-1h-2v1h-2v-1h-2zM2 2v1h6v-3h-4v-1h4v-1h-5v1h-1v2h4v1h-4zM1 4v1h4v2h2v-2h5v6h2v-8h-2v1h-11zM6 6v1h1v3h-6v1h8v-4h-1v-1h-2z" />
    <glyph glyph-name="glyph1440" unicode="&#xad41;" 
d="M2 2v1h6v-3h-4v-1h4v-1h-5v1h-1v2h4v1h-4zM14 -2h-5v5h5v-1h-3v-1h3v-1h-3v-1h3v-1zM1 4v1h4v2h2v-2h5v6h2v-8h-2v1h-11zM6 6v1h1v3h-6v1h8v-4h-1v-1h-2z" />
    <glyph glyph-name="glyph1441" unicode="&#xad42;" 
d="M2 2v1h12v-1h-1v-3h1v-1h-11v1h-1v2h3v1h-3zM4 -1h4v3h-1v-2h-3v-1zM11 -1v3h-1v-3h1zM1 4v1h4v2h2v-2h5v6h2v-8h-2v1h-11zM6 6v1h1v3h-6v1h8v-4h-1v-1h-2z" />
    <glyph glyph-name="glyph1442" unicode="&#xad43;" 
d="M2 2v1h6v-1h2v1h2v-1h2v-1h-1v-1h1v-1h-1v-1h-4v1h-1v-1h-5v1h-1v2h4v1h-4zM10 -1h2v1h-2v-1zM4 -1h4v1h1v1h-1v-1h-4v-1zM1 4v1h4v2h2v-2h5v6h2v-8h-2v1h-11zM6 6v1h1v3h-6v1h8v-4h-1v-1h-2z" />
    <glyph glyph-name="glyph1443" unicode="&#xad44;" 
d="M13 -2h-10v1h-1v4h12v-4h-1v-1zM4 -1h8v3h-8v-3zM1 4v1h4v2h2v-2h5v6h2v-8h-2v1h-11zM6 6v1h1v3h-6v1h8v-4h-1v-1h-2z" />
    <glyph glyph-name="glyph1444" unicode="&#xad45;" 
d="M13 -2h-10v1h-1v4h2v-2h8v2h2v-4h-1v-1zM4 -1h8v1h-8v-1zM1 4v1h4v2h2v-2h5v6h2v-8h-2v1h-11zM6 6v1h1v3h-6v1h8v-4h-1v-1h-2z" />
    <glyph glyph-name="glyph1445" unicode="&#xad46;" 
d="M9 -2v1h1v1h1v3h2v-3h1v-1h1v-1h-2v1h-2v-1h-2zM7 -2h-4v1h-1v4h2v-2h2v2h2v-4h-1v-1zM4 -1h2v1h-2v-1zM1 4v1h4v2h2v-2h5v6h2v-8h-2v1h-11zM6 6v1h1v3h-6v1h8v-4h-1v-1h-2z" />
    <glyph glyph-name="glyph1446" unicode="&#xad47;" 
d="M2 -2v1h2v-1h-2zM14 -2h-2v1h2v-1zM12 -1h-3v1h-2v-1h-3v1h2v1h1v2h2v-2h1v-1h2v-1zM1 4v1h4v2h2v-2h5v6h2v-8h-2v1h-11zM6 6v1h1v3h-6v1h8v-4h-1v-1h-2z" />
    <glyph glyph-name="glyph1447" unicode="&#xad48;" 
d="M9 -2v1h1v1h1v3h2v-3h1v-1h1v-1h-2v1h-2v-1h-2zM2 -2v1h1v1h1v3h2v-3h1v-1h1v-1h-2v1h-2v-1h-2zM1 4v1h4v2h2v-2h5v6h2v-8h-2v1h-11zM6 6v1h1v3h-6v1h8v-4h-1v-1h-2z" />
    <glyph glyph-name="glyph1448" unicode="&#xad49;" 
d="M12 -2h-8v1h-2v3h2v1h8v-1h2v-3h-2v-1zM5 -1h6v1h1v1h-1v1h-6v-1h-1v-1h1v-1zM1 4v1h4v2h2v-2h5v6h2v-8h-2v1h-11zM6 6v1h1v3h-6v1h8v-4h-1v-1h-2z" />
    <glyph glyph-name="glyph1449" unicode="&#xad4a;" 
d="M2 -2v1h3v1h1v1h1v1h-5v1h12v-1h-5v-1h1v-1h1v-1h3v-1h-4v1h-1v1h-2v-1h-1v-1h-4zM1 4v1h4v2h2v-2h5v6h2v-8h-2v1h-11zM6 6v1h1v3h-6v1h8v-4h-1v-1h-2z" />
    <glyph glyph-name="glyph1450" unicode="&#xad4b;" 
d="M2 -2v1h3v1h1v1h-4v1h4v1h4v-1h4v-1h-4v-1h1v-1h3v-1h-4v1h-1v1h-2v-1h-1v-1h-4zM1 4v1h4v2h2v-2h5v6h2v-8h-2v1h-11zM6 6v1h1v3h-6v1h8v-4h-1v-1h-2z" />
    <glyph glyph-name="glyph1451" unicode="&#xad4c;" 
d="M2 0v1h10v1h-10v1h12v-4h-1v-1h-1v2h-10zM1 4v1h4v2h2v-2h5v6h2v-8h-2v1h-11zM6 6v1h1v3h-6v1h8v-4h-1v-1h-2z" />
    <glyph glyph-name="glyph1452" unicode="&#xad4d;" 
d="M14 -2h-11v1h-1v4h12v-1h-10v-1h9v-1h-9v-1h10v-1zM1 4v1h4v2h2v-2h5v6h2v-8h-2v1h-11zM6 6v1h1v3h-6v1h8v-4h-1v-1h-2z" />
    <glyph glyph-name="glyph1453" unicode="&#xad4e;" 
d="M2 -2v1h2v3h-2v1h12v-1h-2v-3h2v-1h-12zM6 -1h4v3h-4v-3zM1 4v1h4v2h2v-2h5v6h2v-8h-2v1h-11zM6 6v1h1v3h-6v1h8v-4h-1v-1h-2z" />
    <glyph glyph-name="glyph1454" unicode="&#xad4f;" 
d="M2 -1v1h1v1h-1v1h5v1h2v-1h5v-1h-1v-1h1v-1h-1v-1h-10v1h-1zM4 -1h8v1h-8v-1zM1 4v1h4v2h2v-2h5v6h2v-8h-2v1h-11zM6 6v1h1v3h-6v1h8v-4h-1v-1h-2z" />
    <glyph glyph-name="glyph1455" unicode="&#xad50;" 
d="M1 -1v1h4v5h2v-5h2v5h2v-5h4v-1h-14zM11 3v1h1v5h-10v1h12v-6h-1v-1h-2z" />
    <glyph glyph-name="glyph1456" unicode="&#xad51;" 
d="M2 2v1h12v-4h-1v-1h-1v4h-10zM1 4v1h4v3h2v-3h2v3h2v-3h4v-1h-14zM11 5v1h1v4h-10v1h12v-5h-1v-1h-2z" />
    <glyph glyph-name="glyph1457" unicode="&#xad52;" 
d="M2 2v1h12v-4h-1v-1h-1v4h-4v-3h-1v-1h-1v4h-4zM1 4v1h4v3h2v-3h2v3h2v-3h4v-1h-14zM11 5v1h1v4h-10v1h12v-5h-1v-1h-2z" />
    <glyph glyph-name="glyph1458" unicode="&#xad53;" 
d="M2 2v1h6v-4h1v1h1v3h2v-3h1v-1h1v-1h-2v1h-2v-1h-2v1h-1v-1h-1v4h-4zM1 4v1h4v3h2v-3h2v3h2v-3h4v-1h-14zM11 5v1h1v4h-10v1h12v-5h-1v-1h-2z" />
    <glyph glyph-name="glyph1459" unicode="&#xad54;" 
d="M14 -2h-11v1h-1v4h2v-4h10v-1zM1 4v1h4v3h2v-3h2v3h2v-3h4v-1h-14zM11 5v1h1v4h-10v1h12v-5h-1v-1h-2z" />
    <glyph glyph-name="glyph1460" unicode="&#xad55;" 
d="M8 2v1h6v-1h-2v-2h1v-1h1v-1h-2v1h-2v-1h-7v1h-1v4h2v-4h5v1h1v2h-2zM1 4v1h4v3h2v-3h2v3h2v-3h4v-1h-14zM11 5v1h1v4h-10v1h12v-5h-1v-1h-2z" />
    <glyph glyph-name="glyph1461" unicode="&#xad56;" 
d="M7 1v1h2v1h3v-1h2v-1h-1v-1h1v-1h-1v-1h-5v1h-1v-1h-4v1h-1v4h2v-4h3v1h1v1h-1zM9 -1h3v1h-3v-1zM1 4v1h4v3h2v-3h2v3h2v-3h4v-1h-14zM11 5v1h1v4h-10v1h12v-5h-1v-1h-2z" />
    <glyph glyph-name="glyph1462" unicode="&#xad57;" 
d="M14 -2h-11v1h-1v4h12v-1h-10v-3h10v-1zM1 4v1h4v3h2v-3h2v3h2v-3h4v-1h-14zM11 5v1h1v4h-10v1h12v-5h-1v-1h-2z" />
    <glyph glyph-name="glyph1463" unicode="&#xad58;" 
d="M2 2v1h12v-3h-10v-1h10v-1h-11v1h-1v2h10v1h-10zM1 4v1h4v3h2v-3h2v3h2v-3h4v-1h-14zM11 5v1h1v4h-10v1h12v-5h-1v-1h-2z" />
    <glyph glyph-name="glyph1464" unicode="&#xad59;" 
d="M2 2v1h12v-4h-1v-1h-1v4h-4v-2h-4v-1h4v-1h-5v1h-1v2h4v1h-4zM1 4v1h4v3h2v-3h2v3h2v-3h4v-1h-14zM11 5v1h1v4h-10v1h12v-5h-1v-1h-2z" />
    <glyph glyph-name="glyph1465" unicode="&#xad5a;" 
d="M2 2v1h5v-3h-3v-1h3v-1h-4v1h-1v2h3v1h-3zM13 -2h-4v1h-1v4h6v-4h-1v-1zM10 -1h2v3h-2v-3zM1 4v1h4v3h2v-3h2v3h2v-3h4v-1h-14zM11 5v1h1v4h-10v1h12v-5h-1v-1h-2z" />
    <glyph glyph-name="glyph1466" unicode="&#xad5b;" 
d="M2 2v1h5v-3h-3v-1h3v-1h-4v1h-1v2h3v1h-3zM13 -2h-4v1h-1v4h2v-2h2v2h2v-4h-1v-1zM10 -1h2v1h-2v-1zM1 4v1h4v3h2v-3h2v3h2v-3h4v-1h-14zM11 5v1h1v4h-10v1h12v-5h-1v-1h-2z" />
    <glyph glyph-name="glyph1467" unicode="&#xad5c;" 
d="M2 2v1h6v-3h-4v-1h5v1h1v3h2v-3h1v-1h1v-1h-2v1h-2v-1h-7v1h-1v2h4v1h-4zM1 4v1h4v3h2v-3h2v3h2v-3h4v-1h-14zM11 5v1h1v4h-10v1h12v-5h-1v-1h-2z" />
    <glyph glyph-name="glyph1468" unicode="&#xad5d;" 
d="M2 2v1h6v-3h-4v-1h4v-1h-5v1h-1v2h4v1h-4zM14 -2h-5v5h5v-1h-3v-1h3v-1h-3v-1h3v-1zM1 4v1h4v3h2v-3h2v3h2v-3h4v-1h-14zM11 5v1h1v4h-10v1h12v-5h-1v-1h-2z" />
    <glyph glyph-name="glyph1469" unicode="&#xad5e;" 
d="M2 2v1h12v-1h-1v-3h1v-1h-11v1h-1v2h3v1h-3zM4 -1h4v3h-1v-2h-3v-1zM11 -1v3h-1v-3h1zM1 4v1h4v3h2v-3h2v3h2v-3h4v-1h-14zM11 5v1h1v4h-10v1h12v-5h-1v-1h-2z" />
    <glyph glyph-name="glyph1470" unicode="&#xad5f;" 
d="M2 2v1h6v-1h2v1h2v-1h2v-1h-1v-1h1v-1h-1v-1h-4v1h-1v-1h-5v1h-1v2h4v1h-4zM10 -1h2v1h-2v-1zM4 -1h4v1h1v1h-1v-1h-4v-1zM1 4v1h4v3h2v-3h2v3h2v-3h4v-1h-14zM11 5v1h1v4h-10v1h12v-5h-1v-1h-2z" />
    <glyph glyph-name="glyph1471" unicode="&#xad60;" 
d="M13 -2h-10v1h-1v4h12v-4h-1v-1zM4 -1h8v3h-8v-3zM1 4v1h4v3h2v-3h2v3h2v-3h4v-1h-14zM11 5v1h1v4h-10v1h12v-5h-1v-1h-2z" />
    <glyph glyph-name="glyph1472" unicode="&#xad61;" 
d="M13 -2h-10v1h-1v4h2v-2h8v2h2v-4h-1v-1zM4 -1h8v1h-8v-1zM1 4v1h4v3h2v-3h2v3h2v-3h4v-1h-14zM11 5v1h1v4h-10v1h12v-5h-1v-1h-2z" />
    <glyph glyph-name="glyph1473" unicode="&#xad62;" 
d="M14 -2h-2v1h-2v-1h-2v1h1v1h1v3h2v-3h1v-1h1v-1zM7 -2h-4v1h-1v4h2v-2h2v2h2v-4h-1v-1zM4 -1h2v1h-2v-1zM1 4v1h4v3h2v-3h2v3h2v-3h4v-1h-14zM11 5v1h1v4h-10v1h12v-5h-1v-1h-2z" />
    <glyph glyph-name="glyph1474" unicode="&#xad63;" 
d="M2 -2v1h3v1h1v1h1v2h2v-2h1v-1h1v-1h3v-1h-4v1h-1v1h-2v-1h-1v-1h-4zM1 4v1h4v3h2v-3h2v3h2v-3h4v-1h-14zM11 5v1h1v4h-10v1h12v-5h-1v-1h-2z" />
    <glyph glyph-name="glyph1475" unicode="&#xad64;" 
d="M2 -2v1h1v1h1v3h2v-3h1v-1h2v1h1v3h2v-3h1v-1h1v-1h-2v1h-2v-1h-4v1h-2v-1h-2zM1 4v1h4v3h2v-3h2v3h2v-3h4v-1h-14zM11 5v1h1v4h-10v1h12v-5h-1v-1h-2z" />
    <glyph glyph-name="glyph1476" unicode="&#xad65;" 
d="M12 -2h-8v1h-2v3h2v1h8v-1h2v-3h-2v-1zM5 -1h6v1h1v1h-1v1h-6v-1h-1v-1h1v-1zM1 4v1h4v3h2v-3h2v3h2v-3h4v-1h-14zM11 5v1h1v4h-10v1h12v-5h-1v-1h-2z" />
    <glyph glyph-name="glyph1477" unicode="&#xad66;" 
d="M2 -2v1h3v1h1v1h1v1h-5v1h12v-1h-5v-1h1v-1h1v-1h3v-1h-4v1h-1v1h-2v-1h-1v-1h-4zM1 4v1h4v3h2v-3h2v3h2v-3h4v-1h-14zM11 5v1h1v4h-10v1h12v-5h-1v-1h-2z" />
    <glyph glyph-name="glyph1478" unicode="&#xad67;" 
d="M2 -2v1h3v1h1v1h-4v1h5v1h2v-1h5v-1h-4v-1h1v-1h3v-1h-4v1h-1v1h-2v-1h-1v-1h-4zM1 4v1h4v3h2v-3h2v3h2v-3h4v-1h-14zM11 5v1h1v4h-10v1h12v-5h-1v-1h-2z" />
    <glyph glyph-name="glyph1479" unicode="&#xad68;" 
d="M2 0v1h10v1h-10v1h12v-4h-1v-1h-1v2h-10zM1 4v1h4v3h2v-3h2v3h2v-3h4v-1h-14zM11 5v1h1v4h-10v1h12v-5h-1v-1h-2z" />
    <glyph glyph-name="glyph1480" unicode="&#xad69;" 
d="M14 -2h-11v1h-1v4h12v-1h-10v-1h10v-1h-10v-1h10v-1zM1 4v1h4v3h2v-3h2v3h2v-3h4v-1h-14zM11 5v1h1v4h-10v1h12v-5h-1v-1h-2z" />
    <glyph glyph-name="glyph1481" unicode="&#xad6a;" 
d="M2 -2v1h2v3h-2v1h12v-1h-2v-3h2v-1h-12zM6 -1h4v3h-4v-3zM1 4v1h4v3h2v-3h2v3h2v-3h4v-1h-14zM11 5v1h1v4h-10v1h12v-5h-1v-1h-2z" />
    <glyph glyph-name="glyph1482" unicode="&#xad6b;" 
d="M2 -1v1h1v1h-1v1h5v1h2v-1h5v-1h-1v-1h1v-1h-1v-1h-10v1h-1zM4 -1h8v1h-8v-1zM1 4v1h4v3h2v-3h2v3h2v-3h4v-1h-14zM11 5v1h1v4h-10v1h12v-5h-1v-1h-2z" />
    <glyph glyph-name="glyph1483" unicode="&#xad6c;" 
d="M1 2v1h14v-1h-6v-4h-2v4h-6zM11 3v1h1v5h-10v1h12v-6h-1v-1h-2z" />
    <glyph glyph-name="glyph1484" unicode="&#xad6d;" 
d="M2 2v1h12v-4h-1v-1h-1v4h-10zM1 4v1h14v-1h-6v-2h-2v2h-6zM11 5v1h1v4h-10v1h12v-5h-1v-1h-2z" />
    <glyph glyph-name="glyph1485" unicode="&#xad6e;" 
d="M2 2v1h12v-4h-1v-1h-1v4h-4v-3h-1v-1h-1v4h-4zM1 4v1h14v-1h-6v-2h-2v2h-6zM11 5v1h1v4h-10v1h12v-5h-1v-1h-2z" />
    <glyph glyph-name="glyph1486" unicode="&#xad6f;" 
d="M2 2v1h6v-4h1v1h1v3h2v-3h1v-1h1v-1h-2v1h-2v-1h-2v1h-1v-1h-1v4h-4zM1 4v1h14v-1h-6v-2h-2v2h-6zM11 5v1h1v4h-10v1h12v-5h-1v-1h-2z" />
    <glyph glyph-name="glyph1487" unicode="&#xad70;" 
d="M14 -2h-11v1h-1v4h2v-4h10v-1zM1 4v1h14v-1h-6v-2h-2v2h-6zM11 5v1h1v4h-10v1h12v-5h-1v-1h-2z" />
    <glyph glyph-name="glyph1488" unicode="&#xad71;" 
d="M8 2v1h6v-1h-2v-2h1v-1h1v-1h-2v1h-2v-1h-7v1h-1v4h2v-4h5v1h1v2h-2zM1 4v1h14v-1h-6v-2h-2v2h-6zM11 5v1h1v4h-10v1h12v-5h-1v-1h-2z" />
    <glyph glyph-name="glyph1489" unicode="&#xad72;" 
d="M7 1v1h2v1h3v-1h2v-1h-1v-1h1v-1h-1v-1h-5v1h-1v-1h-4v1h-1v4h2v-4h3v1h1v1h-1zM9 -1h3v1h-3v-1zM1 4v1h14v-1h-6v-2h-2v2h-6zM11 5v1h1v4h-10v1h12v-5h-1v-1h-2z" />
    <glyph glyph-name="glyph1490" unicode="&#xad73;" 
d="M14 -2h-11v1h-1v4h12v-1h-10v-3h10v-1zM1 4v1h14v-1h-6v-2h-2v2h-6zM11 5v1h1v4h-10v1h12v-5h-1v-1h-2z" />
    <glyph glyph-name="glyph1491" unicode="&#xad74;" 
d="M2 2v1h12v-3h-10v-1h10v-1h-11v1h-1v2h10v1h-10zM1 4v1h14v-1h-6v-2h-2v2h-6zM11 5v1h1v4h-10v1h12v-5h-1v-1h-2z" />
    <glyph glyph-name="glyph1492" unicode="&#xad75;" 
d="M2 2v1h12v-4h-1v-1h-1v4h-4v-2h-4v-1h4v-1h-5v1h-1v2h4v1h-4zM1 4v1h14v-1h-6v-2h-2v2h-6zM11 5v1h1v4h-10v1h12v-5h-1v-1h-2z" />
    <glyph glyph-name="glyph1493" unicode="&#xad76;" 
d="M2 2v1h5v-3h-3v-1h3v-1h-4v1h-1v2h3v1h-3zM13 -2h-4v1h-1v4h6v-4h-1v-1zM10 -1h2v3h-2v-3zM1 4v1h14v-1h-6v-2h-2v2h-6zM11 5v1h1v4h-10v1h12v-5h-1v-1h-2z" />
    <glyph glyph-name="glyph1494" unicode="&#xad77;" 
d="M2 2v1h5v-3h-3v-1h3v-1h-4v1h-1v2h3v1h-3zM13 -2h-4v1h-1v4h2v-2h2v2h2v-4h-1v-1zM10 -1h2v1h-2v-1zM1 4v1h14v-1h-6v-2h-2v2h-6zM11 5v1h1v4h-10v1h12v-5h-1v-1h-2z" />
    <glyph glyph-name="glyph1495" unicode="&#xad78;" 
d="M2 2v1h6v-3h-4v-1h5v1h1v3h2v-3h1v-1h1v-1h-2v1h-2v-1h-7v1h-1v2h4v1h-4zM1 4v1h14v-1h-6v-2h-2v2h-6zM11 5v1h1v4h-10v1h12v-5h-1v-1h-2z" />
    <glyph glyph-name="glyph1496" unicode="&#xad79;" 
d="M2 2v1h6v-3h-4v-1h4v-1h-5v1h-1v2h4v1h-4zM14 -2h-5v5h5v-1h-3v-1h3v-1h-3v-1h3v-1zM1 4v1h14v-1h-6v-2h-2v2h-6zM11 5v1h1v4h-10v1h12v-5h-1v-1h-2z" />
    <glyph glyph-name="glyph1497" unicode="&#xad7a;" 
d="M2 2v1h12v-1h-1v-3h1v-1h-11v1h-1v2h3v1h-3zM4 -1h4v3h-1v-2h-3v-1zM11 -1v3h-1v-3h1zM1 4v1h14v-1h-6v-2h-2v2h-6zM11 5v1h1v4h-10v1h12v-5h-1v-1h-2z" />
    <glyph glyph-name="glyph1498" unicode="&#xad7b;" 
d="M2 2v1h6v-1h2v1h2v-1h2v-1h-1v-1h1v-1h-1v-1h-4v1h-1v-1h-5v1h-1v2h4v1h-4zM10 -1h2v1h-2v-1zM4 -1h4v1h1v1h-1v-1h-4v-1zM1 4v1h14v-1h-6v-2h-2v2h-6zM11 5v1h1v4h-10v1h12v-5h-1v-1h-2z" />
    <glyph glyph-name="glyph1499" unicode="&#xad7c;" 
d="M13 -2h-10v1h-1v4h12v-4h-1v-1zM4 -1h8v3h-8v-3zM1 4v1h14v-1h-6v-2h-2v2h-6zM11 5v1h1v4h-10v1h12v-5h-1v-1h-2z" />
    <glyph glyph-name="glyph1500" unicode="&#xad7d;" 
d="M13 -2h-10v1h-1v4h2v-2h8v2h2v-4h-1v-1zM4 -1h8v1h-8v-1zM1 4v1h14v-1h-6v-2h-2v2h-6zM11 5v1h1v4h-10v1h12v-5h-1v-1h-2z" />
    <glyph glyph-name="glyph1501" unicode="&#xad7e;" 
d="M14 -2h-2v1h-2v-1h-2v1h1v1h1v3h2v-3h1v-1h1v-1zM7 -2h-4v1h-1v4h2v-2h2v2h2v-4h-1v-1zM4 -1h2v1h-2v-1zM1 4v1h14v-1h-6v-2h-2v2h-6zM11 5v1h1v4h-10v1h12v-5h-1v-1h-2z" />
    <glyph glyph-name="glyph1502" unicode="&#xad7f;" 
d="M2 -2v1h3v1h1v1h1v2h2v-2h1v-1h1v-1h3v-1h-4v1h-1v1h-2v-1h-1v-1h-4zM1 4v1h14v-1h-6v-2h-2v2h-6zM11 5v1h1v4h-10v1h12v-5h-1v-1h-2z" />
    <glyph glyph-name="glyph1503" unicode="&#xad80;" 
d="M2 -2v1h1v1h1v3h2v-3h1v-1h2v1h1v3h2v-3h1v-1h1v-1h-2v1h-2v-1h-4v1h-2v-1h-2zM1 4v1h14v-1h-6v-2h-2v2h-6zM11 5v1h1v4h-10v1h12v-5h-1v-1h-2z" />
    <glyph glyph-name="glyph1504" unicode="&#xad81;" 
d="M12 -2h-8v1h-2v3h2v1h8v-1h2v-3h-2v-1zM5 -1h6v1h1v1h-1v1h-6v-1h-1v-1h1v-1zM1 4v1h14v-1h-6v-2h-2v2h-6zM11 5v1h1v4h-10v1h12v-5h-1v-1h-2z" />
    <glyph glyph-name="glyph1505" unicode="&#xad82;" 
d="M2 -2v1h3v1h1v1h1v1h-5v1h12v-1h-5v-1h1v-1h1v-1h3v-1h-4v1h-1v1h-2v-1h-1v-1h-4zM1 4v1h14v-1h-6v-2h-2v2h-6zM11 5v1h1v4h-10v1h12v-5h-1v-1h-2z" />
    <glyph glyph-name="glyph1506" unicode="&#xad83;" 
d="M2 -2v1h3v1h1v1h-4v1h5v1h2v-1h5v-1h-4v-1h1v-1h3v-1h-4v1h-1v1h-2v-1h-1v-1h-4zM1 4v1h14v-1h-6v-2h-2v2h-6zM11 5v1h1v4h-10v1h12v-5h-1v-1h-2z" />
    <glyph glyph-name="glyph1507" unicode="&#xad84;" 
d="M2 0v1h10v1h-10v1h12v-4h-1v-1h-1v2h-10zM1 4v1h14v-1h-6v-2h-2v2h-6zM11 5v1h1v4h-10v1h12v-5h-1v-1h-2z" />
    <glyph glyph-name="glyph1508" unicode="&#xad85;" 
d="M14 -2h-11v1h-1v4h12v-1h-10v-1h10v-1h-10v-1h10v-1zM1 4v1h14v-1h-6v-2h-2v2h-6zM11 5v1h1v4h-10v1h12v-5h-1v-1h-2z" />
    <glyph glyph-name="glyph1509" unicode="&#xad86;" 
d="M2 -2v1h2v3h-2v1h12v-1h-2v-3h2v-1h-12zM6 -1h4v3h-4v-3zM1 4v1h14v-1h-6v-2h-2v2h-6zM11 5v1h1v4h-10v1h12v-5h-1v-1h-2z" />
    <glyph glyph-name="glyph1510" unicode="&#xad87;" 
d="M2 -1v1h1v1h-1v1h5v1h2v-1h5v-1h-1v-1h1v-1h-1v-1h-10v1h-1zM4 -1h8v1h-8v-1zM1 4v1h14v-1h-6v-2h-2v2h-6zM11 5v1h1v4h-10v1h12v-5h-1v-1h-2z" />
    <glyph glyph-name="glyph1511" unicode="&#xad88;" 
d="M8 1v1h4v1h-6v-5h-2v5h-3v1h11v7h2v-13h-2v3h-4zM6 4v1h1v4h-6v1h8v-5h-1v-1h-2z" />
    <glyph glyph-name="glyph1512" unicode="&#xad89;" 
d="M2 2v1h12v-4h-1v-1h-1v4h-10zM1 5v1h11v5h2v-8h-2v1h-3v1h-3v-2h-2v2h-3zM6 6v1h1v3h-6v1h8v-4h-1v-1h-2z" />
    <glyph glyph-name="glyph1513" unicode="&#xad8a;" 
d="M9 2v1h5v-4h-1v-1h-1v4h-3zM2 2v1h6v-4h-1v-1h-1v4h-4zM1 5v1h11v5h2v-8h-2v1h-3v1h-3v-2h-2v2h-3zM6 6v1h1v3h-6v1h8v-4h-1v-1h-2z" />
    <glyph glyph-name="glyph1514" unicode="&#xad8b;" 
d="M9 -2v1h1v1h1v3h2v-3h1v-1h1v-1h-2v1h-2v-1h-2zM2 2v1h6v-4h-1v-1h-1v4h-4zM1 5v1h11v5h2v-8h-2v1h-3v1h-3v-2h-2v2h-3zM6 6v1h1v3h-6v1h8v-4h-1v-1h-2z" />
    <glyph glyph-name="glyph1515" unicode="&#xad8c;" 
d="M14 -2h-11v1h-1v4h2v-4h10v-1zM1 5v1h11v5h2v-8h-2v1h-3v1h-3v-2h-2v2h-3zM6 6v1h1v3h-6v1h8v-4h-1v-1h-2z" />
    <glyph glyph-name="glyph1516" unicode="&#xad8d;" 
d="M8 2v1h6v-1h-2v-2h1v-1h1v-1h-2v1h-2v-1h-7v1h-1v4h2v-4h5v1h1v2h-2zM1 5v1h11v5h2v-8h-2v1h-3v1h-3v-2h-2v2h-3zM6 6v1h1v3h-6v1h8v-4h-1v-1h-2z" />
    <glyph glyph-name="glyph1517" unicode="&#xad8e;" 
d="M7 1v1h2v1h3v-1h2v-1h-1v-1h1v-1h-1v-1h-5v1h-1v-1h-4v1h-1v4h2v-4h3v1h1v1h-1zM9 -1h3v1h-3v-1zM1 5v1h11v5h2v-8h-2v1h-3v1h-3v-2h-2v2h-3zM6 6v1h1v3h-6v1h8v-4h-1v-1h-2z" />
    <glyph glyph-name="glyph1518" unicode="&#xad8f;" 
d="M14 -2h-11v1h-1v4h12v-1h-10v-3h10v-1zM1 5v1h11v5h2v-8h-2v1h-3v1h-3v-2h-2v2h-3zM6 6v1h1v3h-6v1h8v-4h-1v-1h-2z" />
    <glyph glyph-name="glyph1519" unicode="&#xad90;" 
d="M2 2v1h12v-3h-10v-1h10v-1h-11v1h-1v2h10v1h-10zM1 5v1h11v5h2v-8h-2v1h-3v1h-3v-2h-2v2h-3zM6 6v1h1v3h-6v1h8v-4h-1v-1h-2z" />
    <glyph glyph-name="glyph1520" unicode="&#xad91;" 
d="M9 2v1h5v-4h-1v-1h-1v4h-3zM2 2v1h6v-3h-4v-1h4v-1h-5v1h-1v2h4v1h-4zM1 5v1h11v5h2v-8h-2v1h-3v1h-3v-2h-2v2h-3zM6 6v1h1v3h-6v1h8v-4h-1v-1h-2z" />
    <glyph glyph-name="glyph1521" unicode="&#xad92;" 
d="M2 2v1h5v-3h-3v-1h3v-1h-4v1h-1v2h3v1h-3zM13 -2h-4v1h-1v4h6v-4h-1v-1zM10 -1h2v3h-2v-3zM1 5v1h11v5h2v-8h-2v1h-3v1h-3v-2h-2v2h-3zM6 6v1h1v3h-6v1h8v-4h-1v-1h-2z" />
    <glyph glyph-name="glyph1522" unicode="&#xad93;" 
d="M2 2v1h5v-3h-3v-1h3v-1h-4v1h-1v2h3v1h-3zM13 -2h-4v1h-1v4h2v-2h2v2h2v-4h-1v-1zM10 -1h2v1h-2v-1zM1 5v1h11v5h2v-8h-2v1h-3v1h-3v-2h-2v2h-3zM6 6v1h1v3h-6v1h8v-4h-1v-1h-2z" />
    <glyph glyph-name="glyph1523" unicode="&#xad94;" 
d="M9 -2v1h1v1h1v3h2v-3h1v-1h1v-1h-2v1h-2v-1h-2zM2 2v1h6v-3h-4v-1h4v-1h-5v1h-1v2h4v1h-4zM1 5v1h11v5h2v-8h-2v1h-3v1h-3v-2h-2v2h-3zM6 6v1h1v3h-6v1h8v-4h-1v-1h-2z" />
    <glyph glyph-name="glyph1524" unicode="&#xad95;" 
d="M2 2v1h6v-3h-4v-1h4v-1h-5v1h-1v2h4v1h-4zM14 -2h-5v5h5v-1h-3v-1h3v-1h-3v-1h3v-1zM1 5v1h11v5h2v-8h-2v1h-3v1h-3v-2h-2v2h-3zM6 6v1h1v3h-6v1h8v-4h-1v-1h-2z" />
    <glyph glyph-name="glyph1525" unicode="&#xad96;" 
d="M2 2v1h12v-1h-1v-3h1v-1h-11v1h-1v2h3v1h-3zM4 -1h4v3h-1v-2h-3v-1zM11 -1v3h-1v-3h1zM1 5v1h11v5h2v-8h-2v1h-3v1h-3v-2h-2v2h-3zM6 6v1h1v3h-6v1h8v-4h-1v-1h-2z" />
    <glyph glyph-name="glyph1526" unicode="&#xad97;" 
d="M2 2v1h6v-1h2v1h2v-1h2v-1h-1v-1h1v-1h-1v-1h-4v1h-1v-1h-5v1h-1v2h4v1h-4zM10 -1h2v1h-2v-1zM4 -1h4v1h1v1h-1v-1h-4v-1zM1 5v1h11v5h2v-8h-2v1h-3v1h-3v-2h-2v2h-3zM6 6v1h1v3h-6v1h8v-4h-1v-1h-2z" />
    <glyph glyph-name="glyph1527" unicode="&#xad98;" 
d="M13 -2h-10v1h-1v4h12v-4h-1v-1zM4 -1h8v3h-8v-3zM1 5v1h11v5h2v-8h-2v1h-3v1h-3v-2h-2v2h-3zM6 6v1h1v3h-6v1h8v-4h-1v-1h-2z" />
    <glyph glyph-name="glyph1528" unicode="&#xad99;" 
d="M13 -2h-10v1h-1v4h2v-2h8v2h2v-4h-1v-1zM4 -1h8v1h-8v-1zM1 5v1h11v5h2v-8h-2v1h-3v1h-3v-2h-2v2h-3zM6 6v1h1v3h-6v1h8v-4h-1v-1h-2z" />
    <glyph glyph-name="glyph1529" unicode="&#xad9a;" 
d="M9 -2v1h1v1h1v3h2v-3h1v-1h1v-1h-2v1h-2v-1h-2zM7 -2h-4v1h-1v4h2v-2h2v2h2v-4h-1v-1zM4 -1h2v1h-2v-1zM1 5v1h11v5h2v-8h-2v1h-3v1h-3v-2h-2v2h-3zM6 6v1h1v3h-6v1h8v-4h-1v-1h-2z" />
    <glyph glyph-name="glyph1530" unicode="&#xad9b;" 
d="M2 -2v1h2v-1h-2zM14 -2h-2v1h2v-1zM12 -1h-3v1h-2v-1h-3v1h2v1h1v2h2v-2h1v-1h2v-1zM1 5v1h11v5h2v-8h-2v1h-3v1h-3v-2h-2v2h-3zM6 6v1h1v3h-6v1h8v-4h-1v-1h-2z" />
    <glyph glyph-name="glyph1531" unicode="&#xad9c;" 
d="M9 -2v1h1v1h1v3h2v-3h1v-1h1v-1h-2v1h-2v-1h-2zM2 -2v1h1v1h1v3h2v-3h1v-1h1v-1h-2v1h-2v-1h-2zM1 5v1h11v5h2v-8h-2v1h-3v1h-3v-2h-2v2h-3zM6 6v1h1v3h-6v1h8v-4h-1v-1h-2z" />
    <glyph glyph-name="glyph1532" unicode="&#xad9d;" 
d="M12 -2h-8v1h-2v3h2v1h8v-1h2v-3h-2v-1zM5 -1h6v1h1v1h-1v1h-6v-1h-1v-1h1v-1zM1 5v1h11v5h2v-8h-2v1h-3v1h-3v-2h-2v2h-3zM6 6v1h1v3h-6v1h8v-4h-1v-1h-2z" />
    <glyph glyph-name="glyph1533" unicode="&#xad9e;" 
d="M2 -2v1h3v1h1v1h1v1h-5v1h12v-1h-5v-1h1v-1h1v-1h3v-1h-4v1h-1v1h-2v-1h-1v-1h-4zM1 5v1h11v5h2v-8h-2v1h-3v1h-3v-2h-2v2h-3zM6 6v1h1v3h-6v1h8v-4h-1v-1h-2z" />
    <glyph glyph-name="glyph1534" unicode="&#xad9f;" 
d="M2 -2v1h3v1h1v1h-4v1h4v1h4v-1h4v-1h-4v-1h1v-1h3v-1h-4v1h-1v1h-2v-1h-1v-1h-4zM1 5v1h11v5h2v-8h-2v1h-3v1h-3v-2h-2v2h-3zM6 6v1h1v3h-6v1h8v-4h-1v-1h-2z" />
    <glyph glyph-name="glyph1535" unicode="&#xada0;" 
d="M2 0v1h10v1h-10v1h12v-4h-1v-1h-1v2h-10zM1 5v1h11v5h2v-8h-2v1h-3v1h-3v-2h-2v2h-3zM6 6v1h1v3h-6v1h8v-4h-1v-1h-2z" />
    <glyph glyph-name="glyph1536" unicode="&#xada1;" 
d="M14 -2h-11v1h-1v4h12v-1h-10v-1h9v-1h-9v-1h10v-1zM1 5v1h11v5h2v-8h-2v1h-3v1h-3v-2h-2v2h-3zM6 6v1h1v3h-6v1h8v-4h-1v-1h-2z" />
    <glyph glyph-name="glyph1537" unicode="&#xada2;" 
d="M2 -2v1h2v3h-2v1h12v-1h-2v-3h2v-1h-12zM6 -1h4v3h-4v-3zM1 5v1h11v5h2v-8h-2v1h-3v1h-3v-2h-2v2h-3zM6 6v1h1v3h-6v1h8v-4h-1v-1h-2z" />
    <glyph glyph-name="glyph1538" unicode="&#xada3;" 
d="M2 -1v1h1v1h-1v1h5v1h2v-1h5v-1h-1v-1h1v-1h-1v-1h-10v1h-1zM4 -1h8v1h-8v-1zM1 5v1h11v5h2v-8h-2v1h-3v1h-3v-2h-2v2h-3zM6 6v1h1v3h-6v1h8v-4h-1v-1h-2z" />
    <glyph glyph-name="glyph1539" unicode="&#xada4;" 
d="M8 1v1h2v1h-4v-5h-2v5h-3v1h9v7h2v-13h-2v3h-2zM15 -2h-2v13h2v-13zM6 4v1h1v4h-6v1h8v-5h-1v-1h-2z" />
    <glyph glyph-name="glyph1540" unicode="&#xada5;" 
d="M2 2v1h13v-4h-1v-1h-1v4h-11zM1 5v1h9v5h2v-8h-2v1h-2v1h-2v-2h-2v2h-3zM15 3h-2v8h2v-8zM6 6v1h1v3h-6v1h8v-4h-1v-1h-2z" />
    <glyph glyph-name="glyph1541" unicode="&#xada6;" 
d="M9 2v1h6v-4h-1v-1h-1v4h-4zM2 2v1h6v-4h-1v-1h-1v4h-4zM1 5v1h9v5h2v-8h-2v1h-2v1h-2v-2h-2v2h-3zM15 3h-2v8h2v-8zM6 6v1h1v3h-6v1h8v-4h-1v-1h-2z" />
    <glyph glyph-name="glyph1542" unicode="&#xada7;" 
d="M9 -2v1h1v1h1v3h2v-3h1v-1h1v-1h-2v1h-2v-1h-2zM2 2v1h6v-4h-1v-1h-1v4h-4zM1 5v1h9v5h2v-8h-2v1h-2v1h-2v-2h-2v2h-3zM15 3h-2v8h2v-8zM6 6v1h1v3h-6v1h8v-4h-1v-1h-2z" />
    <glyph glyph-name="glyph1543" unicode="&#xada8;" 
d="M15 -2h-12v1h-1v4h2v-4h11v-1zM1 5v1h9v5h2v-8h-2v1h-2v1h-2v-2h-2v2h-3zM15 3h-2v8h2v-8zM6 6v1h1v3h-6v1h8v-4h-1v-1h-2z" />
    <glyph glyph-name="glyph1544" unicode="&#xada9;" 
d="M9 -2v1h1v1h1v2h-2v1h6v-1h-2v-2h1v-1h1v-1h-2v1h-2v-1h-2zM8 -2h-5v1h-1v4h2v-4h4v-1zM1 5v1h9v5h2v-8h-2v1h-2v1h-2v-2h-2v2h-3zM15 3h-2v8h2v-8zM6 6v1h1v3h-6v1h8v-4h-1v-1h-2z" />
    <glyph glyph-name="glyph1545" unicode="&#xadaa;" 
d="M8 1v1h2v1h3v-1h2v-1h-1v-1h1v-1h-1v-1h-5v1h-1v-1h-5v1h-1v4h2v-4h4v1h1v1h-1zM10 -1h3v1h-3v-1zM1 5v1h9v5h2v-8h-2v1h-2v1h-2v-2h-2v2h-3zM15 3h-2v8h2v-8zM6 6v1h1v3h-6v1h8v-4h-1v-1h-2z" />
    <glyph glyph-name="glyph1546" unicode="&#xadab;" 
d="M15 -2h-12v1h-1v4h13v-1h-11v-3h11v-1zM1 5v1h9v5h2v-8h-2v1h-2v1h-2v-2h-2v2h-3zM15 3h-2v8h2v-8zM6 6v1h1v3h-6v1h8v-4h-1v-1h-2z" />
    <glyph glyph-name="glyph1547" unicode="&#xadac;" 
d="M2 2v1h13v-3h-11v-1h11v-1h-12v1h-1v2h11v1h-11zM1 5v1h9v5h2v-8h-2v1h-2v1h-2v-2h-2v2h-3zM15 3h-2v8h2v-8zM6 6v1h1v3h-6v1h8v-4h-1v-1h-2z" />
    <glyph glyph-name="glyph1548" unicode="&#xadad;" 
d="M9 2v1h6v-4h-1v-1h-1v4h-4zM2 2v1h6v-3h-4v-1h4v-1h-5v1h-1v2h4v1h-4zM1 5v1h9v5h2v-8h-2v1h-2v1h-2v-2h-2v2h-3zM15 3h-2v8h2v-8zM6 6v1h1v3h-6v1h8v-4h-1v-1h-2z" />
    <glyph glyph-name="glyph1549" unicode="&#xadae;" 
d="M2 2v1h6v-3h-4v-1h4v-1h-5v1h-1v2h4v1h-4zM14 -2h-4v1h-1v4h6v-4h-1v-1zM11 -1h2v3h-2v-3zM1 5v1h9v5h2v-8h-2v1h-2v1h-2v-2h-2v2h-3zM15 3h-2v8h2v-8zM6 6v1h1v3h-6v1h8v-4h-1v-1h-2z" />
    <glyph glyph-name="glyph1550" unicode="&#xadaf;" 
d="M2 2v1h6v-3h-4v-1h4v-1h-5v1h-1v2h4v1h-4zM14 -2h-4v1h-1v4h2v-2h2v2h2v-4h-1v-1zM11 -1h2v1h-2v-1zM1 5v1h9v5h2v-8h-2v1h-2v1h-2v-2h-2v2h-3zM15 3h-2v8h2v-8zM6 6v1h1v3h-6v1h8v-4h-1v-1h-2z" />
    <glyph glyph-name="glyph1551" unicode="&#xadb0;" 
d="M9 -2v1h1v1h1v3h2v-3h1v-1h1v-1h-2v1h-2v-1h-2zM2 2v1h6v-3h-4v-1h4v-1h-5v1h-1v2h4v1h-4zM1 5v1h9v5h2v-8h-2v1h-2v1h-2v-2h-2v2h-3zM15 3h-2v8h2v-8zM6 6v1h1v3h-6v1h8v-4h-1v-1h-2z" />
    <glyph glyph-name="glyph1552" unicode="&#xadb1;" 
d="M2 2v1h6v-3h-4v-1h4v-1h-5v1h-1v2h4v1h-4zM15 -2h-6v5h6v-1h-4v-1h4v-1h-4v-1h4v-1zM1 5v1h9v5h2v-8h-2v1h-2v1h-2v-2h-2v2h-3zM15 3h-2v8h2v-8zM6 6v1h1v3h-6v1h8v-4h-1v-1h-2z" />
    <glyph glyph-name="glyph1553" unicode="&#xadb2;" 
d="M2 2v1h13v-1h-1v-3h1v-1h-12v1h-1v2h4v1h-4zM4 -1h5v3h-1v-2h-4v-1zM12 -1v3h-1v-3h1zM1 5v1h9v5h2v-8h-2v1h-2v1h-2v-2h-2v2h-3zM15 3h-2v8h2v-8zM6 6v1h1v3h-6v1h8v-4h-1v-1h-2z" />
    <glyph glyph-name="glyph1554" unicode="&#xadb3;" 
d="M2 2v1h6v-1h2v1h3v-1h2v-1h-1v-1h1v-1h-1v-1h-5v1h-1v-1h-5v1h-1v2h4v1h-4zM10 -1h3v1h-3v-1zM4 -1h4v1h1v1h-1v-1h-4v-1zM1 5v1h9v5h2v-8h-2v1h-2v1h-2v-2h-2v2h-3zM15 3h-2v8h2v-8zM6 6v1h1v3h-6v1h8v-4h-1v-1h-2z" />
    <glyph glyph-name="glyph1555" unicode="&#xadb4;" 
d="M14 -2h-11v1h-1v4h13v-4h-1v-1zM4 -1h9v3h-9v-3zM1 5v1h9v5h2v-8h-2v1h-2v1h-2v-2h-2v2h-3zM15 3h-2v8h2v-8zM6 6v1h1v3h-6v1h8v-4h-1v-1h-2z" />
    <glyph glyph-name="glyph1556" unicode="&#xadb5;" 
d="M14 -2h-11v1h-1v4h2v-2h9v2h2v-4h-1v-1zM4 -1h9v1h-9v-1zM1 5v1h9v5h2v-8h-2v1h-2v1h-2v-2h-2v2h-3zM15 3h-2v8h2v-8zM6 6v1h1v3h-6v1h8v-4h-1v-1h-2z" />
    <glyph glyph-name="glyph1557" unicode="&#xadb6;" 
d="M15 -2h-2v1h-2v-1h-3v1h2v1h1v3h2v-3h1v-1h1v-1zM7 -2h-4v1h-1v4h2v-2h2v2h2v-4h-1v-1zM4 -1h2v1h-2v-1zM1 5v1h9v5h2v-8h-2v1h-2v1h-2v-2h-2v2h-3zM15 3h-2v8h2v-8zM6 6v1h1v3h-6v1h8v-4h-1v-1h-2z" />
    <glyph glyph-name="glyph1558" unicode="&#xadb7;" 
d="M2 -2v1h3v1h1v1h1v2h3v-2h1v-1h1v-1h3v-1h-4v1h-1v1h-1v1h-1v-1h-1v-1h-1v-1h-4zM1 5v1h9v5h2v-8h-2v1h-2v1h-2v-2h-2v2h-3zM15 3h-2v8h2v-8zM6 6v1h1v3h-6v1h8v-4h-1v-1h-2z" />
    <glyph glyph-name="glyph1559" unicode="&#xadb8;" 
d="M9 -2v1h1v1h1v3h2v-3h1v-1h1v-1h-2v1h-2v-1h-2zM2 -2v1h1v1h1v3h2v-3h1v-1h1v-1h-2v1h-2v-1h-2zM1 5v1h9v5h2v-8h-2v1h-2v1h-2v-2h-2v2h-3zM15 3h-2v8h2v-8zM6 6v1h1v3h-6v1h8v-4h-1v-1h-2z" />
    <glyph glyph-name="glyph1560" unicode="&#xadb9;" 
d="M13 -2h-9v1h-2v3h2v1h9v-1h2v-3h-2v-1zM5 -1h7v1h1v1h-1v1h-7v-1h-1v-1h1v-1zM1 5v1h9v5h2v-8h-2v1h-2v1h-2v-2h-2v2h-3zM15 3h-2v8h2v-8zM6 6v1h1v3h-6v1h8v-4h-1v-1h-2z" />
    <glyph glyph-name="glyph1561" unicode="&#xadba;" 
d="M2 -2v1h3v1h1v1h1v1h-5v1h13v-1h-5v-1h1v-1h1v-1h3v-1h-4v1h-1v1h-1v1h-1v-1h-1v-1h-1v-1h-4zM1 5v1h9v5h2v-8h-2v1h-2v1h-2v-2h-2v2h-3zM15 3h-2v8h2v-8zM6 6v1h1v3h-6v1h8v-4h-1v-1h-2z" />
    <glyph glyph-name="glyph1562" unicode="&#xadbb;" 
d="M2 -2v1h3v1h1v1h-4v1h5v1h3v-1h5v-1h-4v-1h1v-1h3v-1h-4v1h-1v1h-1v1h-1v-1h-1v-1h-1v-1h-4zM1 5v1h9v5h2v-8h-2v1h-2v1h-2v-2h-2v2h-3zM15 3h-2v8h2v-8zM6 6v1h1v3h-6v1h8v-4h-1v-1h-2z" />
    <glyph glyph-name="glyph1563" unicode="&#xadbc;" 
d="M2 0v1h11v1h-11v1h13v-4h-1v-1h-1v2h-11zM1 5v1h9v5h2v-8h-2v1h-2v1h-2v-2h-2v2h-3zM15 3h-2v8h2v-8zM6 6v1h1v3h-6v1h8v-4h-1v-1h-2z" />
    <glyph glyph-name="glyph1564" unicode="&#xadbd;" 
d="M15 -2h-12v1h-1v4h13v-1h-11v-1h11v-1h-11v-1h11v-1zM1 5v1h9v5h2v-8h-2v1h-2v1h-2v-2h-2v2h-3zM15 3h-2v8h2v-8zM6 6v1h1v3h-6v1h8v-4h-1v-1h-2z" />
    <glyph glyph-name="glyph1565" unicode="&#xadbe;" 
d="M2 -2v1h2v3h-2v1h13v-1h-2v-3h2v-1h-13zM6 -1h5v3h-5v-3zM1 5v1h9v5h2v-8h-2v1h-2v1h-2v-2h-2v2h-3zM15 3h-2v8h2v-8zM6 6v1h1v3h-6v1h8v-4h-1v-1h-2z" />
    <glyph glyph-name="glyph1566" unicode="&#xadbf;" 
d="M2 -1v1h1v1h-1v1h5v1h3v-1h5v-1h-1v-1h1v-1h-1v-1h-11v1h-1zM4 -1h9v1h-9v-1zM1 5v1h9v5h2v-8h-2v1h-2v1h-2v-2h-2v2h-3zM15 3h-2v8h2v-8zM6 6v1h1v3h-6v1h8v-4h-1v-1h-2z" />
    <glyph glyph-name="glyph1567" unicode="&#xadc0;" 
d="M1 3v1h11v7h2v-13h-2v5h-6v-5h-2v5h-3zM6 4v1h1v4h-6v1h8v-5h-1v-1h-2z" />
    <glyph glyph-name="glyph1568" unicode="&#xadc1;" 
d="M2 2v1h12v-4h-1v-1h-1v4h-10zM1 5v1h11v5h2v-8h-2v2h-6v-2h-2v2h-3zM6 6v1h1v3h-6v1h8v-4h-1v-1h-2z" />
    <glyph glyph-name="glyph1569" unicode="&#xadc2;" 
d="M9 2v1h5v-4h-1v-1h-1v4h-3zM2 2v1h6v-4h-1v-1h-1v4h-4zM1 5v1h11v5h2v-8h-2v2h-6v-2h-2v2h-3zM6 6v1h1v3h-6v1h8v-4h-1v-1h-2z" />
    <glyph glyph-name="glyph1570" unicode="&#xadc3;" 
d="M9 -2v1h1v1h1v3h2v-3h1v-1h1v-1h-2v1h-2v-1h-2zM2 2v1h6v-4h-1v-1h-1v4h-4zM1 5v1h11v5h2v-8h-2v2h-6v-2h-2v2h-3zM6 6v1h1v3h-6v1h8v-4h-1v-1h-2z" />
    <glyph glyph-name="glyph1571" unicode="&#xadc4;" 
d="M14 -2h-11v1h-1v4h2v-4h10v-1zM1 5v1h11v5h2v-8h-2v2h-6v-2h-2v2h-3zM6 6v1h1v3h-6v1h8v-4h-1v-1h-2z" />
    <glyph glyph-name="glyph1572" unicode="&#xadc5;" 
d="M8 2v1h6v-1h-2v-2h1v-1h1v-1h-2v1h-2v-1h-7v1h-1v4h2v-4h5v1h1v2h-2zM1 5v1h11v5h2v-8h-2v2h-6v-2h-2v2h-3zM6 6v1h1v3h-6v1h8v-4h-1v-1h-2z" />
    <glyph glyph-name="glyph1573" unicode="&#xadc6;" 
d="M7 1v1h2v1h3v-1h2v-1h-1v-1h1v-1h-1v-1h-5v1h-1v-1h-4v1h-1v4h2v-4h3v1h1v1h-1zM9 -1h3v1h-3v-1zM1 5v1h11v5h2v-8h-2v2h-6v-2h-2v2h-3zM6 6v1h1v3h-6v1h8v-4h-1v-1h-2z" />
    <glyph glyph-name="glyph1574" unicode="&#xadc7;" 
d="M14 -2h-11v1h-1v4h12v-1h-10v-3h10v-1zM1 5v1h11v5h2v-8h-2v2h-6v-2h-2v2h-3zM6 6v1h1v3h-6v1h8v-4h-1v-1h-2z" />
    <glyph glyph-name="glyph1575" unicode="&#xadc8;" 
d="M2 2v1h12v-3h-10v-1h10v-1h-11v1h-1v2h10v1h-10zM1 5v1h11v5h2v-8h-2v2h-6v-2h-2v2h-3zM6 6v1h1v3h-6v1h8v-4h-1v-1h-2z" />
    <glyph glyph-name="glyph1576" unicode="&#xadc9;" 
d="M9 2v1h5v-4h-1v-1h-1v4h-3zM2 2v1h6v-3h-4v-1h4v-1h-5v1h-1v2h4v1h-4zM1 5v1h11v5h2v-8h-2v2h-6v-2h-2v2h-3zM6 6v1h1v3h-6v1h8v-4h-1v-1h-2z" />
    <glyph glyph-name="glyph1577" unicode="&#xadca;" 
d="M2 2v1h5v-3h-3v-1h3v-1h-4v1h-1v2h3v1h-3zM13 -2h-4v1h-1v4h6v-4h-1v-1zM10 -1h2v3h-2v-3zM1 5v1h11v5h2v-8h-2v2h-6v-2h-2v2h-3zM6 6v1h1v3h-6v1h8v-4h-1v-1h-2z" />
    <glyph glyph-name="glyph1578" unicode="&#xadcb;" 
d="M2 2v1h5v-3h-3v-1h3v-1h-4v1h-1v2h3v1h-3zM13 -2h-4v1h-1v4h2v-2h2v2h2v-4h-1v-1zM10 -1h2v1h-2v-1zM1 5v1h11v5h2v-8h-2v2h-6v-2h-2v2h-3zM6 6v1h1v3h-6v1h8v-4h-1v-1h-2z" />
    <glyph glyph-name="glyph1579" unicode="&#xadcc;" 
d="M9 -2v1h1v1h1v3h2v-3h1v-1h1v-1h-2v1h-2v-1h-2zM2 2v1h6v-3h-4v-1h4v-1h-5v1h-1v2h4v1h-4zM1 5v1h11v5h2v-8h-2v2h-6v-2h-2v2h-3zM6 6v1h1v3h-6v1h8v-4h-1v-1h-2z" />
    <glyph glyph-name="glyph1580" unicode="&#xadcd;" 
d="M2 2v1h6v-3h-4v-1h4v-1h-5v1h-1v2h4v1h-4zM14 -2h-5v5h5v-1h-3v-1h3v-1h-3v-1h3v-1zM1 5v1h11v5h2v-8h-2v2h-6v-2h-2v2h-3zM6 6v1h1v3h-6v1h8v-4h-1v-1h-2z" />
    <glyph glyph-name="glyph1581" unicode="&#xadce;" 
d="M2 2v1h12v-1h-1v-3h1v-1h-11v1h-1v2h3v1h-3zM4 -1h4v3h-1v-2h-3v-1zM11 -1v3h-1v-3h1zM1 5v1h11v5h2v-8h-2v2h-6v-2h-2v2h-3zM6 6v1h1v3h-6v1h8v-4h-1v-1h-2z" />
    <glyph glyph-name="glyph1582" unicode="&#xadcf;" 
d="M2 2v1h6v-1h2v1h2v-1h2v-1h-1v-1h1v-1h-1v-1h-4v1h-1v-1h-5v1h-1v2h4v1h-4zM10 -1h2v1h-2v-1zM4 -1h4v1h1v1h-1v-1h-4v-1zM1 5v1h11v5h2v-8h-2v2h-6v-2h-2v2h-3zM6 6v1h1v3h-6v1h8v-4h-1v-1h-2z" />
    <glyph glyph-name="glyph1583" unicode="&#xadd0;" 
d="M13 -2h-10v1h-1v4h12v-4h-1v-1zM4 -1h8v3h-8v-3zM1 5v1h11v5h2v-8h-2v2h-6v-2h-2v2h-3zM6 6v1h1v3h-6v1h8v-4h-1v-1h-2z" />
    <glyph glyph-name="glyph1584" unicode="&#xadd1;" 
d="M13 -2h-10v1h-1v4h2v-2h8v2h2v-4h-1v-1zM4 -1h8v1h-8v-1zM1 5v1h11v5h2v-8h-2v2h-6v-2h-2v2h-3zM6 6v1h1v3h-6v1h8v-4h-1v-1h-2z" />
    <glyph glyph-name="glyph1585" unicode="&#xadd2;" 
d="M9 -2v1h1v1h1v3h2v-3h1v-1h1v-1h-2v1h-2v-1h-2zM7 -2h-4v1h-1v4h2v-2h2v2h2v-4h-1v-1zM4 -1h2v1h-2v-1zM1 5v1h11v5h2v-8h-2v2h-6v-2h-2v2h-3zM6 6v1h1v3h-6v1h8v-4h-1v-1h-2z" />
    <glyph glyph-name="glyph1586" unicode="&#xadd3;" 
d="M2 -2v1h2v-1h-2zM14 -2h-2v1h2v-1zM12 -1h-3v1h-2v-1h-3v1h2v1h1v2h2v-2h1v-1h2v-1zM1 5v1h11v5h2v-8h-2v2h-6v-2h-2v2h-3zM6 6v1h1v3h-6v1h8v-4h-1v-1h-2z" />
    <glyph glyph-name="glyph1587" unicode="&#xadd4;" 
d="M9 -2v1h1v1h1v3h2v-3h1v-1h1v-1h-2v1h-2v-1h-2zM2 -2v1h1v1h1v3h2v-3h1v-1h1v-1h-2v1h-2v-1h-2zM1 5v1h11v5h2v-8h-2v2h-6v-2h-2v2h-3zM6 6v1h1v3h-6v1h8v-4h-1v-1h-2z" />
    <glyph glyph-name="glyph1588" unicode="&#xadd5;" 
d="M12 -2h-8v1h-2v3h2v1h8v-1h2v-3h-2v-1zM5 -1h6v1h1v1h-1v1h-6v-1h-1v-1h1v-1zM1 5v1h11v5h2v-8h-2v2h-6v-2h-2v2h-3zM6 6v1h1v3h-6v1h8v-4h-1v-1h-2z" />
    <glyph glyph-name="glyph1589" unicode="&#xadd6;" 
d="M2 -2v1h3v1h1v1h1v1h-5v1h12v-1h-5v-1h1v-1h1v-1h3v-1h-4v1h-1v1h-2v-1h-1v-1h-4zM1 5v1h11v5h2v-8h-2v2h-6v-2h-2v2h-3zM6 6v1h1v3h-6v1h8v-4h-1v-1h-2z" />
    <glyph glyph-name="glyph1590" unicode="&#xadd7;" 
d="M2 -2v1h3v1h1v1h-4v1h4v1h4v-1h4v-1h-4v-1h1v-1h3v-1h-4v1h-1v1h-2v-1h-1v-1h-4zM1 5v1h11v5h2v-8h-2v2h-6v-2h-2v2h-3zM6 6v1h1v3h-6v1h8v-4h-1v-1h-2z" />
    <glyph glyph-name="glyph1591" unicode="&#xadd8;" 
d="M2 0v1h10v1h-10v1h12v-4h-1v-1h-1v2h-10zM1 5v1h11v5h2v-8h-2v2h-6v-2h-2v2h-3zM6 6v1h1v3h-6v1h8v-4h-1v-1h-2z" />
    <glyph glyph-name="glyph1592" unicode="&#xadd9;" 
d="M14 -2h-11v1h-1v4h12v-1h-10v-1h9v-1h-9v-1h10v-1zM1 5v1h11v5h2v-8h-2v2h-6v-2h-2v2h-3zM6 6v1h1v3h-6v1h8v-4h-1v-1h-2z" />
    <glyph glyph-name="glyph1593" unicode="&#xadda;" 
d="M2 -2v1h2v3h-2v1h12v-1h-2v-3h2v-1h-12zM6 -1h4v3h-4v-3zM1 5v1h11v5h2v-8h-2v2h-6v-2h-2v2h-3zM6 6v1h1v3h-6v1h8v-4h-1v-1h-2z" />
    <glyph glyph-name="glyph1594" unicode="&#xaddb;" 
d="M2 -1v1h1v1h-1v1h5v1h2v-1h5v-1h-1v-1h1v-1h-1v-1h-10v1h-1zM4 -1h8v1h-8v-1zM1 5v1h11v5h2v-8h-2v2h-6v-2h-2v2h-3zM6 6v1h1v3h-6v1h8v-4h-1v-1h-2z" />
    <glyph glyph-name="glyph1595" unicode="&#xaddc;" 
d="M1 2v1h14v-1h-3v-4h-2v4h-4v-4h-2v4h-3zM11 3v1h1v5h-10v1h12v-6h-1v-1h-2z" />
    <glyph glyph-name="glyph1596" unicode="&#xaddd;" 
d="M2 2v1h12v-4h-1v-1h-1v4h-10zM1 4v1h14v-1h-3v-2h-2v2h-4v-2h-2v2h-3zM11 5v1h1v4h-10v1h12v-5h-1v-1h-2z" />
    <glyph glyph-name="glyph1597" unicode="&#xadde;" 
d="M2 2v1h12v-4h-1v-1h-1v4h-4v-3h-1v-1h-1v4h-4zM1 4v1h14v-1h-3v-2h-2v2h-4v-2h-2v2h-3zM11 5v1h1v4h-10v1h12v-5h-1v-1h-2z" />
    <glyph glyph-name="glyph1598" unicode="&#xaddf;" 
d="M2 2v1h6v-4h1v1h1v3h2v-3h1v-1h1v-1h-2v1h-2v-1h-2v1h-1v-1h-1v4h-4zM1 4v1h14v-1h-3v-2h-2v2h-4v-2h-2v2h-3zM11 5v1h1v4h-10v1h12v-5h-1v-1h-2z" />
    <glyph glyph-name="glyph1599" unicode="&#xade0;" 
d="M14 -2h-11v1h-1v4h2v-4h10v-1zM1 4v1h14v-1h-3v-2h-2v2h-4v-2h-2v2h-3zM11 5v1h1v4h-10v1h12v-5h-1v-1h-2z" />
    <glyph glyph-name="glyph1600" unicode="&#xade1;" 
d="M8 2v1h6v-1h-2v-2h1v-1h1v-1h-2v1h-2v-1h-7v1h-1v4h2v-4h5v1h1v2h-2zM1 4v1h14v-1h-3v-2h-2v2h-4v-2h-2v2h-3zM11 5v1h1v4h-10v1h12v-5h-1v-1h-2z" />
    <glyph glyph-name="glyph1601" unicode="&#xade2;" 
d="M7 1v1h2v1h3v-1h2v-1h-1v-1h1v-1h-1v-1h-5v1h-1v-1h-4v1h-1v4h2v-4h3v1h1v1h-1zM9 -1h3v1h-3v-1zM1 4v1h14v-1h-3v-2h-2v2h-4v-2h-2v2h-3zM11 5v1h1v4h-10v1h12v-5h-1v-1h-2z" />
    <glyph glyph-name="glyph1602" unicode="&#xade3;" 
d="M14 -2h-11v1h-1v4h12v-1h-10v-3h10v-1zM1 4v1h14v-1h-3v-2h-2v2h-4v-2h-2v2h-3zM11 5v1h1v4h-10v1h12v-5h-1v-1h-2z" />
    <glyph glyph-name="glyph1603" unicode="&#xade4;" 
d="M2 2v1h12v-3h-10v-1h10v-1h-11v1h-1v2h10v1h-10zM1 4v1h14v-1h-3v-2h-2v2h-4v-2h-2v2h-3zM11 5v1h1v4h-10v1h12v-5h-1v-1h-2z" />
    <glyph glyph-name="glyph1604" unicode="&#xade5;" 
d="M2 2v1h12v-4h-1v-1h-1v4h-4v-2h-4v-1h4v-1h-5v1h-1v2h4v1h-4zM1 4v1h14v-1h-3v-2h-2v2h-4v-2h-2v2h-3zM11 5v1h1v4h-10v1h12v-5h-1v-1h-2z" />
    <glyph glyph-name="glyph1605" unicode="&#xade6;" 
d="M2 2v1h5v-3h-3v-1h3v-1h-4v1h-1v2h3v1h-3zM13 -2h-4v1h-1v4h6v-4h-1v-1zM10 -1h2v3h-2v-3zM1 4v1h14v-1h-3v-2h-2v2h-4v-2h-2v2h-3zM11 5v1h1v4h-10v1h12v-5h-1v-1h-2z" />
    <glyph glyph-name="glyph1606" unicode="&#xade7;" 
d="M2 2v1h5v-3h-3v-1h3v-1h-4v1h-1v2h3v1h-3zM13 -2h-4v1h-1v4h2v-2h2v2h2v-4h-1v-1zM10 -1h2v1h-2v-1zM1 4v1h14v-1h-3v-2h-2v2h-4v-2h-2v2h-3zM11 5v1h1v4h-10v1h12v-5h-1v-1h-2z" />
    <glyph glyph-name="glyph1607" unicode="&#xade8;" 
d="M2 2v1h6v-3h-4v-1h5v1h1v3h2v-3h1v-1h1v-1h-2v1h-2v-1h-7v1h-1v2h4v1h-4zM1 4v1h14v-1h-3v-2h-2v2h-4v-2h-2v2h-3zM11 5v1h1v4h-10v1h12v-5h-1v-1h-2z" />
    <glyph glyph-name="glyph1608" unicode="&#xade9;" 
d="M2 2v1h6v-3h-4v-1h4v-1h-5v1h-1v2h4v1h-4zM14 -2h-5v5h5v-1h-3v-1h3v-1h-3v-1h3v-1zM1 4v1h14v-1h-3v-2h-2v2h-4v-2h-2v2h-3zM11 5v1h1v4h-10v1h12v-5h-1v-1h-2z" />
    <glyph glyph-name="glyph1609" unicode="&#xadea;" 
d="M2 2v1h12v-1h-1v-3h1v-1h-11v1h-1v2h3v1h-3zM4 -1h4v3h-1v-2h-3v-1zM11 -1v3h-1v-3h1zM1 4v1h14v-1h-3v-2h-2v2h-4v-2h-2v2h-3zM11 5v1h1v4h-10v1h12v-5h-1v-1h-2z" />
    <glyph glyph-name="glyph1610" unicode="&#xadeb;" 
d="M2 2v1h6v-1h2v1h2v-1h2v-1h-1v-1h1v-1h-1v-1h-4v1h-1v-1h-5v1h-1v2h4v1h-4zM10 -1h2v1h-2v-1zM4 -1h4v1h1v1h-1v-1h-4v-1zM1 4v1h14v-1h-3v-2h-2v2h-4v-2h-2v2h-3zM11 5v1h1v4h-10v1h12v-5h-1v-1h-2z" />
    <glyph glyph-name="glyph1611" unicode="&#xadec;" 
d="M13 -2h-10v1h-1v4h12v-4h-1v-1zM4 -1h8v3h-8v-3zM1 4v1h14v-1h-3v-2h-2v2h-4v-2h-2v2h-3zM11 5v1h1v4h-10v1h12v-5h-1v-1h-2z" />
    <glyph glyph-name="glyph1612" unicode="&#xaded;" 
d="M13 -2h-10v1h-1v4h2v-2h8v2h2v-4h-1v-1zM4 -1h8v1h-8v-1zM1 4v1h14v-1h-3v-2h-2v2h-4v-2h-2v2h-3zM11 5v1h1v4h-10v1h12v-5h-1v-1h-2z" />
    <glyph glyph-name="glyph1613" unicode="&#xadee;" 
d="M14 -2h-2v1h-2v-1h-2v1h1v1h1v3h2v-3h1v-1h1v-1zM7 -2h-4v1h-1v4h2v-2h2v2h2v-4h-1v-1zM4 -1h2v1h-2v-1zM1 4v1h14v-1h-3v-2h-2v2h-4v-2h-2v2h-3zM11 5v1h1v4h-10v1h12v-5h-1v-1h-2z" />
    <glyph glyph-name="glyph1614" unicode="&#xadef;" 
d="M2 -2v1h3v1h1v1h1v2h2v-2h1v-1h1v-1h3v-1h-4v1h-1v1h-2v-1h-1v-1h-4zM1 4v1h14v-1h-3v-2h-2v2h-4v-2h-2v2h-3zM11 5v1h1v4h-10v1h12v-5h-1v-1h-2z" />
    <glyph glyph-name="glyph1615" unicode="&#xadf0;" 
d="M2 -2v1h1v1h1v3h2v-3h1v-1h2v1h1v3h2v-3h1v-1h1v-1h-2v1h-2v-1h-4v1h-2v-1h-2zM1 4v1h14v-1h-3v-2h-2v2h-4v-2h-2v2h-3zM11 5v1h1v4h-10v1h12v-5h-1v-1h-2z" />
    <glyph glyph-name="glyph1616" unicode="&#xadf1;" 
d="M12 -2h-8v1h-2v3h2v1h8v-1h2v-3h-2v-1zM5 -1h6v1h1v1h-1v1h-6v-1h-1v-1h1v-1zM1 4v1h14v-1h-3v-2h-2v2h-4v-2h-2v2h-3zM11 5v1h1v4h-10v1h12v-5h-1v-1h-2z" />
    <glyph glyph-name="glyph1617" unicode="&#xadf2;" 
d="M2 -2v1h3v1h1v1h1v1h-5v1h12v-1h-5v-1h1v-1h1v-1h3v-1h-4v1h-1v1h-2v-1h-1v-1h-4zM1 4v1h14v-1h-3v-2h-2v2h-4v-2h-2v2h-3zM11 5v1h1v4h-10v1h12v-5h-1v-1h-2z" />
    <glyph glyph-name="glyph1618" unicode="&#xadf3;" 
d="M2 -2v1h3v1h1v1h-4v1h5v1h2v-1h5v-1h-4v-1h1v-1h3v-1h-4v1h-1v1h-2v-1h-1v-1h-4zM1 4v1h14v-1h-3v-2h-2v2h-4v-2h-2v2h-3zM11 5v1h1v4h-10v1h12v-5h-1v-1h-2z" />
    <glyph glyph-name="glyph1619" unicode="&#xadf4;" 
d="M2 0v1h10v1h-10v1h12v-4h-1v-1h-1v2h-10zM1 4v1h14v-1h-3v-2h-2v2h-4v-2h-2v2h-3zM11 5v1h1v4h-10v1h12v-5h-1v-1h-2z" />
    <glyph glyph-name="glyph1620" unicode="&#xadf5;" 
d="M14 -2h-11v1h-1v4h12v-1h-10v-1h10v-1h-10v-1h10v-1zM1 4v1h14v-1h-3v-2h-2v2h-4v-2h-2v2h-3zM11 5v1h1v4h-10v1h12v-5h-1v-1h-2z" />
    <glyph glyph-name="glyph1621" unicode="&#xadf6;" 
d="M2 -2v1h2v3h-2v1h12v-1h-2v-3h2v-1h-12zM6 -1h4v3h-4v-3zM1 4v1h14v-1h-3v-2h-2v2h-4v-2h-2v2h-3zM11 5v1h1v4h-10v1h12v-5h-1v-1h-2z" />
    <glyph glyph-name="glyph1622" unicode="&#xadf7;" 
d="M2 -1v1h1v1h-1v1h5v1h2v-1h5v-1h-1v-1h1v-1h-1v-1h-10v1h-1zM4 -1h8v1h-8v-1zM1 4v1h14v-1h-3v-2h-2v2h-4v-2h-2v2h-3zM11 5v1h1v4h-10v1h12v-5h-1v-1h-2z" />
    <glyph glyph-name="glyph1623" unicode="&#xadf8;" 
d="M1 -1v1h14v-1h-14zM11 3v1h1v5h-10v1h12v-6h-1v-1h-2z" />
    <glyph glyph-name="glyph1624" unicode="&#xadf9;" 
d="M2 2v1h12v-4h-1v-1h-1v4h-10zM1 4v1h14v-1h-14zM11 5v1h1v4h-10v1h12v-5h-1v-1h-2z" />
    <glyph glyph-name="glyph1625" unicode="&#xadfa;" 
d="M2 2v1h12v-4h-1v-1h-1v4h-4v-3h-1v-1h-1v4h-4zM1 4v1h14v-1h-14zM11 5v1h1v4h-10v1h12v-5h-1v-1h-2z" />
    <glyph glyph-name="glyph1626" unicode="&#xadfb;" 
d="M2 2v1h6v-4h1v1h1v3h2v-3h1v-1h1v-1h-2v1h-2v-1h-2v1h-1v-1h-1v4h-4zM1 4v1h14v-1h-14zM11 5v1h1v4h-10v1h12v-5h-1v-1h-2z" />
    <glyph glyph-name="glyph1627" unicode="&#xadfc;" 
d="M14 -2h-11v1h-1v4h2v-4h10v-1zM1 4v1h14v-1h-14zM11 5v1h1v4h-10v1h12v-5h-1v-1h-2z" />
    <glyph glyph-name="glyph1628" unicode="&#xadfd;" 
d="M8 2v1h6v-1h-2v-2h1v-1h1v-1h-2v1h-2v-1h-7v1h-1v4h2v-4h5v1h1v2h-2zM1 4v1h14v-1h-14zM11 5v1h1v4h-10v1h12v-5h-1v-1h-2z" />
    <glyph glyph-name="glyph1629" unicode="&#xadfe;" 
d="M7 1v1h2v1h3v-1h2v-1h-1v-1h1v-1h-1v-1h-5v1h-1v-1h-4v1h-1v4h2v-4h3v1h1v1h-1zM9 -1h3v1h-3v-1zM1 4v1h14v-1h-14zM11 5v1h1v4h-10v1h12v-5h-1v-1h-2z" />
    </font>
</defs>
</svg>
