<?xml version="1.0" encoding="utf-8"?>
<!-- Generator: Adobe Illustrator 16.0.4, SVG Export Plug-In . SVG Version: 6.00 Build 0)  -->
<!DOCTYPE svg PUBLIC "-//W3C//DTD SVG 1.1//EN" "http://www.w3.org/Graphics/SVG/1.1/DTD/svg11.dtd">
<svg version="1.1" id="Layer_1" xmlns="http://www.w3.org/2000/svg" xmlns:xlink="http://www.w3.org/1999/xlink" x="0px" y="0px"
	 width="392px" height="392px" viewBox="0 0 392 392" enable-background="new 0 0 392 392" xml:space="preserve">
<g>
	<circle fill="#FFFFFF" cx="196" cy="195.507" r="196"/>
	<linearGradient id="SVGID_1_" gradientUnits="userSpaceOnUse" x1="88.1401" y1="87.9448" x2="302.8997" y2="302.7043">
		<stop  offset="0" style="stop-color:#DC2424"/>
		<stop  offset="1" style="stop-color:#340060"/>
	</linearGradient>
	<path fill="url(#SVGID_1_)" d="M253.161,54.535c-57.427-23.453-124.473-8.694-167.393,35.815
		c-43.332,44.935-53.4,112.947-27.879,169.331c25.267,55.824,84.719,90.43,145.422,87.696
		c80.32-3.618,144.119-72.177,144.631-151.952C347.55,134.063,310.118,77.789,253.161,54.535z M231.772,325.914
		C173.1,342.452,109.827,315.7,78.952,263.727c-31.2-52.518-21.412-120.902,21.158-163.989
		c42.889-43.413,111.488-51.483,163.988-21.159c41.447,23.941,66.715,69.262,67.021,116.848
		C330.732,255.961,290.077,309.479,231.772,325.914z M277.706,234.943c-2.955,2.958-8.891,3.517-11.754,0
		c-23.385-28.697-46.77-57.391-70.152-86.09c-23.386,28.699-46.771,57.393-70.154,86.09c-2.867,3.517-8.798,2.958-11.754,0
		c-3.447-3.445-2.861-8.246,0-11.754c25.342-31.101,50.688-62.201,76.028-93.301c2.667-3.27,9.094-3.27,11.756,0
		c25.344,31.1,50.687,62.2,76.03,93.301C280.565,226.697,281.151,231.498,277.706,234.943z M204.11,180.096
		c0,17.775,0,35.557,0,53.332c0,10.72-16.625,10.72-16.625,0c0-9.932,0-19.865,0-29.8c-8.387,10.436-16.777,20.876-25.165,31.315
		c-2.843,3.535-8.812,2.941-11.754,0c-3.464-3.462-2.835-8.226,0-11.754c12.654-15.746,25.31-31.493,37.958-47.237
		c0.379-0.66,0.851-1.228,1.387-1.723c0.004-0.002,0.004-0.009,0.009-0.014c2.775-3.454,8.528-2.958,11.536-0.194
		c0.059,0.047,0.111,0.096,0.164,0.146c0.02,0.016,0.035,0.031,0.056,0.048c0.009,0.007,0.017,0.019,0.021,0.028
		C203.149,175.58,204.11,177.525,204.11,180.096z M241.08,223.189c2.845,3.52,3.452,8.299,0,11.754
		c-2.948,2.951-8.901,3.528-11.756,0c-4.882-6.041-9.769-12.082-14.649-18.123v-26.297
		C223.475,201.411,232.28,212.299,241.08,223.189z"/>
</g>
</svg>
