<?xml version="1.0" encoding="utf-8"?>
<!-- Generator: Adobe Illustrator 16.0.4, SVG Export Plug-In . SVG Version: 6.00 Build 0)  -->
<!DOCTYPE svg PUBLIC "-//W3C//DTD SVG 1.1//EN" "http://www.w3.org/Graphics/SVG/1.1/DTD/svg11.dtd">
<svg version="1.1" id="Layer_1" xmlns="http://www.w3.org/2000/svg" xmlns:xlink="http://www.w3.org/1999/xlink" x="0px" y="0px"
	 width="515px" height="462px" viewBox="0 0 515 462" enable-background="new 0 0 515 462" xml:space="preserve">
<g>
	<circle opacity="0.8" fill="#FFFFFF" cx="158.848" cy="158.772" r="158.342"/>
	<circle opacity="0.8" fill="#FFFFFF" cx="357.164" cy="206.816" r="158.342"/>
	<circle opacity="0.8" fill="#FFFFFF" cx="183.571" cy="303.508" r="158.342"/>
	<linearGradient id="SVGID_1_" gradientUnits="userSpaceOnUse" x1="46.8838" y1="46.8076" x2="270.815" y2="270.7388">
		<stop  offset="0" style="stop-color:#DC2424"/>
		<stop  offset="1" style="stop-color:#340060"/>
	</linearGradient>
	<circle opacity="0.8" fill="url(#SVGID_1_)" cx="158.848" cy="158.772" r="158.342"/>
	<linearGradient id="SVGID_2_" gradientUnits="userSpaceOnUse" x1="245.1992" y1="94.8525" x2="469.129" y2="318.7823">
		<stop  offset="0" style="stop-color:#DC2424"/>
		<stop  offset="1" style="stop-color:#340060"/>
	</linearGradient>
	<circle opacity="0.8" fill="url(#SVGID_2_)" cx="357.164" cy="206.816" r="158.342"/>
	<linearGradient id="SVGID_3_" gradientUnits="userSpaceOnUse" x1="71.6064" y1="191.543" x2="295.5356" y2="415.4721">
		<stop  offset="0" style="stop-color:#DC2424"/>
		<stop  offset="1" style="stop-color:#340060"/>
	</linearGradient>
	<circle opacity="0.8" fill="url(#SVGID_3_)" cx="183.571" cy="303.508" r="158.342"/>
	<path fill="#FFFFFF" d="M258.197,194.1c-10.746-4.389-23.291-1.627-31.323,6.701c-8.108,8.408-9.992,21.136-5.216,31.686
		c4.728,10.446,15.853,16.922,27.211,16.41c15.029-0.677,26.968-13.506,27.063-28.434C275.859,208.98,268.855,198.45,258.197,194.1z
		 M254.194,244.88c-10.979,3.095-22.818-1.911-28.596-11.637c-5.838-9.827-4.006-22.623,3.959-30.686
		c8.025-8.123,20.862-9.634,30.687-3.959c7.755,4.479,12.483,12.96,12.541,21.864C272.712,231.791,265.105,241.805,254.194,244.88z
		 M262.79,227.857c-0.554,0.554-1.663,0.658-2.199,0c-4.376-5.37-8.752-10.739-13.128-16.109
		c-4.375,5.37-8.751,10.739-13.127,16.109c-0.537,0.658-1.646,0.554-2.199,0c-0.645-0.645-0.535-1.543,0-2.199
		c4.742-5.819,9.484-11.639,14.227-17.459c0.499-0.611,1.701-0.611,2.199,0c4.743,5.82,9.484,11.64,14.228,17.459
		C263.325,226.314,263.435,227.213,262.79,227.857z M249.019,217.595c0,3.326,0,6.653,0,9.979c0,2.006-3.11,2.006-3.11,0
		c0-1.858,0-3.718,0-5.576c-1.57,1.953-3.14,3.906-4.709,5.859c-0.532,0.661-1.649,0.551-2.199,0c-0.648-0.647-0.531-1.539,0-2.199
		c2.367-2.946,4.735-5.894,7.102-8.84c0.071-0.123,0.16-0.229,0.26-0.321c0.001-0.001,0.001-0.002,0.002-0.003
		c0.52-0.646,1.596-0.554,2.158-0.036c0.012,0.009,0.021,0.018,0.031,0.027c0.004,0.003,0.006,0.006,0.01,0.009
		c0.002,0.001,0.004,0.003,0.004,0.005C248.839,216.749,249.019,217.113,249.019,217.595z M255.937,225.658
		c0.532,0.658,0.646,1.553,0,2.199c-0.552,0.552-1.666,0.66-2.2,0c-0.914-1.131-1.827-2.261-2.741-3.391v-4.921
		C252.643,221.583,254.289,223.621,255.937,225.658z"/>
</g>
</svg>
