<?xml version="1.0" encoding="utf-8"?>
<!-- Generator: Adobe Illustrator 16.0.4, SVG Export Plug-In . SVG Version: 6.00 Build 0)  -->
<!DOCTYPE svg PUBLIC "-//W3C//DTD SVG 1.1//EN" "http://www.w3.org/Graphics/SVG/1.1/DTD/svg11.dtd">
<svg version="1.1" id="Layer_1" xmlns="http://www.w3.org/2000/svg" xmlns:xlink="http://www.w3.org/1999/xlink" x="0px" y="0px"
	 width="515px" height="359px" viewBox="0 0 515 359" enable-background="new 0 0 515 359" xml:space="preserve">
<g>
	<linearGradient id="SVGID_1_" gradientUnits="userSpaceOnUse" x1="45.4971" y1="-18.748" x2="468.996" y2="404.7509">
		<stop  offset="0" style="stop-color:#53887D"/>
		<stop  offset="1" style="stop-color:#246A6A"/>
	</linearGradient>
	<rect x="-0.253" y="27.002" opacity="0.75" fill="url(#SVGID_1_)" width="514.998" height="331.998"/>
	<g>
		<g>
			<g>
				<path fill="#FFFFFF" d="M304.562,190.236c0,18.21,0,36.421,0,54.631c1.667-1.667,3.333-3.333,5-5c-18.21,0-36.421,0-54.631,0
					c-6.449,0-6.449,10,0,10c18.21,0,36.421,0,54.631,0c2.726,0,5-2.274,5-5c0-18.21,0-36.421,0-54.631
					C314.562,183.788,304.562,183.788,304.562,190.236L304.562,190.236z"/>
			</g>
		</g>
		<g>
			<g>
				<path fill="#FFFFFF" d="M209.931,194.867c0-18.21,0-36.42,0-54.631c-1.667,1.667-3.333,3.333-5,5c18.21,0,36.42,0,54.631,0
					c6.448,0,6.448-10,0-10c-18.21,0-36.42,0-54.631,0c-2.726,0-5,2.274-5,5c0,18.21,0,36.42,0,54.631
					C199.931,201.315,209.931,201.315,209.931,194.867L209.931,194.867z"/>
			</g>
		</g>
		<g>
			<g>
				<path fill="#FFFFFF" d="M201.395,143.772c13.613,13.612,27.226,27.225,40.838,40.837c4.564,4.564,11.635-2.507,7.071-7.071
					c-13.613-13.612-27.226-27.225-40.838-40.838C203.902,132.137,196.832,139.208,201.395,143.772L201.395,143.772z"/>
			</g>
		</g>
		<g>
			<g>
				<path fill="#FFFFFF" d="M265.188,207.564c13.612,13.613,27.225,27.226,40.838,40.838c4.563,4.564,11.635-2.507,7.07-7.07
					c-13.612-13.613-27.225-27.226-40.838-40.838C267.695,195.93,260.624,203.001,265.188,207.564L265.188,207.564z"/>
			</g>
		</g>
	</g>
	<g>
		<path fill="#CCCCCC" d="M514.746,15.149h-515V3.576c0-1.775,1.454-3.215,3.248-3.215h508.505c1.793,0,3.247,1.439,3.247,3.215
			V15.149z"/>
		<circle fill="#6D6E71" cx="8.162" cy="8.398" r="3.028"/>
		<circle fill="#6D6E71" cx="18.071" cy="8.398" r="3.028"/>
		<circle fill="#6D6E71" cx="27.979" cy="8.398" r="3.028"/>
		<rect x="-0.254" y="14.436" fill="#E6E6E6" width="515" height="14.794"/>
	</g>
</g>
</svg>
